<svg width="114" height="14" viewBox="0 0 114 14" fill="none" xmlns="http://www.w3.org/2000/svg">
<g clip-path="url(#clip0_3124_1227)">
<path d="M13.461 11.5191C13.461 12.2297 13.5723 12.3136 14.1284 12.4657L14.4941 12.5675V13.1192H10.2353V12.5675L10.6167 12.4657C11.2201 12.3136 11.2683 12.2118 11.2683 11.5191V1.86089C11.2683 1.08316 11.2053 0.998133 10.665 0.727383L10.1562 0.4902V0.0269167L13.4124 0L13.5238 0.0671333C13.5238 0.0671333 13.4607 0.997025 13.4607 2.13053V11.5189L13.461 11.5191Z" fill="white"/>
<path d="M17.858 11.5191C17.858 12.2297 17.9694 12.3136 18.5254 12.4657L18.8911 12.5675V13.1192H14.6334V12.5675L15.015 12.4657C15.6184 12.3136 15.6666 12.2118 15.6666 11.5191V1.86089C15.6666 1.08316 15.6035 0.998133 15.0634 0.727383L14.5547 0.4902V0.0269167L17.8098 0L17.9211 0.0671333C17.9211 0.0671333 17.858 0.997025 17.858 2.13053V11.5189V11.5191Z" fill="white"/>
<path d="M26.797 12.5674L27.0356 12.4824C27.5759 12.3135 27.703 12.1277 28.2433 10.5208L31.4837 1.06641H32.7071L35.9002 10.6394C36.3774 12.0259 36.5361 12.3481 36.9964 12.4835L37.3138 12.5685V13.1202H32.3572V12.5685L32.7544 12.4667C33.2474 12.3313 33.3734 12.1121 33.3734 11.7561C33.3734 11.4686 33.2463 10.9269 33.119 10.5555L32.5641 8.72816H29.4025L28.8938 10.3183C28.6878 10.9271 28.5921 11.35 28.5921 11.6879C28.5921 12.094 28.7665 12.2967 29.3226 12.4488L29.7356 12.5674V13.1191H26.7969V12.5674H26.797ZM29.6411 8.08358H32.2687L31.0705 3.72055H31.0232L29.6411 8.08358Z" fill="white"/>
<path d="M0 12.5666L0.238599 12.4816C0.778877 12.3126 0.905983 12.1267 1.44626 10.52L4.68651 1.06445H5.90994L9.10288 10.6376C9.58008 12.0241 9.73873 12.3463 10.1991 12.4817L10.5165 12.5667V13.1184H5.55985V12.5667L5.9571 12.4649C6.45006 12.3296 6.57622 12.1103 6.57622 11.7543C6.57622 11.4666 6.44896 10.9251 6.32185 10.5535L5.76691 8.72731H2.60535L2.09661 10.3163C1.89066 10.9251 1.79493 11.348 1.79493 11.6861C1.79493 12.0922 1.96935 12.2949 2.5254 12.447L2.93841 12.5656V13.1173H0V12.5667V12.5666ZM2.84411 8.08274H5.4717L4.2735 3.7197H4.22619L2.84411 8.08274Z" fill="white"/>
<path d="M40.2265 11.5191C40.2265 12.2968 40.2738 12.3315 40.7983 12.4836L41.1482 12.5687V13.1203H37.0176V12.5687L37.3991 12.4669C37.9867 12.3147 38.0181 12.2476 38.0181 11.5202V1.82732C38.0181 1.08316 37.9865 0.998133 37.4462 0.727383L36.9375 0.4902V0.0269167L40.1789 0L40.2903 0.0671333C40.2903 0.0671333 40.2273 0.997025 40.2273 2.13053V11.5189H40.2262L40.2265 11.5191ZM40.2391 8.57486V8.45627L42.0026 6.3593C42.67 5.58157 42.8288 5.14187 42.8288 4.95488C42.8288 4.66735 42.6229 4.48162 42.193 4.34609L41.9544 4.27896V3.83135H45.1948V4.27896L44.9573 4.36398C44.3855 4.53292 44.0513 4.73654 43.4795 5.3789L41.9429 7.30027C42.7691 8.94077 44.0198 10.9605 44.8774 12.0259C45.1002 12.3134 45.2106 12.4152 45.4963 12.5161L45.6707 12.5664V13.1181H42.8593C41.7956 11.783 40.9694 10.0296 40.2389 8.57502L40.2391 8.57486Z" fill="white"/>
<path d="M46.5154 10.8082V4.77003H45.6094V4.60108C46.8013 4.12767 47.7861 3.09597 48.2622 1.91211H48.7225V3.83681H50.7721L50.7679 4.50371L48.7225 4.5463V10.7747C48.7225 11.671 48.9927 11.9419 49.7715 11.9419C50.2003 11.9419 50.6133 11.8401 50.8835 11.7394V12.1826C50.502 12.6223 49.7558 13.1975 48.6123 13.1975C47.2302 13.1975 46.5155 12.3135 46.5155 10.8084L46.5154 10.8082Z" fill="white"/>
<path d="M51.3598 12.5672L51.7413 12.4653C52.3289 12.3132 52.3614 12.2461 52.3614 11.5522V5.7167C52.3614 5.05756 52.2983 4.98932 51.7738 4.66822L51.3281 4.3639V3.83127L54.5212 3.83903L54.6327 3.88938C54.5854 4.37958 54.5696 4.97143 54.5696 5.936V11.5511C54.5696 12.2449 54.6169 12.3121 55.2055 12.4642L55.5712 12.566V13.1177H51.3608V12.5672H51.3597H51.3598ZM53.3935 0.439453C54.0609 0.439453 54.5696 0.929653 54.5696 1.64009C54.5696 2.35054 54.0609 2.82395 53.3935 2.82395C52.7261 2.82395 52.2174 2.3507 52.2174 1.64009C52.2174 0.929495 52.7261 0.439453 53.3935 0.439453Z" fill="white"/>
<path d="M55.6172 8.48993C55.6172 5.56377 57.5711 3.80469 59.6677 3.80469C61.7643 3.80469 63.1155 4.98855 63.1309 7.84757H57.8412C57.8412 10.8241 58.8261 11.7886 60.6057 11.7886C61.527 11.7886 62.2578 11.5515 62.878 11.1966V11.6745C62.3218 12.4017 61.21 13.2132 59.7003 13.2132C56.9204 13.2132 55.6172 11.3143 55.6172 8.48993ZM57.8411 7.29942L60.9397 7.32285C60.9397 5.0389 60.5969 4.2781 59.5961 4.2781C58.5953 4.2781 57.9051 4.89798 57.8411 7.29942Z" fill="white"/>
<path d="M18.8361 8.48993C18.8361 5.56377 20.79 3.80469 22.8868 3.80469C24.9835 3.80469 26.3341 4.98855 26.35 7.84757H21.0601C21.0601 10.8241 22.045 11.7886 23.8243 11.7886C24.746 11.7886 25.4765 11.5515 26.0966 11.1966V11.6745C25.5405 12.4017 24.4286 13.2132 22.9192 13.2132C20.1393 13.2132 18.8359 11.3143 18.8359 8.48993H18.8361ZM21.06 7.29942L24.1585 7.32285C24.1585 5.0389 23.8158 4.2781 22.8152 4.2781C21.8146 4.2781 21.124 4.89798 21.06 7.29942Z" fill="white"/>
<path d="M63.3828 12.5662L63.7644 12.4644C64.3516 12.3123 64.3842 12.2451 64.3842 11.5513V5.71577C64.3842 5.03874 64.3213 4.98839 63.8125 4.66729L63.3839 4.37975V4.2276L66.4499 3.83825L66.5609 3.8886L66.5455 5.0389H66.577C67.3873 4.4301 68.4677 3.80469 69.5795 3.80469C70.9775 3.80469 71.6606 4.54885 71.6606 6.0706V11.5504C71.6606 12.261 71.7081 12.3113 72.2797 12.4635L72.6768 12.5653V13.1204H68.515V12.5653L68.8807 12.4802C69.4049 12.3449 69.4523 12.2945 69.4523 11.5504V6.4924C69.4523 5.41035 69.1193 5.05441 68.3245 5.05441C67.5297 5.05441 66.9214 5.37219 66.5403 5.50756L66.5923 11.5502C66.5923 12.2944 66.6398 12.3447 67.1646 12.4801L67.5458 12.5651V13.1202H63.3839V12.5664H63.3828V12.5662Z" fill="white"/>
<path d="M9.66105 12.0123C9.66105 12.0123 9.88499 12.4487 10.4104 12.4487C10.9359 12.4487 11.2713 12.2484 11.2619 11.6776C11.2513 11.1059 11.6717 12.1129 11.6717 12.1129L10.8309 12.6724H9.95532L9.35938 12.3367L9.66105 12.0123Z" fill="white"/>
<path d="M36.4579 12.0119C36.4579 12.0119 36.6819 12.4482 37.2073 12.4482C37.7328 12.4482 38.0682 12.248 38.0587 11.6772C38.0493 11.1065 38.4686 12.1124 38.4686 12.1124L37.6277 12.672H36.7522L36.1562 12.3363L36.4579 12.0119Z" fill="white"/>
<path d="M13.4571 11.5535C13.4571 11.5535 13.2469 12.4487 14.5271 12.4487C15.2197 12.4487 15.6622 12.2484 15.6485 11.6776C15.6348 11.1059 16.1897 12.1129 16.1897 12.1129L15.0808 12.6724H13.9268L13.1406 12.3367L13.457 11.5535H13.4571Z" fill="white"/>
<path d="M14.4238 12.7867H14.8463V12.5449H14.3281L14.4238 12.7867Z" fill="white"/>
<path d="M14.72 12.6719H13.9844V13.1195H14.72V12.6719Z" fill="white"/>
<path d="M40.2266 8.18459C40.2266 8.18459 40.2414 8.28307 40.2613 8.30761C40.3064 8.36351 40.3095 8.33231 40.4956 8.15213C40.6817 7.97195 40.4715 8.41956 40.4715 8.41956L40.1562 8.5315L40.2266 8.18459Z" fill="white"/>
<path d="M40.2266 8.9016C40.2266 8.9016 40.2414 8.80311 40.2613 8.77841C40.3064 8.72252 40.3095 8.75387 40.4956 8.93405C40.6817 9.11424 40.4715 8.66663 40.4715 8.66663L40.1562 8.55469L40.2266 8.9016Z" fill="white"/>
<path d="M40.3665 8.41992H40.1562V8.64365H40.3665V8.41992Z" fill="white"/>
</g>
<path d="M76.0859 13.1653V6.65234H77.0818V13.1653H76.0859Z" fill="white"/>
<path d="M82.3875 9.94021V13.1647H81.5001V10.186C81.5001 9.56658 81.2286 9.14784 80.5586 9.14784C79.7982 9.14784 79.3093 9.61239 79.3093 10.3138V13.1651H78.4219V8.51955H79.3093V9.10237H79.3273C79.5716 8.74721 80.0517 8.38281 80.8484 8.38281C81.6995 8.38281 82.3875 8.87471 82.3875 9.94055V9.94021Z" fill="white"/>
<path d="M84.7416 13.165L83.0938 8.51953H84.0444L85.2577 12.2452H85.2668L86.4621 8.51953H87.3855L85.7377 13.165H84.7419H84.7416Z" fill="white"/>
<path d="M92.2993 11.0803H88.7502C88.7682 11.8545 89.2211 12.5744 90.1354 12.5744C90.9501 12.5744 91.2671 12.046 91.3487 11.7363H92.2541C92.0095 12.6291 91.3307 13.3032 90.1174 13.3032C88.6507 13.3032 87.8359 12.2555 87.8359 10.8345C87.8359 9.41349 88.705 8.375 90.1174 8.375C91.5298 8.375 92.3085 9.3041 92.3085 10.7432C92.3085 10.8711 92.3085 11.0075 92.2993 11.0803ZM91.3847 10.3788C91.3847 9.65004 90.8778 9.10379 90.0899 9.10379C89.3475 9.10379 88.8042 9.6138 88.7499 10.3788H91.3847Z" fill="white"/>
<path d="M93.0312 11.6146H93.9275C93.9639 12.152 94.2897 12.5711 95.1496 12.5711C95.9283 12.5711 96.1366 12.2248 96.1366 11.8877C96.1366 11.3049 95.521 11.241 94.9233 11.1135C94.1174 10.9221 93.194 10.6852 93.194 9.71982C93.194 8.91822 93.8368 8.38086 94.9505 8.38086C96.2182 8.38086 96.8246 9.06419 96.8878 9.86579H95.9915C95.9283 9.51062 95.7381 9.10076 94.9685 9.10076C94.3709 9.10076 94.1174 9.33731 94.1174 9.68359C94.1174 10.1663 94.6335 10.2117 95.2855 10.3573C96.1366 10.558 97.0601 10.8038 97.0601 11.8423C97.0601 12.744 96.3721 13.2906 95.1588 13.2906C93.7556 13.2906 93.0584 12.5618 93.0312 11.6146Z" fill="white"/>
<path d="M100.071 12.4455V13.1651C99.8443 13.2105 99.6992 13.2198 99.5093 13.2198C98.7489 13.2198 98.2872 12.9282 98.2872 11.8534V9.25722H97.6172V8.51954H98.2872V7.02539H99.1743V8.51954H100.062V9.25722H99.1743V11.8808C99.1743 12.3727 99.3102 12.4821 99.6904 12.4821C99.8443 12.4821 99.9167 12.4732 100.071 12.4455Z" fill="white"/>
<path d="M100.742 10.8434C100.742 9.39503 101.611 8.375 103.06 8.375C104.509 8.375 105.36 9.38615 105.36 10.8345C105.36 12.2828 104.491 13.3032 103.051 13.3032C101.612 13.3032 100.743 12.301 100.743 10.8437L100.742 10.8434ZM104.436 10.8434C104.436 9.86882 104.002 9.12191 103.06 9.12191C102.119 9.12191 101.666 9.86882 101.666 10.8434C101.666 11.8179 102.101 12.5652 103.06 12.5652C104.02 12.5652 104.436 11.8091 104.436 10.8434Z" fill="white"/>
<path d="M108.962 8.4375V9.29379C108.853 9.27568 108.772 9.26645 108.663 9.26645C107.858 9.26645 107.278 9.87662 107.278 10.7603V13.1651H106.391V8.51954H107.278V9.40318H107.296C107.541 8.82035 107.912 8.41016 108.537 8.41016C108.7 8.41016 108.826 8.41938 108.962 8.4375Z" fill="white"/>
<path d="M109.406 11.6146H110.303C110.339 12.152 110.665 12.5711 111.525 12.5711C112.303 12.5711 112.512 12.2248 112.512 11.8877C112.512 11.3049 111.896 11.241 111.298 11.1135C110.492 10.9221 109.569 10.6852 109.569 9.71982C109.569 8.91822 110.212 8.38086 111.326 8.38086C112.593 8.38086 113.2 9.06419 113.263 9.86579H112.367C112.303 9.51062 112.113 9.10076 111.344 9.10076C110.746 9.10076 110.492 9.33731 110.492 9.68359C110.492 10.1663 111.009 10.2117 111.661 10.3573C112.512 10.558 113.435 10.8038 113.435 11.8423C113.435 12.744 112.747 13.2906 111.534 13.2906C110.131 13.2906 109.433 12.5618 109.406 11.6146Z" fill="white"/>
<defs>
<clipPath id="clip0_3124_1227">
<rect width="73" height="14" fill="white"/>
</clipPath>
</defs>
</svg>
