<svg xmlns="http://www.w3.org/2000/svg" width="120" height="206" fill="none">
  <g opacity=".29">
    <path fill="#000" d="M54.489 201.376a2.249 2.249 0 0 0-1.712-.803c-.389 0-.752.104-1.063.259-.13.078-.234.155-.363.233a1.751 1.751 0 0 0-.311.311c-.312.388-.52.88-.52 1.424 0 .543.182 1.035.52 1.423.103.104.181.207.31.311.105.104.234.181.364.233.311.181.674.259 1.063.259.7 0 1.323-.311 1.712-.803.181-.207.311-.466.415-.75.078-.207.104-.44.104-.673 0-.233-.026-.466-.104-.673a1.933 1.933 0 0 0-.415-.751Z"/>
    <path fill="url(#a)" d="M54.489 201.376a2.249 2.249 0 0 0-1.712-.803c-.389 0-.752.104-1.063.259-.13.078-.234.155-.363.233a1.751 1.751 0 0 0-.311.311c-.312.388-.52.88-.52 1.424 0 .543.182 1.035.52 1.423.103.104.181.207.31.311.105.104.234.181.364.233.311.181.674.259 1.063.259.7 0 1.323-.311 1.712-.803.181-.207.311-.466.415-.75.078-.207.104-.44.104-.673 0-.233-.026-.466-.104-.673a1.933 1.933 0 0 0-.415-.751Z"/>
    <path fill="#000" d="M68.934 201.376a2.249 2.249 0 0 0-1.711-.803c-.234 0-.441.104-.648.156 0 0-.104 0-.156.026-.078.025-.182 0-.26.077-.13.078-.233.155-.363.233a1.754 1.754 0 0 0-.31.311c0 .026-.027.052-.053.103a.197.197 0 0 1-.052.104c-.103.155-.207.311-.259.492-.078.233-.13.466-.13.725 0 .258.052.491.13.724.052.182.156.337.26.492 0 .026.025.078.051.104 0 .026.026.077.052.103.104.104.182.207.311.311.104.104.234.181.363.233.078.052.182.026.26.078.052 0 .104.051.156.077.207.026.414.13.648.13.7 0 1.323-.311 1.712-.803.181-.207.31-.466.415-.75.077-.208.103-.441.103-.674 0-.233-.026-.466-.103-.673a1.935 1.935 0 0 0-.415-.75v-.026Z"/>
    <path fill="url(#b)" d="M68.934 201.376a2.249 2.249 0 0 0-1.711-.803c-.234 0-.441.104-.648.156 0 0-.104 0-.156.026-.078.025-.182 0-.26.077-.13.078-.233.155-.363.233a1.754 1.754 0 0 0-.31.311c0 .026-.027.052-.053.103a.197.197 0 0 1-.052.104c-.103.155-.207.311-.259.492-.078.233-.13.466-.13.725 0 .258.052.491.13.724.052.182.156.337.26.492 0 .026.025.078.051.104 0 .026.026.077.052.103.104.104.182.207.311.311.104.104.234.181.363.233.078.052.182.026.26.078.052 0 .104.051.156.077.207.026.414.13.648.13.7 0 1.323-.311 1.712-.803.181-.207.31-.466.415-.75.077-.208.103-.441.103-.674 0-.233-.026-.466-.103-.673a1.935 1.935 0 0 0-.415-.75v-.026Z"/>
    <path fill="#000" d="M54.489 187.034a2.248 2.248 0 0 0-1.712-.802c-.389 0-.752.103-1.063.259-.13.077-.234.155-.363.233-.104.103-.208.181-.311.31a2.282 2.282 0 0 0-.52 1.424c0 .544.182 1.036.52 1.424.103.103.181.207.31.311a1.1 1.1 0 0 0 .364.233c.311.181.674.258 1.063.258.7 0 1.323-.31 1.712-.802.181-.207.311-.466.415-.751.078-.207.104-.44.104-.673 0-.233-.026-.466-.104-.673a1.933 1.933 0 0 0-.415-.751Z"/>
    <path fill="url(#c)" d="M54.489 187.034a2.248 2.248 0 0 0-1.712-.802c-.389 0-.752.103-1.063.259-.13.077-.234.155-.363.233-.104.103-.208.181-.311.31a2.282 2.282 0 0 0-.52 1.424c0 .544.182 1.036.52 1.424.103.103.181.207.31.311a1.1 1.1 0 0 0 .364.233c.311.181.674.258 1.063.258.7 0 1.323-.31 1.712-.802.181-.207.311-.466.415-.751.078-.207.104-.44.104-.673 0-.233-.026-.466-.104-.673a1.933 1.933 0 0 0-.415-.751Z"/>
    <path fill="#000" d="M69.35 187.811s-.052-.052-.052-.104c-.052-.129-.13-.258-.208-.388-.052-.103-.078-.207-.156-.285 0-.026-.051-.026-.077-.051-.13-.156-.311-.259-.467-.363-.078-.052-.156-.129-.26-.155a2.205 2.205 0 0 0-.907-.207c-.363 0-.674.103-.986.259h-.078c-.13.077-.233.155-.363.233-.052.025-.077.077-.103.103l-.078.078c-.026.052-.078.077-.104.103-.104.104-.155.233-.207.363a1.028 1.028 0 0 0-.13.233 2.139 2.139 0 0 0-.156.828c0 .259.052.492.13.725.052.181.156.337.26.492 0 .026.025.077.051.103 0 .026.026.078.052.104.104.103.182.207.311.311.104.103.234.181.363.233.078.051.182.025.26.077.052 0 .104.052.155.078.208.026.415.129.649.129.7 0 1.322-.31 1.711-.802.13-.156.208-.337.286-.518h.026v-.103c0-.052.051-.078.078-.13.051-.207.103-.414.103-.647 0-.233-.026-.44-.103-.647v-.052Z"/>
    <path fill="url(#d)" d="M69.35 187.811s-.052-.052-.052-.104c-.052-.129-.13-.258-.208-.388-.052-.103-.078-.207-.156-.285 0-.026-.051-.026-.077-.051-.13-.156-.311-.259-.467-.363-.078-.052-.156-.129-.26-.155a2.205 2.205 0 0 0-.907-.207c-.363 0-.674.103-.986.259h-.078c-.13.077-.233.155-.363.233-.052.025-.077.077-.103.103l-.078.078c-.026.052-.078.077-.104.103-.104.104-.155.233-.207.363a1.028 1.028 0 0 0-.13.233 2.139 2.139 0 0 0-.156.828c0 .259.052.492.13.725.052.181.156.337.26.492 0 .026.025.077.051.103 0 .026.026.078.052.104.104.103.182.207.311.311.104.103.234.181.363.233.078.051.182.025.26.077.052 0 .104.052.155.078.208.026.415.129.649.129.7 0 1.322-.31 1.711-.802.13-.156.208-.337.286-.518h.026v-.103c0-.052.051-.078.078-.13.051-.207.103-.414.103-.647 0-.233-.026-.44-.103-.647v-.052Z"/>
    <path fill="#000" d="M45.567 176.369c1.232 0 2.23-.997 2.23-2.226 0-1.23-.998-2.227-2.23-2.227-1.231 0-2.23.997-2.23 2.227 0 1.229.998 2.226 2.23 2.226Z"/>
    <path fill="url(#e)" d="M45.567 176.369c1.232 0 2.23-.997 2.23-2.226 0-1.23-.998-2.227-2.23-2.227-1.231 0-2.23.997-2.23 2.227 0 1.229.998 2.226 2.23 2.226Z"/>
    <path fill="#000" d="M47.746 159.646c-.104-1.139-1.038-2.045-2.205-2.045-.96 0-1.763.621-2.074 1.475a1.89 1.89 0 0 0-.156.777 2.228 2.228 0 0 0 2.23 2.226 2.245 2.245 0 0 0 2.23-2.226c0-.052-.025-.104-.025-.181v-.026Z"/>
    <path fill="url(#f)" d="M47.746 159.646c-.104-1.139-1.038-2.045-2.205-2.045-.96 0-1.763.621-2.074 1.475a1.89 1.89 0 0 0-.156.777 2.228 2.228 0 0 0 2.23 2.226 2.245 2.245 0 0 0 2.23-2.226c0-.052-.025-.104-.025-.181v-.026Z"/>
    <path fill="#000" d="M31.122 162.053c1.231 0 2.23-.996 2.23-2.226s-.998-2.226-2.23-2.226-2.23.996-2.23 2.226.998 2.226 2.23 2.226Z"/>
    <path fill="url(#g)" d="M31.122 162.053c1.231 0 2.23-.996 2.23-2.226s-.998-2.226-2.23-2.226-2.23.996-2.23 2.226.998 2.226 2.23 2.226Z"/>
    <path fill="#000" d="M31.122 176.369c1.231 0 2.23-.997 2.23-2.226 0-1.23-.998-2.227-2.23-2.227s-2.23.997-2.23 2.227c0 1.229.998 2.226 2.23 2.226Z"/>
    <path fill="url(#h)" d="M31.122 176.369c1.231 0 2.23-.997 2.23-2.226 0-1.23-.998-2.227-2.23-2.227s-2.23.997-2.23 2.227c0 1.229.998 2.226 2.23 2.226Z"/>
    <path fill="#000" d="M16.676 157.575a2.228 2.228 0 0 0-2.23 2.226 2.245 2.245 0 0 0 2.23 2.226c.934 0 1.712-.569 2.049-1.372.104-.258.181-.569.181-.854 0-.285-.051-.595-.181-.88a2.243 2.243 0 0 0-2.049-1.372v.026Z"/>
    <path fill="url(#i)" d="M16.676 157.575a2.228 2.228 0 0 0-2.23 2.226 2.245 2.245 0 0 0 2.23 2.226c.934 0 1.712-.569 2.049-1.372.104-.258.181-.569.181-.854 0-.285-.051-.595-.181-.88a2.243 2.243 0 0 0-2.049-1.372v.026Z"/>
    <path fill="#000" d="M16.676 171.916a2.229 2.229 0 0 0-2.23 2.227 2.245 2.245 0 0 0 2.23 2.226c.934 0 1.712-.57 2.049-1.372.104-.259.181-.57.181-.854 0-.285-.051-.596-.181-.881a2.244 2.244 0 0 0-2.049-1.372v.026Z"/>
    <path fill="url(#j)" d="M16.676 171.916a2.229 2.229 0 0 0-2.23 2.227 2.245 2.245 0 0 0 2.23 2.226c.934 0 1.712-.57 2.049-1.372.104-.259.181-.57.181-.854 0-.285-.051-.596-.181-.881a2.244 2.244 0 0 0-2.049-1.372v.026Z"/>
    <path fill="#000" d="M2.23 162.053c1.232 0 2.23-.996 2.23-2.226s-.998-2.226-2.23-2.226c-1.231 0-2.23.996-2.23 2.226s.999 2.226 2.23 2.226Z"/>
    <path fill="url(#k)" d="M2.23 162.053c1.232 0 2.23-.996 2.23-2.226s-.998-2.226-2.23-2.226c-1.231 0-2.23.996-2.23 2.226s.999 2.226 2.23 2.226Z"/>
    <path fill="#000" d="M2.23 176.369c1.232 0 2.23-.997 2.23-2.226 0-1.23-.998-2.227-2.23-2.227-1.231 0-2.23.997-2.23 2.227 0 1.229.999 2.226 2.23 2.226Z"/>
    <path fill="url(#l)" d="M2.23 176.369c1.232 0 2.23-.997 2.23-2.226 0-1.23-.998-2.227-2.23-2.227-1.231 0-2.23.997-2.23 2.227 0 1.229.999 2.226 2.23 2.226Z"/>
    <path fill="#000" d="M74.433 114.628a2.228 2.228 0 0 0-2.23 2.226 2.245 2.245 0 0 0 2.23 2.227c1.219 0 2.23-1.01 2.23-2.227a2.245 2.245 0 0 0-2.23-2.226Z"/>
    <path fill="url(#m)" d="M74.433 114.628a2.228 2.228 0 0 0-2.23 2.226 2.245 2.245 0 0 0 2.23 2.227c1.219 0 2.23-1.01 2.23-2.227a2.245 2.245 0 0 0-2.23-2.226Z"/>
    <path fill="#000" d="M76.456 158.895c-.364-.751-1.116-1.294-2.023-1.294a2.24 2.24 0 0 0-2.23 2.2v.026a2.228 2.228 0 0 0 2.23 2.226c.933 0 1.711-.569 2.048-1.372.104-.259.182-.569.182-.854 0-.337-.078-.621-.207-.906v-.026Z"/>
    <path fill="url(#n)" d="M76.456 158.895c-.364-.751-1.116-1.294-2.023-1.294a2.24 2.24 0 0 0-2.23 2.2v.026a2.228 2.228 0 0 0 2.23 2.226c.933 0 1.711-.569 2.048-1.372.104-.259.182-.569.182-.854 0-.337-.078-.621-.207-.906v-.026Z"/>
    <path fill="#000" d="M74.433 176.369c1.231 0 2.23-.997 2.23-2.226 0-1.23-.998-2.227-2.23-2.227s-2.23.997-2.23 2.227c0 1.229.998 2.226 2.23 2.226Z"/>
    <path fill="url(#o)" d="M74.433 176.369c1.231 0 2.23-.997 2.23-2.226 0-1.23-.998-2.227-2.23-2.227s-2.23.997-2.23 2.227c0 1.229.998 2.226 2.23 2.226Z"/>
    <path fill="#000" d="M103.324 114.628a2.228 2.228 0 0 0-2.23 2.226 2.245 2.245 0 0 0 2.23 2.227c1.219 0 2.23-1.01 2.23-2.227a2.245 2.245 0 0 0-2.23-2.226Z"/>
    <path fill="url(#p)" d="M103.324 114.628a2.228 2.228 0 0 0-2.23 2.226 2.245 2.245 0 0 0 2.23 2.227c1.219 0 2.23-1.01 2.23-2.227a2.245 2.245 0 0 0-2.23-2.226Z"/>
    <path fill="#000" d="M103.324 133.396c1.232 0 2.23-.996 2.23-2.226s-.998-2.226-2.23-2.226-2.23.996-2.23 2.226.998 2.226 2.23 2.226Z"/>
    <path fill="url(#q)" d="M103.324 133.396c1.232 0 2.23-.996 2.23-2.226s-.998-2.226-2.23-2.226-2.23.996-2.23 2.226.998 2.226 2.23 2.226Z"/>
    <path fill="#000" d="M117.744 128.944c-.312 0-.597.051-.856.181a2.24 2.24 0 0 0-1.375 2.045 2.24 2.24 0 0 0 1.375 2.045c.259.104.57.181.856.181.233 0 .466-.052.674-.129.156-.052.285-.104.415-.207.674-.389 1.141-1.088 1.141-1.89a2.227 2.227 0 0 0-2.23-2.226Z"/>
    <path fill="url(#r)" d="M117.744 128.944c-.312 0-.597.051-.856.181a2.24 2.24 0 0 0-1.375 2.045 2.24 2.24 0 0 0 1.375 2.045c.259.104.57.181.856.181.233 0 .466-.052.674-.129.156-.052.285-.104.415-.207.674-.389 1.141-1.088 1.141-1.89a2.227 2.227 0 0 0-2.23-2.226Z"/>
    <path fill="#000" d="M103.324 147.712c1.232 0 2.23-.997 2.23-2.226 0-1.23-.998-2.227-2.23-2.227s-2.23.997-2.23 2.227c0 1.229.998 2.226 2.23 2.226Z"/>
    <path fill="url(#s)" d="M103.324 147.712c1.232 0 2.23-.997 2.23-2.226 0-1.23-.998-2.227-2.23-2.227s-2.23.997-2.23 2.227c0 1.229.998 2.226 2.23 2.226Z"/>
    <path fill="#000" d="M119.092 143.751c-.181-.129-.363-.259-.596-.336a1.739 1.739 0 0 0-.726-.156c-.312 0-.597.052-.856.181a2.24 2.24 0 0 0-1.375 2.046 2.24 2.24 0 0 0 1.375 2.045c.259.103.57.181.856.181.285 0 .596-.052.855-.181A2.249 2.249 0 0 0 120 145.46c0-.725-.363-1.346-.908-1.761v.052Z"/>
    <path fill="url(#t)" d="M119.092 143.751c-.181-.129-.363-.259-.596-.336a1.739 1.739 0 0 0-.726-.156c-.312 0-.597.052-.856.181a2.24 2.24 0 0 0-1.375 2.046 2.24 2.24 0 0 0 1.375 2.045c.259.103.57.181.856.181.285 0 .596-.052.855-.181A2.249 2.249 0 0 0 120 145.46c0-.725-.363-1.346-.908-1.761v.052Z"/>
    <path fill="#000" d="M88.878 162.053c1.232 0 2.23-.996 2.23-2.226s-.998-2.226-2.23-2.226c-1.231 0-2.23.996-2.23 2.226s.999 2.226 2.23 2.226Z"/>
    <path fill="url(#u)" d="M88.878 162.053c1.232 0 2.23-.996 2.23-2.226s-.998-2.226-2.23-2.226c-1.231 0-2.23.996-2.23 2.226s.999 2.226 2.23 2.226Z"/>
    <path fill="#000" d="M88.878 176.369c1.232 0 2.23-.997 2.23-2.226 0-1.23-.998-2.227-2.23-2.227-1.231 0-2.23.997-2.23 2.227 0 1.229.999 2.226 2.23 2.226Z"/>
    <path fill="url(#v)" d="M88.878 176.369c1.232 0 2.23-.997 2.23-2.226 0-1.23-.998-2.227-2.23-2.227-1.231 0-2.23.997-2.23 2.227 0 1.229.999 2.226 2.23 2.226Z"/>
    <path fill="#000" d="M88.878 147.712c1.232 0 2.23-.997 2.23-2.226 0-1.23-.998-2.227-2.23-2.227-1.231 0-2.23.997-2.23 2.227 0 1.229.999 2.226 2.23 2.226Z"/>
    <path fill="url(#w)" d="M88.878 147.712c1.232 0 2.23-.997 2.23-2.226 0-1.23-.998-2.227-2.23-2.227-1.231 0-2.23.997-2.23 2.227 0 1.229.999 2.226 2.23 2.226Z"/>
    <path fill="#000" d="M88.878 114.628a2.228 2.228 0 0 0-2.23 2.226 2.245 2.245 0 0 0 2.23 2.227c1.22 0 2.23-1.01 2.23-2.227a2.245 2.245 0 0 0-2.23-2.226Z"/>
    <path fill="url(#x)" d="M88.878 114.628a2.228 2.228 0 0 0-2.23 2.226 2.245 2.245 0 0 0 2.23 2.227c1.22 0 2.23-1.01 2.23-2.227a2.245 2.245 0 0 0-2.23-2.226Z"/>
    <path fill="#000" d="M88.878 133.396c1.232 0 2.23-.996 2.23-2.226s-.998-2.226-2.23-2.226c-1.231 0-2.23.996-2.23 2.226s.999 2.226 2.23 2.226Z"/>
    <path fill="url(#y)" d="M88.878 133.396c1.232 0 2.23-.996 2.23-2.226s-.998-2.226-2.23-2.226c-1.231 0-2.23.996-2.23 2.226s.999 2.226 2.23 2.226Z"/>
    <path fill="#000" d="M103.324 162.053c1.232 0 2.23-.996 2.23-2.226s-.998-2.226-2.23-2.226-2.23.996-2.23 2.226.998 2.226 2.23 2.226Z"/>
    <path fill="url(#z)" d="M103.324 162.053c1.232 0 2.23-.996 2.23-2.226s-.998-2.226-2.23-2.226-2.23.996-2.23 2.226.998 2.226 2.23 2.226Z"/>
    <path fill="#000" d="M62.114 116.13a1.862 1.862 0 0 0-.39-.699c-.103-.104-.18-.207-.31-.311a1.422 1.422 0 0 0-.364-.233H61a2.26 2.26 0 0 0-1.012-.259c-.337 0-.648.104-.96.233-.026 0-.077 0-.103.026a.983.983 0 0 0-.337.233c-.104.104-.208.181-.312.311a2.24 2.24 0 0 0-.363.699s-.026.051-.026.077c-.052.207-.103.44-.103.673 0 .233.026.466.103.673.078.285.234.544.415.751l.156.155c.415.415.96.648 1.582.648.389 0 .752-.104 1.063-.259.13-.078.234-.156.363-.233l.156-.156.155-.155c.182-.207.286-.44.39-.699v-.052c.051-.207.103-.44.103-.673 0-.233-.026-.44-.103-.673v-.052l-.052-.025Z"/>
    <path fill="url(#A)" d="M62.114 116.13a1.862 1.862 0 0 0-.39-.699c-.103-.104-.18-.207-.31-.311a1.422 1.422 0 0 0-.364-.233H61a2.26 2.26 0 0 0-1.012-.259c-.337 0-.648.104-.96.233-.026 0-.077 0-.103.026a.983.983 0 0 0-.337.233c-.104.104-.208.181-.312.311a2.24 2.24 0 0 0-.363.699s-.026.051-.026.077c-.052.207-.103.44-.103.673 0 .233.026.466.103.673.078.285.234.544.415.751l.156.155c.415.415.96.648 1.582.648.389 0 .752-.104 1.063-.259.13-.078.234-.156.363-.233l.156-.156.155-.155c.182-.207.286-.44.39-.699v-.052c.051-.207.103-.44.103-.673 0-.233-.026-.44-.103-.673v-.052l-.052-.025Z"/>
    <path fill="#000" d="M61.725 172.719a2.249 2.249 0 0 0-1.712-.803c-.39 0-.752.104-1.063.259-.13.078-.234.155-.363.233-.13.078-.208.181-.312.311-.31.388-.518.88-.518 1.424 0 .543.181 1.035.518 1.423.104.104.182.207.312.311.13.104.233.181.363.233.31.181.674.259 1.063.259.7 0 1.323-.311 1.712-.803.181-.207.31-.466.415-.75.051-.207.103-.44.103-.673 0-.233-.026-.466-.103-.673a1.933 1.933 0 0 0-.415-.751Z"/>
    <path fill="url(#B)" d="M61.725 172.719a2.249 2.249 0 0 0-1.712-.803c-.39 0-.752.104-1.063.259-.13.078-.234.155-.363.233-.13.078-.208.181-.312.311-.31.388-.518.88-.518 1.424 0 .543.181 1.035.518 1.423.104.104.182.207.312.311.13.104.233.181.363.233.31.181.674.259 1.063.259.7 0 1.323-.311 1.712-.803.181-.207.31-.466.415-.75.051-.207.103-.44.103-.673 0-.233-.026-.466-.103-.673a1.933 1.933 0 0 0-.415-.751Z"/>
    <path fill="#000" d="M61.725 158.403a2.248 2.248 0 0 0-1.712-.802c-.39 0-.752.103-1.063.259-.13.077-.234.155-.363.233-.13.077-.208.181-.312.31a2.28 2.28 0 0 0-.518 1.424c0 .544.181 1.035.518 1.424.104.103.182.207.312.31.13.104.233.182.363.233.31.182.674.259 1.063.259.26 0 .519-.077.752-.181.39-.129.726-.336.986-.647.181-.207.31-.466.415-.751.051-.207.103-.44.103-.673 0-.233-.026-.466-.103-.673a1.933 1.933 0 0 0-.415-.751l-.026.026Z"/>
    <path fill="url(#C)" d="M61.725 158.403a2.248 2.248 0 0 0-1.712-.802c-.39 0-.752.103-1.063.259-.13.077-.234.155-.363.233-.13.077-.208.181-.312.31a2.28 2.28 0 0 0-.518 1.424c0 .544.181 1.035.518 1.424.104.103.182.207.312.31.13.104.233.182.363.233.31.182.674.259 1.063.259.26 0 .519-.077.752-.181.39-.129.726-.336.986-.647.181-.207.31-.466.415-.751.051-.207.103-.44.103-.673 0-.233-.026-.466-.103-.673a1.933 1.933 0 0 0-.415-.751l-.026.026Z"/>
    <path fill="#000" d="M62.217 102.513c0-.233-.026-.44-.103-.647v-.052a1.862 1.862 0 0 0-.39-.699c-.051-.052-.077-.104-.129-.155 0 0-.026 0-.052-.026-.052-.026-.078-.078-.104-.104a1.1 1.1 0 0 0-.363-.233h-.103a2.056 2.056 0 0 0-.986-.233c-.337 0-.648.104-.96.233-.026 0-.077 0-.103.026-.13.052-.234.156-.337.233-.052.052-.104.078-.13.13-.052.051-.078.103-.13.155a2.24 2.24 0 0 0-.363.699s0 .026-.026.052c-.052.207-.104.44-.104.673 0 .233.026.44.104.647v.052c.078.259.208.492.39.699.051.051.077.103.129.155 0 0 .026 0 .052.026.052.026.078.077.103.103.104.104.234.182.364.233h.103c.286.156.623.233.986.233.337 0 .648-.103.96-.233.025 0 .077 0 .103-.026.13-.077.234-.155.337-.233.052-.051.104-.077.13-.129.052-.052.078-.103.13-.155a2.24 2.24 0 0 0 .363-.699v-.052c.052-.207.103-.44.103-.673h.026Z"/>
    <path fill="url(#D)" d="M62.217 102.513c0-.233-.026-.44-.103-.647v-.052a1.862 1.862 0 0 0-.39-.699c-.051-.052-.077-.104-.129-.155 0 0-.026 0-.052-.026-.052-.026-.078-.078-.104-.104a1.1 1.1 0 0 0-.363-.233h-.103a2.056 2.056 0 0 0-.986-.233c-.337 0-.648.104-.96.233-.026 0-.077 0-.103.026-.13.052-.234.156-.337.233-.052.052-.104.078-.13.13-.052.051-.078.103-.13.155a2.24 2.24 0 0 0-.363.699s0 .026-.026.052c-.052.207-.104.44-.104.673 0 .233.026.44.104.647v.052c.078.259.208.492.39.699.051.051.077.103.129.155 0 0 .026 0 .052.026.052.026.078.077.103.103.104.104.234.182.364.233h.103c.286.156.623.233.986.233.337 0 .648-.103.96-.233.025 0 .077 0 .103-.026.13-.077.234-.155.337-.233.052-.051.104-.077.13-.129.052-.052.078-.103.13-.155a2.24 2.24 0 0 0 .363-.699v-.052c.052-.207.103-.44.103-.673h.026Z"/>
    <path fill="#000" d="M74.433 33.136c1.231 0 2.23-.997 2.23-2.227s-.998-2.226-2.23-2.226-2.23.997-2.23 2.226c0 1.23.998 2.227 2.23 2.227Z"/>
    <path fill="url(#E)" d="M74.433 33.136c1.231 0 2.23-.997 2.23-2.227s-.998-2.226-2.23-2.226-2.23.997-2.23 2.226c0 1.23.998 2.227 2.23 2.227Z"/>
    <path fill="#000" d="M74.433 42.998a2.228 2.228 0 0 0-2.23 2.227c0 .051.025.103.025.181.104 1.139 1.038 2.045 2.205 2.045.96 0 1.763-.621 2.074-1.476.104-.233.156-.491.156-.776a2.228 2.228 0 0 0-2.23-2.226v.026Z"/>
    <path fill="url(#F)" d="M74.433 42.998a2.228 2.228 0 0 0-2.23 2.227c0 .051.025.103.025.181.104 1.139 1.038 2.045 2.205 2.045.96 0 1.763-.621 2.074-1.476.104-.233.156-.491.156-.776a2.228 2.228 0 0 0-2.23-2.226v.026Z"/>
    <path fill="#000" d="M91.109 102.513c0-.337-.078-.621-.208-.906-.052-.104-.103-.155-.155-.233-.078-.155-.156-.311-.286-.414-.026-.026-.078-.052-.103-.078 0 0-.026-.052-.052-.078 0 0-.052-.025-.078-.051-.078-.052-.156-.078-.234-.13-.103-.052-.207-.129-.337-.181a1.891 1.891 0 0 0-.778-.155c-.285 0-.57.051-.83.155-.077.026-.155.078-.233.129-.13.078-.26.13-.363.207-.026 0-.026.052-.052.078a.196.196 0 0 0-.104.052c-.103.103-.181.259-.285.414-.052.078-.13.155-.181.259-.13.285-.208.57-.208.906 0 .337.078.621.207.906.052.104.104.155.182.259.078.129.156.285.285.414.026.026.078.026.104.052 0 0 .026.052.052.078.104.077.233.155.363.207.078.051.156.103.233.129.26.104.52.155.83.155.311 0 .57-.051.83-.155.078-.026.156-.078.234-.129.13-.078.259-.13.363-.207.026 0 .026-.052.052-.078a.196.196 0 0 0 .103-.052c.104-.103.182-.259.286-.414.052-.078.13-.155.181-.259.13-.285.208-.569.208-.906l-.026.026Z"/>
    <path fill="url(#G)" d="M91.109 102.513c0-.337-.078-.621-.208-.906-.052-.104-.103-.155-.155-.233-.078-.155-.156-.311-.286-.414-.026-.026-.078-.052-.103-.078 0 0-.026-.052-.052-.078 0 0-.052-.025-.078-.051-.078-.052-.156-.078-.234-.13-.103-.052-.207-.129-.337-.181a1.891 1.891 0 0 0-.778-.155c-.285 0-.57.051-.83.155-.077.026-.155.078-.233.129-.13.078-.26.13-.363.207-.026 0-.026.052-.052.078a.196.196 0 0 0-.104.052c-.103.103-.181.259-.285.414-.052.078-.13.155-.181.259-.13.285-.208.57-.208.906 0 .337.078.621.207.906.052.104.104.155.182.259.078.129.156.285.285.414.026.026.078.026.104.052 0 0 .026.052.052.078.104.077.233.155.363.207.078.051.156.103.233.129.26.104.52.155.83.155.311 0 .57-.051.83-.155.078-.026.156-.078.234-.129.13-.078.259-.13.363-.207.026 0 .026-.052.052-.078a.196.196 0 0 0 .103-.052c.104-.103.182-.259.286-.414.052-.078.13-.155.181-.259.13-.285.208-.569.208-.906l-.026.026Z"/>
    <path fill="#000" d="M88.878 47.451c1.232 0 2.23-.997 2.23-2.226 0-1.23-.998-2.227-2.23-2.227-1.231 0-2.23.997-2.23 2.227s.999 2.226 2.23 2.226Z"/>
    <path fill="url(#H)" d="M88.878 47.451c1.232 0 2.23-.997 2.23-2.226 0-1.23-.998-2.227-2.23-2.227-1.231 0-2.23.997-2.23 2.227s.999 2.226 2.23 2.226Z"/>
    <path fill="#000" d="M88.878 33.136c1.232 0 2.23-.997 2.23-2.227s-.998-2.226-2.23-2.226c-1.231 0-2.23.997-2.23 2.226 0 1.23.999 2.227 2.23 2.227Z"/>
    <path fill="url(#I)" d="M88.878 33.136c1.232 0 2.23-.997 2.23-2.227s-.998-2.226-2.23-2.226c-1.231 0-2.23.997-2.23 2.226 0 1.23.999 2.227 2.23 2.227Z"/>
    <path fill="#000" d="M103.324 42.998c-.934 0-1.712.57-2.049 1.373-.104.258-.181.569-.181.88 0 .31.051.595.181.854a2.243 2.243 0 0 0 2.049 1.372c1.245 0 2.23-1.01 2.23-2.226a2.245 2.245 0 0 0-2.23-2.227v-.026Z"/>
    <path fill="url(#J)" d="M103.324 42.998c-.934 0-1.712.57-2.049 1.373-.104.258-.181.569-.181.88 0 .31.051.595.181.854a2.243 2.243 0 0 0 2.049 1.372c1.245 0 2.23-1.01 2.23-2.226a2.245 2.245 0 0 0-2.23-2.227v-.026Z"/>
    <path fill="#000" d="M103.324 28.683c-.934 0-1.712.57-2.049 1.372-.104.259-.181.57-.181.88 0 .31.051.596.181.854a2.243 2.243 0 0 0 2.049 1.372c1.245 0 2.23-1.01 2.23-2.226a2.245 2.245 0 0 0-2.23-2.226v-.026Z"/>
    <path fill="url(#K)" d="M103.324 28.683c-.934 0-1.712.57-2.049 1.372-.104.259-.181.57-.181.88 0 .31.051.596.181.854a2.243 2.243 0 0 0 2.049 1.372c1.245 0 2.23-1.01 2.23-2.226a2.245 2.245 0 0 0-2.23-2.226v-.026Z"/>
    <path fill="#000" d="M117.77 47.451c1.231 0 2.23-.997 2.23-2.226 0-1.23-.999-2.227-2.23-2.227a2.229 2.229 0 0 0-2.231 2.227c0 1.23.999 2.226 2.231 2.226Z"/>
    <path fill="url(#L)" d="M117.77 47.451c1.231 0 2.23-.997 2.23-2.226 0-1.23-.999-2.227-2.23-2.227a2.229 2.229 0 0 0-2.231 2.227c0 1.23.999 2.226 2.231 2.226Z"/>
    <path fill="#000" d="M117.77 33.136c1.231 0 2.23-.997 2.23-2.227s-.999-2.226-2.23-2.226a2.229 2.229 0 0 0-2.231 2.226c0 1.23.999 2.227 2.231 2.227Z"/>
    <path fill="url(#M)" d="M117.77 33.136c1.231 0 2.23-.997 2.23-2.227s-.999-2.226-2.23-2.226a2.229 2.229 0 0 0-2.231 2.226c0 1.23.999 2.227 2.231 2.227Z"/>
    <path fill="#000" d="M76.663 102.513c0-.337-.078-.621-.207-.906-.052-.104-.104-.155-.182-.259-.078-.129-.156-.285-.285-.414a.197.197 0 0 0-.104-.052s-.026-.052-.052-.078c-.104-.103-.233-.155-.363-.207-.078-.051-.156-.103-.233-.129a2.146 2.146 0 0 0-.83-.155c-.311 0-.57.051-.83.155-.078.026-.156.078-.234.129-.13.078-.259.13-.363.207 0 0-.026.052-.052.078-.025.026-.077.026-.103.078-.104.103-.182.259-.286.414-.051.078-.13.155-.181.259-.13.285-.208.569-.208.906 0 .336.078.621.208.906.052.103.104.155.181.259.078.129.156.285.286.414a.197.197 0 0 0 .103.052s.026.051.052.077c.104.078.234.156.363.207.078.052.156.104.234.13.26.103.519.155.83.155.311 0 .57-.052.83-.155a1.05 1.05 0 0 0 .233-.13c.13-.077.26-.129.363-.207.026 0 .026-.051.052-.077a.197.197 0 0 0 .104-.052c.103-.104.181-.259.285-.414.052-.078.13-.156.182-.259.13-.285.207-.57.207-.906v-.026Z"/>
    <path fill="url(#N)" d="M76.663 102.513c0-.337-.078-.621-.207-.906-.052-.104-.104-.155-.182-.259-.078-.129-.156-.285-.285-.414a.197.197 0 0 0-.104-.052s-.026-.052-.052-.078c-.104-.103-.233-.155-.363-.207-.078-.051-.156-.103-.233-.129a2.146 2.146 0 0 0-.83-.155c-.311 0-.57.051-.83.155-.078.026-.156.078-.234.129-.13.078-.259.13-.363.207 0 0-.026.052-.052.078-.025.026-.077.026-.103.078-.104.103-.182.259-.286.414-.051.078-.13.155-.181.259-.13.285-.208.569-.208.906 0 .336.078.621.208.906.052.103.104.155.181.259.078.129.156.285.286.414a.197.197 0 0 0 .103.052s.026.051.052.077c.104.078.234.156.363.207.078.052.156.104.234.13.26.103.519.155.83.155.311 0 .57-.052.83-.155a1.05 1.05 0 0 0 .233-.13c.13-.077.26-.129.363-.207.026 0 .026-.051.052-.077a.197.197 0 0 0 .104-.052c.103-.104.181-.259.285-.414.052-.078.13-.156.182-.259.13-.285.207-.57.207-.906v-.026Z"/>
    <path fill="#000" d="M45.567 85.971a2.228 2.228 0 0 0-2.23 2.226 2.245 2.245 0 0 0 2.23 2.227c1.22 0 2.23-1.01 2.23-2.227a2.245 2.245 0 0 0-2.23-2.226Z"/>
    <path fill="url(#O)" d="M45.567 85.971a2.228 2.228 0 0 0-2.23 2.226 2.245 2.245 0 0 0 2.23 2.227c1.22 0 2.23-1.01 2.23-2.227a2.245 2.245 0 0 0-2.23-2.226Z"/>
    <path fill="#000" d="M59.987 85.971c-.648 0-1.219.285-1.634.75-.026 0-.052.053-.078.078-.078.078-.103.208-.155.311-.078.104-.13.207-.182.337 0 .051-.052.077-.052.103-.052.207-.103.44-.103.673 0 .233.026.44.103.673 0 .052.052.078.052.104.052.13.104.233.182.336l.155.311c0 .026.052.052.078.078.13.13.285.233.441.336.104.052.182.156.285.181.26.13.57.208.882.208h.026c.363 0 .674-.104.986-.26h.077c.13-.077.234-.155.363-.232l.104-.104.104-.103.104-.104c.078-.104.13-.233.181-.337.052-.103.13-.18.156-.284.078-.181.104-.363.104-.57 0-.077.051-.155.051-.233a2.228 2.228 0 0 0-2.23-2.226v-.026Z"/>
    <path fill="url(#P)" d="M59.987 85.971c-.648 0-1.219.285-1.634.75-.026 0-.052.053-.078.078-.078.078-.103.208-.155.311-.078.104-.13.207-.182.337 0 .051-.052.077-.052.103-.052.207-.103.44-.103.673 0 .233.026.44.103.673 0 .052.052.078.052.104.052.13.104.233.182.336l.155.311c0 .026.052.052.078.078.13.13.285.233.441.336.104.052.182.156.285.181.26.13.57.208.882.208h.026c.363 0 .674-.104.986-.26h.077c.13-.077.234-.155.363-.232l.104-.104.104-.103.104-.104c.078-.104.13-.233.181-.337.052-.103.13-.18.156-.284.078-.181.104-.363.104-.57 0-.077.051-.155.051-.233a2.228 2.228 0 0 0-2.23-2.226v-.026Z"/>
    <path fill="#000" d="M47.798 102.513c0-.337-.078-.621-.208-.906-.052-.104-.104-.155-.181-.259-.078-.129-.156-.285-.286-.414-.026-.026-.077-.052-.103-.078 0 0-.026-.052-.052-.078a1.69 1.69 0 0 0-.363-.207c-.078-.051-.156-.103-.234-.129a2.145 2.145 0 0 0-.83-.155c-.31 0-.57.051-.83.155-.077.026-.155.078-.233.129-.13.078-.26.13-.363.207-.026 0-.026.052-.052.078-.026.026-.078.026-.104.078-.103.103-.181.259-.285.414-.052.078-.13.155-.181.259-.13.285-.208.569-.208.906 0 .336.078.621.208.906.051.104.103.155.181.259.078.129.156.285.285.414.026.026.078.026.104.052 0 0 .026.052.052.077.104.078.233.156.363.208.078.051.156.103.233.129.26.104.52.155.83.155.312 0 .57-.051.83-.155.078-.026.156-.078.234-.129.13-.078.26-.13.363-.208 0 0 .026-.051.052-.077a.196.196 0 0 0 .103-.052c.104-.103.182-.259.286-.414.052-.078.13-.155.181-.259.13-.285.208-.57.208-.906Z"/>
    <path fill="url(#Q)" d="M47.798 102.513c0-.337-.078-.621-.208-.906-.052-.104-.104-.155-.181-.259-.078-.129-.156-.285-.286-.414-.026-.026-.077-.052-.103-.078 0 0-.026-.052-.052-.078a1.69 1.69 0 0 0-.363-.207c-.078-.051-.156-.103-.234-.129a2.145 2.145 0 0 0-.83-.155c-.31 0-.57.051-.83.155-.077.026-.155.078-.233.129-.13.078-.26.13-.363.207-.026 0-.026.052-.052.078-.026.026-.078.026-.104.078-.103.103-.181.259-.285.414-.052.078-.13.155-.181.259-.13.285-.208.569-.208.906 0 .336.078.621.208.906.051.104.103.155.181.259.078.129.156.285.285.414.026.026.078.026.104.052 0 0 .026.052.052.077.104.078.233.156.363.208.078.051.156.103.233.129.26.104.52.155.83.155.312 0 .57-.051.83-.155.078-.026.156-.078.234-.129.13-.078.26-.13.363-.208 0 0 .026-.051.052-.077a.196.196 0 0 0 .103-.052c.104-.103.182-.259.286-.414.052-.078.13-.155.181-.259.13-.285.208-.57.208-.906Z"/>
    <path fill="#000" d="M45.567 42.998c-.933 0-1.711.57-2.048 1.373a2.42 2.42 0 0 0-.182.88c0 .336.078.621.207.906.364.75 1.116 1.294 2.023 1.294a2.24 2.24 0 0 0 2.23-2.2v-.026a2.228 2.228 0 0 0-2.23-2.227Z"/>
    <path fill="url(#R)" d="M45.567 42.998c-.933 0-1.711.57-2.048 1.373a2.42 2.42 0 0 0-.182.88c0 .336.078.621.207.906.364.75 1.116 1.294 2.023 1.294a2.24 2.24 0 0 0 2.23-2.2v-.026a2.228 2.228 0 0 0-2.23-2.227Z"/>
    <path fill="#000" d="M45.567 33.136c1.232 0 2.23-.997 2.23-2.227s-.998-2.226-2.23-2.226c-1.231 0-2.23.997-2.23 2.226 0 1.23.998 2.227 2.23 2.227Z"/>
    <path fill="url(#S)" d="M45.567 33.136c1.232 0 2.23-.997 2.23-2.227s-.998-2.226-2.23-2.226c-1.231 0-2.23.997-2.23 2.226 0 1.23.998 2.227 2.23 2.227Z"/>
    <path fill="#000" d="M16.676 85.971a2.228 2.228 0 0 0-2.23 2.226 2.245 2.245 0 0 0 2.23 2.227c1.219 0 2.23-1.01 2.23-2.227a2.245 2.245 0 0 0-2.23-2.226Z"/>
    <path fill="url(#T)" d="M16.676 85.971a2.228 2.228 0 0 0-2.23 2.226 2.245 2.245 0 0 0 2.23 2.227c1.219 0 2.23-1.01 2.23-2.227a2.245 2.245 0 0 0-2.23-2.226Z"/>
    <path fill="#000" d="M16.676 76.108c1.232 0 2.23-.997 2.23-2.226 0-1.23-.998-2.227-2.23-2.227s-2.23.997-2.23 2.227.998 2.226 2.23 2.226Z"/>
    <path fill="url(#U)" d="M16.676 76.108c1.232 0 2.23-.997 2.23-2.226 0-1.23-.998-2.227-2.23-2.227s-2.23.997-2.23 2.227.998 2.226 2.23 2.226Z"/>
    <path fill="#000" d="M3.112 71.81a2.412 2.412 0 0 0-.856-.18 1.95 1.95 0 0 0-.674.13 2.004 2.004 0 0 0-.415.18C.467 72.355 0 73.053 0 73.882a2.228 2.228 0 0 0 2.23 2.226c.312 0 .597-.052.856-.181a2.24 2.24 0 0 0 1.375-2.045 2.24 2.24 0 0 0-1.375-2.045l.026-.026Z"/>
    <path fill="url(#V)" d="M3.112 71.81a2.412 2.412 0 0 0-.856-.18 1.95 1.95 0 0 0-.674.13 2.004 2.004 0 0 0-.415.18C.467 72.355 0 73.053 0 73.882a2.228 2.228 0 0 0 2.23 2.226c.312 0 .597-.052.856-.181a2.24 2.24 0 0 0 1.375-2.045 2.24 2.24 0 0 0-1.375-2.045l.026-.026Z"/>
    <path fill="#000" d="M16.676 61.767c1.232 0 2.23-.997 2.23-2.227s-.998-2.226-2.23-2.226-2.23.997-2.23 2.226c0 1.23.998 2.227 2.23 2.227Z"/>
    <path fill="url(#W)" d="M16.676 61.767c1.232 0 2.23-.997 2.23-2.227s-.998-2.226-2.23-2.226-2.23.997-2.23 2.226c0 1.23.998 2.227 2.23 2.227Z"/>
    <path fill="#000" d="M3.112 57.495a2.41 2.41 0 0 0-.856-.181c-.285 0-.596.052-.856.181-.83.337-1.4 1.113-1.4 2.045 0 .725.363 1.346.908 1.76.181.13.363.26.596.337.234.104.467.155.726.155.312 0 .597-.051.856-.18a2.24 2.24 0 0 0 1.375-2.046 2.24 2.24 0 0 0-1.375-2.045l.026-.026Z"/>
    <path fill="url(#X)" d="M3.112 57.495a2.41 2.41 0 0 0-.856-.181c-.285 0-.596.052-.856.181-.83.337-1.4 1.113-1.4 2.045 0 .725.363 1.346.908 1.76.181.13.363.26.596.337.234.104.467.155.726.155.312 0 .597-.051.856-.18a2.24 2.24 0 0 0 1.375-2.046 2.24 2.24 0 0 0-1.375-2.045l.026-.026Z"/>
    <path fill="#000" d="M31.122 47.451c1.231 0 2.23-.997 2.23-2.226 0-1.23-.998-2.227-2.23-2.227s-2.23.997-2.23 2.227.998 2.226 2.23 2.226Z"/>
    <path fill="url(#Y)" d="M31.122 47.451c1.231 0 2.23-.997 2.23-2.226 0-1.23-.998-2.227-2.23-2.227s-2.23.997-2.23 2.227.998 2.226 2.23 2.226Z"/>
    <path fill="#000" d="M31.122 33.136c1.231 0 2.23-.997 2.23-2.227s-.998-2.226-2.23-2.226-2.23.997-2.23 2.226c0 1.23.998 2.227 2.23 2.227Z"/>
    <path fill="url(#Z)" d="M31.122 33.136c1.231 0 2.23-.997 2.23-2.227s-.998-2.226-2.23-2.226-2.23.997-2.23 2.226c0 1.23.998 2.227 2.23 2.227Z"/>
    <path fill="#000" d="M33.352 102.513c0-.337-.078-.621-.207-.906-.052-.104-.104-.155-.182-.259-.078-.129-.156-.285-.285-.414-.026-.026-.078-.052-.104-.078 0 0-.026-.052-.052-.078a1.694 1.694 0 0 0-.363-.207c-.078-.051-.155-.103-.233-.129a2.146 2.146 0 0 0-.83-.155c-.311 0-.57.051-.83.155-.078.026-.156.078-.234.129-.13.078-.259.13-.363.207-.026 0-.026.052-.052.078-.026.026-.077.026-.103.078-.104.103-.182.259-.286.414-.051.078-.13.155-.181.259-.13.285-.208.569-.208.906 0 .311.078.621.208.906l.155.233c.078.155.156.311.286.414a.196.196 0 0 0 .104.052s.026.052.051.078c0 0 .052.025.078.051.078.052.156.078.234.13.103.052.207.129.337.181.233.104.492.155.778.155.285 0 .57-.051.83-.155.078-.026.155-.078.233-.129.13-.078.26-.13.363-.208.026 0 .026-.051.052-.077.026-.026.078-.026.104-.052.104-.103.181-.259.285-.414.052-.078.13-.155.182-.259.13-.285.207-.57.207-.906h.026Z"/>
    <path fill="url(#aa)" d="M33.352 102.513c0-.337-.078-.621-.207-.906-.052-.104-.104-.155-.182-.259-.078-.129-.156-.285-.285-.414-.026-.026-.078-.052-.104-.078 0 0-.026-.052-.052-.078a1.694 1.694 0 0 0-.363-.207c-.078-.051-.155-.103-.233-.129a2.146 2.146 0 0 0-.83-.155c-.311 0-.57.051-.83.155-.078.026-.156.078-.234.129-.13.078-.259.13-.363.207-.026 0-.026.052-.052.078-.026.026-.077.026-.103.078-.104.103-.182.259-.286.414-.051.078-.13.155-.181.259-.13.285-.208.569-.208.906 0 .311.078.621.208.906l.155.233c.078.155.156.311.286.414a.196.196 0 0 0 .104.052s.026.052.051.078c0 0 .052.025.078.051.078.052.156.078.234.13.103.052.207.129.337.181.233.104.492.155.778.155.285 0 .57-.051.83-.155.078-.026.155-.078.233-.129.13-.078.26-.13.363-.208.026 0 .026-.051.052-.077.026-.026.078-.026.104-.052.104-.103.181-.259.285-.414.052-.078.13-.155.182-.259.13-.285.207-.57.207-.906h.026Z"/>
    <path fill="#000" d="M31.122 61.767c1.231 0 2.23-.997 2.23-2.227s-.998-2.226-2.23-2.226-2.23.997-2.23 2.226c0 1.23.998 2.227 2.23 2.227Z"/>
    <path fill="url(#ab)" d="M31.122 61.767c1.231 0 2.23-.997 2.23-2.227s-.998-2.226-2.23-2.226-2.23.997-2.23 2.226c0 1.23.998 2.227 2.23 2.227Z"/>
    <path fill="#000" d="M31.122 85.971a2.228 2.228 0 0 0-2.23 2.226 2.245 2.245 0 0 0 2.23 2.227c1.219 0 2.23-1.01 2.23-2.227a2.245 2.245 0 0 0-2.23-2.226Z"/>
    <path fill="url(#ac)" d="M31.122 85.971a2.228 2.228 0 0 0-2.23 2.226 2.245 2.245 0 0 0 2.23 2.227c1.219 0 2.23-1.01 2.23-2.227a2.245 2.245 0 0 0-2.23-2.226Z"/>
    <path fill="#000" d="M31.122 76.108c1.231 0 2.23-.997 2.23-2.226 0-1.23-.998-2.227-2.23-2.227s-2.23.997-2.23 2.227.998 2.226 2.23 2.226Z"/>
    <path fill="url(#ad)" d="M31.122 76.108c1.231 0 2.23-.997 2.23-2.226 0-1.23-.998-2.227-2.23-2.227s-2.23.997-2.23 2.227.998 2.226 2.23 2.226Z"/>
    <path fill="#000" d="M16.676 47.451c1.232 0 2.23-.997 2.23-2.226 0-1.23-.998-2.227-2.23-2.227s-2.23.997-2.23 2.227.998 2.226 2.23 2.226Z"/>
    <path fill="url(#ae)" d="M16.676 47.451c1.232 0 2.23-.997 2.23-2.226 0-1.23-.998-2.227-2.23-2.227s-2.23.997-2.23 2.227.998 2.226 2.23 2.226Z"/>
    <path fill="#000" d="M58.275 32.333a2.249 2.249 0 0 0 1.712.803c.39 0 .752-.104 1.063-.26.13-.077.234-.155.363-.232.13-.078.208-.182.312-.311.31-.388.518-.88.518-1.424 0-.543-.181-1.035-.518-1.424-.104-.103-.182-.207-.312-.31a1.428 1.428 0 0 0-.363-.233c-.31-.181-.674-.26-1.063-.26-.7 0-1.323.312-1.712.803a2.34 2.34 0 0 0-.415.751c-.051.207-.103.44-.103.673 0 .233.026.466.103.673.078.285.234.544.415.751Z"/>
    <path fill="url(#af)" d="M58.275 32.333a2.249 2.249 0 0 0 1.712.803c.39 0 .752-.104 1.063-.26.13-.077.234-.155.363-.232.13-.078.208-.182.312-.311.31-.388.518-.88.518-1.424 0-.543-.181-1.035-.518-1.424-.104-.103-.182-.207-.312-.31a1.428 1.428 0 0 0-.363-.233c-.31-.181-.674-.26-1.063-.26-.7 0-1.323.312-1.712.803a2.34 2.34 0 0 0-.415.751c-.051.207-.103.44-.103.673 0 .233.026.466.103.673.078.285.234.544.415.751Z"/>
    <path fill="#000" d="M58.275 46.649a2.249 2.249 0 0 0 1.712.802c.389 0 .752-.104 1.063-.259.13-.078.234-.155.363-.233.13-.078.208-.181.312-.31.31-.389.518-.88.518-1.424 0-.544-.181-1.036-.518-1.424-.104-.104-.182-.207-.312-.31a1.427 1.427 0 0 0-.363-.234c-.31-.18-.674-.258-1.063-.258-.26 0-.519.077-.752.18a2.958 2.958 0 0 0-.493.26c-.181.103-.363.207-.493.388a2.34 2.34 0 0 0-.415.75c-.051.208-.103.44-.103.674 0 .233.026.466.103.673.078.285.234.543.415.75l.026-.025Z"/>
    <path fill="url(#ag)" d="M58.275 46.649a2.249 2.249 0 0 0 1.712.802c.389 0 .752-.104 1.063-.259.13-.078.234-.155.363-.233.13-.078.208-.181.312-.31.31-.389.518-.88.518-1.424 0-.544-.181-1.036-.518-1.424-.104-.104-.182-.207-.312-.31a1.427 1.427 0 0 0-.363-.234c-.31-.18-.674-.258-1.063-.258-.26 0-.519.077-.752.18a2.958 2.958 0 0 0-.493.26c-.181.103-.363.207-.493.388a2.34 2.34 0 0 0-.415.75c-.051.208-.103.44-.103.674 0 .233.026.466.103.673.078.285.234.543.415.75l.026-.025Z"/>
    <path fill="#000" d="M68.65.544s-.234-.182-.364-.233c-.311-.182-.674-.26-1.063-.26-.7 0-1.323.311-1.712.803a2.34 2.34 0 0 0-.415.751c-.078.207-.104.44-.104.673 0 .233.026.466.104.673.078.285.234.544.415.75a2.249 2.249 0 0 0 1.712.803c.389 0 .752-.103 1.063-.259.13-.077.234-.155.363-.232.104-.078.208-.182.311-.311.312-.388.52-.88.52-1.424 0-.544-.182-1.035-.52-1.424-.103-.103-.181-.207-.31-.31Z"/>
    <path fill="url(#ah)" d="M68.65.544s-.234-.182-.364-.233c-.311-.182-.674-.26-1.063-.26-.7 0-1.323.311-1.712.803a2.34 2.34 0 0 0-.415.751c-.078.207-.104.44-.104.673 0 .233.026.466.104.673.078.285.234.544.415.75a2.249 2.249 0 0 0 1.712.803c.389 0 .752-.103 1.063-.259.13-.077.234-.155.363-.232.104-.078.208-.182.311-.311.312-.388.52-.88.52-1.424 0-.544-.182-1.035-.52-1.424-.103-.103-.181-.207-.31-.31Z"/>
    <path fill="#000" d="M54.618 1.035s-.025-.077-.051-.103a.196.196 0 0 0-.052-.104c-.104-.103-.182-.207-.311-.31a1.088 1.088 0 0 0-.364-.233c-.077-.052-.181-.026-.259-.078-.052 0-.104-.052-.156-.078C53.218.104 53.011 0 52.777 0c-.7 0-1.322.31-1.712.802a2.34 2.34 0 0 0-.414.751c-.078.207-.104.44-.104.673 0 .233.026.466.104.673.077.285.233.544.414.751a2.249 2.249 0 0 0 1.712.803c.234 0 .441-.104.648-.156 0 0 .104 0 .156-.026.078-.026.182 0 .26-.077.13-.078.233-.156.363-.233.103-.078.207-.181.31-.31 0-.027.027-.079.053-.104 0-.026.026-.078.051-.104.104-.155.208-.31.26-.492.078-.233.13-.466.13-.725 0-.259-.052-.492-.13-.725-.052-.18-.156-.336-.26-.491v.025Z"/>
    <path fill="url(#ai)" d="M54.618 1.035s-.025-.077-.051-.103a.196.196 0 0 0-.052-.104c-.104-.103-.182-.207-.311-.31a1.088 1.088 0 0 0-.364-.233c-.077-.052-.181-.026-.259-.078-.052 0-.104-.052-.156-.078C53.218.104 53.011 0 52.777 0c-.7 0-1.322.31-1.712.802a2.34 2.34 0 0 0-.414.751c-.078.207-.104.44-.104.673 0 .233.026.466.104.673.077.285.233.544.414.751a2.249 2.249 0 0 0 1.712.803c.234 0 .441-.104.648-.156 0 0 .104 0 .156-.026.078-.026.182 0 .26-.077.13-.078.233-.156.363-.233.103-.078.207-.181.31-.31 0-.027.027-.079.053-.104 0-.026.026-.078.051-.104.104-.155.208-.31.26-.492.078-.233.13-.466.13-.725 0-.259-.052-.492-.13-.725-.052-.18-.156-.336-.26-.491v.025Z"/>
    <path fill="#000" d="M68.65 14.86s-.234-.182-.364-.234c-.311-.181-.674-.259-1.063-.259-.7 0-1.323.311-1.712.803a2.34 2.34 0 0 0-.415.75c-.078.208-.104.44-.104.674 0 .233.026.466.104.673.078.285.234.543.415.75a2.249 2.249 0 0 0 1.712.803c.389 0 .752-.104 1.063-.259.13-.078.234-.155.363-.233.104-.104.208-.181.311-.31.312-.389.52-.88.52-1.424 0-.544-.182-1.036-.52-1.424-.103-.104-.181-.207-.31-.31Z"/>
    <path fill="url(#aj)" d="M68.65 14.86s-.234-.182-.364-.234c-.311-.181-.674-.259-1.063-.259-.7 0-1.323.311-1.712.803a2.34 2.34 0 0 0-.415.75c-.078.208-.104.44-.104.674 0 .233.026.466.104.673.078.285.234.543.415.75a2.249 2.249 0 0 0 1.712.803c.389 0 .752-.104 1.063-.259.13-.078.234-.155.363-.233.104-.104.208-.181.311-.31.312-.389.52-.88.52-1.424 0-.544-.182-1.036-.52-1.424-.103-.104-.181-.207-.31-.31Z"/>
    <path fill="#000" d="M54.618 15.351s-.025-.078-.051-.104a.196.196 0 0 0-.052-.103c-.104-.104-.182-.207-.311-.31a1.09 1.09 0 0 0-.364-.234c-.077-.051-.181-.026-.259-.077-.052 0-.104-.052-.156-.078-.207-.026-.414-.13-.648-.13-.7 0-1.322.311-1.712.803-.13.155-.207.337-.285.518h-.026v.103c0 .052-.052.078-.078.13-.051.207-.103.414-.103.647 0 .233.026.44.103.647 0 .026.052.052.052.104.052.13.13.259.208.388.052.078.078.207.155.285 0 0 .052.026.078.051.13.156.311.26.467.363.078.052.156.13.26.155.285.13.596.207.907.207.363 0 .674-.103.986-.259h.077c.13-.077.234-.155.364-.233.051-.025.077-.077.103-.103l.078-.078c.026-.052.078-.077.104-.103.103-.104.155-.26.207-.363a1.05 1.05 0 0 0 .13-.233c.104-.259.156-.517.156-.828 0-.259-.052-.492-.13-.725-.052-.181-.156-.336-.26-.492v.052Z"/>
    <path fill="url(#ak)" d="M54.618 15.351s-.025-.078-.051-.104a.196.196 0 0 0-.052-.103c-.104-.104-.182-.207-.311-.31a1.09 1.09 0 0 0-.364-.234c-.077-.051-.181-.026-.259-.077-.052 0-.104-.052-.156-.078-.207-.026-.414-.13-.648-.13-.7 0-1.322.311-1.712.803-.13.155-.207.337-.285.518h-.026v.103c0 .052-.052.078-.078.13-.051.207-.103.414-.103.647 0 .233.026.44.103.647 0 .026.052.052.052.104.052.13.13.259.208.388.052.078.078.207.155.285 0 0 .052.026.078.051.13.156.311.26.467.363.078.052.156.13.26.155.285.13.596.207.907.207.363 0 .674-.103.986-.259h.077c.13-.077.234-.155.364-.233.051-.025.077-.077.103-.103l.078-.078c.026-.052.078-.077.104-.103.103-.104.155-.26.207-.363a1.05 1.05 0 0 0 .13-.233c.104-.259.156-.517.156-.828 0-.259-.052-.492-.13-.725-.052-.181-.156-.336-.26-.492v.052Z"/>
  </g>
  <defs>
    <linearGradient id="a" x1="0" x2="120" y1="102.526" y2="102.526" gradientUnits="userSpaceOnUse">
      <stop stop-color="#244645"/>
      <stop offset="1" stop-color="#9FCAA0"/>
    </linearGradient>
    <linearGradient id="b" x1="0" x2="120" y1="102.526" y2="102.526" gradientUnits="userSpaceOnUse">
      <stop stop-color="#244645"/>
      <stop offset="1" stop-color="#9FCAA0"/>
    </linearGradient>
    <linearGradient id="c" x1="0" x2="120" y1="102.526" y2="102.526" gradientUnits="userSpaceOnUse">
      <stop stop-color="#244645"/>
      <stop offset="1" stop-color="#9FCAA0"/>
    </linearGradient>
    <linearGradient id="d" x1="0" x2="120" y1="102.526" y2="102.526" gradientUnits="userSpaceOnUse">
      <stop stop-color="#244645"/>
      <stop offset="1" stop-color="#9FCAA0"/>
    </linearGradient>
    <linearGradient id="e" x1="0" x2="120" y1="102.526" y2="102.526" gradientUnits="userSpaceOnUse">
      <stop stop-color="#244645"/>
      <stop offset="1" stop-color="#9FCAA0"/>
    </linearGradient>
    <linearGradient id="f" x1="0" x2="120" y1="102.526" y2="102.526" gradientUnits="userSpaceOnUse">
      <stop stop-color="#244645"/>
      <stop offset="1" stop-color="#9FCAA0"/>
    </linearGradient>
    <linearGradient id="g" x1="0" x2="120" y1="102.526" y2="102.526" gradientUnits="userSpaceOnUse">
      <stop stop-color="#244645"/>
      <stop offset="1" stop-color="#9FCAA0"/>
    </linearGradient>
    <linearGradient id="h" x1="0" x2="120" y1="102.526" y2="102.526" gradientUnits="userSpaceOnUse">
      <stop stop-color="#244645"/>
      <stop offset="1" stop-color="#9FCAA0"/>
    </linearGradient>
    <linearGradient id="i" x1="0" x2="120" y1="102.526" y2="102.526" gradientUnits="userSpaceOnUse">
      <stop stop-color="#244645"/>
      <stop offset="1" stop-color="#9FCAA0"/>
    </linearGradient>
    <linearGradient id="j" x1="0" x2="120" y1="102.526" y2="102.526" gradientUnits="userSpaceOnUse">
      <stop stop-color="#244645"/>
      <stop offset="1" stop-color="#9FCAA0"/>
    </linearGradient>
    <linearGradient id="k" x1="0" x2="120" y1="102.526" y2="102.526" gradientUnits="userSpaceOnUse">
      <stop stop-color="#244645"/>
      <stop offset="1" stop-color="#9FCAA0"/>
    </linearGradient>
    <linearGradient id="l" x1="0" x2="120" y1="102.526" y2="102.526" gradientUnits="userSpaceOnUse">
      <stop stop-color="#244645"/>
      <stop offset="1" stop-color="#9FCAA0"/>
    </linearGradient>
    <linearGradient id="m" x1="0" x2="120" y1="102.526" y2="102.526" gradientUnits="userSpaceOnUse">
      <stop stop-color="#244645"/>
      <stop offset="1" stop-color="#9FCAA0"/>
    </linearGradient>
    <linearGradient id="n" x1="0" x2="120" y1="102.526" y2="102.526" gradientUnits="userSpaceOnUse">
      <stop stop-color="#244645"/>
      <stop offset="1" stop-color="#9FCAA0"/>
    </linearGradient>
    <linearGradient id="o" x1="0" x2="120" y1="102.526" y2="102.526" gradientUnits="userSpaceOnUse">
      <stop stop-color="#244645"/>
      <stop offset="1" stop-color="#9FCAA0"/>
    </linearGradient>
    <linearGradient id="p" x1="0" x2="120" y1="102.526" y2="102.526" gradientUnits="userSpaceOnUse">
      <stop stop-color="#244645"/>
      <stop offset="1" stop-color="#9FCAA0"/>
    </linearGradient>
    <linearGradient id="q" x1="0" x2="120" y1="102.526" y2="102.526" gradientUnits="userSpaceOnUse">
      <stop stop-color="#244645"/>
      <stop offset="1" stop-color="#9FCAA0"/>
    </linearGradient>
    <linearGradient id="r" x1="0" x2="120" y1="102.526" y2="102.526" gradientUnits="userSpaceOnUse">
      <stop stop-color="#244645"/>
      <stop offset="1" stop-color="#9FCAA0"/>
    </linearGradient>
    <linearGradient id="s" x1="0" x2="120" y1="102.526" y2="102.526" gradientUnits="userSpaceOnUse">
      <stop stop-color="#244645"/>
      <stop offset="1" stop-color="#9FCAA0"/>
    </linearGradient>
    <linearGradient id="t" x1="0" x2="120" y1="102.526" y2="102.526" gradientUnits="userSpaceOnUse">
      <stop stop-color="#244645"/>
      <stop offset="1" stop-color="#9FCAA0"/>
    </linearGradient>
    <linearGradient id="u" x1="0" x2="120" y1="102.526" y2="102.526" gradientUnits="userSpaceOnUse">
      <stop stop-color="#244645"/>
      <stop offset="1" stop-color="#9FCAA0"/>
    </linearGradient>
    <linearGradient id="v" x1="0" x2="120" y1="102.526" y2="102.526" gradientUnits="userSpaceOnUse">
      <stop stop-color="#244645"/>
      <stop offset="1" stop-color="#9FCAA0"/>
    </linearGradient>
    <linearGradient id="w" x1="0" x2="120" y1="102.526" y2="102.526" gradientUnits="userSpaceOnUse">
      <stop stop-color="#244645"/>
      <stop offset="1" stop-color="#9FCAA0"/>
    </linearGradient>
    <linearGradient id="x" x1="0" x2="120" y1="102.526" y2="102.526" gradientUnits="userSpaceOnUse">
      <stop stop-color="#244645"/>
      <stop offset="1" stop-color="#9FCAA0"/>
    </linearGradient>
    <linearGradient id="y" x1="0" x2="120" y1="102.526" y2="102.526" gradientUnits="userSpaceOnUse">
      <stop stop-color="#244645"/>
      <stop offset="1" stop-color="#9FCAA0"/>
    </linearGradient>
    <linearGradient id="z" x1="0" x2="120" y1="102.526" y2="102.526" gradientUnits="userSpaceOnUse">
      <stop stop-color="#244645"/>
      <stop offset="1" stop-color="#9FCAA0"/>
    </linearGradient>
    <linearGradient id="A" x1="0" x2="120" y1="102.526" y2="102.526" gradientUnits="userSpaceOnUse">
      <stop stop-color="#244645"/>
      <stop offset="1" stop-color="#9FCAA0"/>
    </linearGradient>
    <linearGradient id="B" x1="0" x2="120" y1="102.526" y2="102.526" gradientUnits="userSpaceOnUse">
      <stop stop-color="#244645"/>
      <stop offset="1" stop-color="#9FCAA0"/>
    </linearGradient>
    <linearGradient id="C" x1="0" x2="120" y1="102.526" y2="102.526" gradientUnits="userSpaceOnUse">
      <stop stop-color="#244645"/>
      <stop offset="1" stop-color="#9FCAA0"/>
    </linearGradient>
    <linearGradient id="D" x1="0" x2="120" y1="102.526" y2="102.526" gradientUnits="userSpaceOnUse">
      <stop stop-color="#244645"/>
      <stop offset="1" stop-color="#9FCAA0"/>
    </linearGradient>
    <linearGradient id="E" x1="0" x2="120" y1="102.526" y2="102.526" gradientUnits="userSpaceOnUse">
      <stop stop-color="#244645"/>
      <stop offset="1" stop-color="#9FCAA0"/>
    </linearGradient>
    <linearGradient id="F" x1="0" x2="120" y1="102.526" y2="102.526" gradientUnits="userSpaceOnUse">
      <stop stop-color="#244645"/>
      <stop offset="1" stop-color="#9FCAA0"/>
    </linearGradient>
    <linearGradient id="G" x1="0" x2="120" y1="102.526" y2="102.526" gradientUnits="userSpaceOnUse">
      <stop stop-color="#244645"/>
      <stop offset="1" stop-color="#9FCAA0"/>
    </linearGradient>
    <linearGradient id="H" x1="0" x2="120" y1="102.526" y2="102.526" gradientUnits="userSpaceOnUse">
      <stop stop-color="#244645"/>
      <stop offset="1" stop-color="#9FCAA0"/>
    </linearGradient>
    <linearGradient id="I" x1="0" x2="120" y1="102.526" y2="102.526" gradientUnits="userSpaceOnUse">
      <stop stop-color="#244645"/>
      <stop offset="1" stop-color="#9FCAA0"/>
    </linearGradient>
    <linearGradient id="J" x1="0" x2="120" y1="102.526" y2="102.526" gradientUnits="userSpaceOnUse">
      <stop stop-color="#244645"/>
      <stop offset="1" stop-color="#9FCAA0"/>
    </linearGradient>
    <linearGradient id="K" x1="0" x2="120" y1="102.526" y2="102.526" gradientUnits="userSpaceOnUse">
      <stop stop-color="#244645"/>
      <stop offset="1" stop-color="#9FCAA0"/>
    </linearGradient>
    <linearGradient id="L" x1="0" x2="120" y1="102.526" y2="102.526" gradientUnits="userSpaceOnUse">
      <stop stop-color="#244645"/>
      <stop offset="1" stop-color="#9FCAA0"/>
    </linearGradient>
    <linearGradient id="M" x1="0" x2="120" y1="102.526" y2="102.526" gradientUnits="userSpaceOnUse">
      <stop stop-color="#244645"/>
      <stop offset="1" stop-color="#9FCAA0"/>
    </linearGradient>
    <linearGradient id="N" x1="0" x2="120" y1="102.526" y2="102.526" gradientUnits="userSpaceOnUse">
      <stop stop-color="#244645"/>
      <stop offset="1" stop-color="#9FCAA0"/>
    </linearGradient>
    <linearGradient id="O" x1="0" x2="120" y1="102.526" y2="102.526" gradientUnits="userSpaceOnUse">
      <stop stop-color="#244645"/>
      <stop offset="1" stop-color="#9FCAA0"/>
    </linearGradient>
    <linearGradient id="P" x1="0" x2="120" y1="102.526" y2="102.526" gradientUnits="userSpaceOnUse">
      <stop stop-color="#244645"/>
      <stop offset="1" stop-color="#9FCAA0"/>
    </linearGradient>
    <linearGradient id="Q" x1="0" x2="120" y1="102.526" y2="102.526" gradientUnits="userSpaceOnUse">
      <stop stop-color="#244645"/>
      <stop offset="1" stop-color="#9FCAA0"/>
    </linearGradient>
    <linearGradient id="R" x1="0" x2="120" y1="102.526" y2="102.526" gradientUnits="userSpaceOnUse">
      <stop stop-color="#244645"/>
      <stop offset="1" stop-color="#9FCAA0"/>
    </linearGradient>
    <linearGradient id="S" x1="0" x2="120" y1="102.526" y2="102.526" gradientUnits="userSpaceOnUse">
      <stop stop-color="#244645"/>
      <stop offset="1" stop-color="#9FCAA0"/>
    </linearGradient>
    <linearGradient id="T" x1="0" x2="120" y1="102.526" y2="102.526" gradientUnits="userSpaceOnUse">
      <stop stop-color="#244645"/>
      <stop offset="1" stop-color="#9FCAA0"/>
    </linearGradient>
    <linearGradient id="U" x1="0" x2="120" y1="102.526" y2="102.526" gradientUnits="userSpaceOnUse">
      <stop stop-color="#244645"/>
      <stop offset="1" stop-color="#9FCAA0"/>
    </linearGradient>
    <linearGradient id="V" x1="0" x2="120" y1="102.526" y2="102.526" gradientUnits="userSpaceOnUse">
      <stop stop-color="#244645"/>
      <stop offset="1" stop-color="#9FCAA0"/>
    </linearGradient>
    <linearGradient id="W" x1="0" x2="120" y1="102.526" y2="102.526" gradientUnits="userSpaceOnUse">
      <stop stop-color="#244645"/>
      <stop offset="1" stop-color="#9FCAA0"/>
    </linearGradient>
    <linearGradient id="X" x1="0" x2="120" y1="102.526" y2="102.526" gradientUnits="userSpaceOnUse">
      <stop stop-color="#244645"/>
      <stop offset="1" stop-color="#9FCAA0"/>
    </linearGradient>
    <linearGradient id="Y" x1="0" x2="120" y1="102.526" y2="102.526" gradientUnits="userSpaceOnUse">
      <stop stop-color="#244645"/>
      <stop offset="1" stop-color="#9FCAA0"/>
    </linearGradient>
    <linearGradient id="Z" x1="0" x2="120" y1="102.526" y2="102.526" gradientUnits="userSpaceOnUse">
      <stop stop-color="#244645"/>
      <stop offset="1" stop-color="#9FCAA0"/>
    </linearGradient>
    <linearGradient id="aa" x1="0" x2="120" y1="102.526" y2="102.526" gradientUnits="userSpaceOnUse">
      <stop stop-color="#244645"/>
      <stop offset="1" stop-color="#9FCAA0"/>
    </linearGradient>
    <linearGradient id="ab" x1="0" x2="120" y1="102.526" y2="102.526" gradientUnits="userSpaceOnUse">
      <stop stop-color="#244645"/>
      <stop offset="1" stop-color="#9FCAA0"/>
    </linearGradient>
    <linearGradient id="ac" x1="0" x2="120" y1="102.526" y2="102.526" gradientUnits="userSpaceOnUse">
      <stop stop-color="#244645"/>
      <stop offset="1" stop-color="#9FCAA0"/>
    </linearGradient>
    <linearGradient id="ad" x1="0" x2="120" y1="102.526" y2="102.526" gradientUnits="userSpaceOnUse">
      <stop stop-color="#244645"/>
      <stop offset="1" stop-color="#9FCAA0"/>
    </linearGradient>
    <linearGradient id="ae" x1="0" x2="120" y1="102.526" y2="102.526" gradientUnits="userSpaceOnUse">
      <stop stop-color="#244645"/>
      <stop offset="1" stop-color="#9FCAA0"/>
    </linearGradient>
    <linearGradient id="af" x1="0" x2="120" y1="102.526" y2="102.526" gradientUnits="userSpaceOnUse">
      <stop stop-color="#244645"/>
      <stop offset="1" stop-color="#9FCAA0"/>
    </linearGradient>
    <linearGradient id="ag" x1="0" x2="120" y1="102.526" y2="102.526" gradientUnits="userSpaceOnUse">
      <stop stop-color="#244645"/>
      <stop offset="1" stop-color="#9FCAA0"/>
    </linearGradient>
    <linearGradient id="ah" x1="0" x2="120" y1="102.526" y2="102.526" gradientUnits="userSpaceOnUse">
      <stop stop-color="#244645"/>
      <stop offset="1" stop-color="#9FCAA0"/>
    </linearGradient>
    <linearGradient id="ai" x1="0" x2="120" y1="102.526" y2="102.526" gradientUnits="userSpaceOnUse">
      <stop stop-color="#244645"/>
      <stop offset="1" stop-color="#9FCAA0"/>
    </linearGradient>
    <linearGradient id="aj" x1="0" x2="120" y1="102.526" y2="102.526" gradientUnits="userSpaceOnUse">
      <stop stop-color="#244645"/>
      <stop offset="1" stop-color="#9FCAA0"/>
    </linearGradient>
    <linearGradient id="ak" x1="0" x2="120" y1="102.526" y2="102.526" gradientUnits="userSpaceOnUse">
      <stop stop-color="#244645"/>
      <stop offset="1" stop-color="#9FCAA0"/>
    </linearGradient>
  </defs>
</svg>