<svg width="481" height="77" viewBox="0 0 481 77" fill="none" xmlns="http://www.w3.org/2000/svg">
<g clip-path="url(#clip0_1369_94)">
<path fill-rule="evenodd" clip-rule="evenodd" d="M371.115 62.6899H370.129V60.1077C370.326 59.7413 370.541 59.3923 370.756 59.0608L372.853 62.6899H372.01V63.3878H376.275V62.6899H375.397L372.225 57.1939C372.548 56.845 372.906 56.5309 373.229 56.2866C373.48 56.8101 374.089 57.2288 374.698 57.2288C375.415 57.2288 375.988 56.7577 375.988 56.1819C375.988 55.5189 375.433 55.0827 374.609 55.0827C372.96 55.0827 371.186 57.2986 370.129 59.1131V51H370.021L366.724 52.0469V52.5005C367.567 52.6575 367.8 52.9716 367.8 53.5997V62.6899H366.814V63.3878H371.115V62.6899ZM361.454 58.5897C361.454 57.1765 362.099 55.6934 363.228 55.6934C364.106 55.6934 364.482 56.6356 364.482 57.4207C364.482 57.9616 364.196 58.1186 363.569 58.2408L361.454 58.5897ZM363.192 63.5623C364.805 63.5623 366.077 62.6725 366.722 61.2592L366.364 60.9975C365.773 61.7826 365.038 62.0967 364.214 62.0967C362.852 62.0967 361.705 61.1022 361.49 59.2527L366.651 58.4501C366.651 56.496 365.468 55.0827 363.318 55.0827C361.311 55.0827 359.429 56.9147 359.429 59.5493C359.429 61.835 360.97 63.5623 363.192 63.5623ZM355.56 55.6934C354.431 55.6934 353.786 57.1765 353.786 58.5897L355.901 58.2408C356.528 58.1186 356.815 57.9616 356.815 57.4207C356.815 56.6356 356.438 55.6934 355.56 55.6934ZM359.054 61.2592C358.409 62.6725 357.137 63.5623 355.524 63.5623C353.302 63.5623 351.761 61.835 351.761 59.5493C351.761 56.9147 353.643 55.0827 355.65 55.0827C357.8 55.0827 358.983 56.496 358.983 58.4501L353.822 59.2527C354.037 61.1022 355.184 62.0967 356.546 62.0967C357.37 62.0967 358.105 61.7826 358.696 60.9975L359.054 61.2592ZM346.295 53.2333H344.754L342.675 60.2298L340.561 52.6226H342.012V51.8724H336.905V52.6226H338.016L341.224 63.4576H342.514L344.807 55.9551L347.28 63.4576H348.57L351.581 53.1984C351.724 52.7448 351.957 52.6226 352.889 52.6226V51.8724H349.161V52.6226H350.004C350.702 52.6226 350.738 52.9192 350.631 53.2856L348.624 60.3694L346.295 53.2333ZM332.695 53.3903L334.899 52.6924H335.025V55.2572H337.014V55.9726H335.025V61.4511C335.025 62.0792 335.473 62.3584 336.01 62.3584C336.476 62.3584 336.852 62.1316 337.229 61.7303L337.587 62.1665C337.049 62.9516 336.153 63.5623 334.899 63.5623C333.752 63.5623 332.695 62.8993 332.695 61.5558V55.9726H331.494V55.2572H332.695V53.3903ZM331.823 62.6899H330.837V57.7871C330.837 56.0947 329.977 55.0827 328.436 55.0827C327.146 55.0827 326.214 56.0075 325.749 56.7577C325.749 56.2343 325.623 55.5189 325.39 55.0827H325.301L322.452 56.0075V56.4611C323.258 56.6007 323.419 56.9322 323.419 57.4382V62.6899H322.434V63.3878H326.627V62.6899H325.749V57.2114C326.107 56.7577 326.609 56.496 327.254 56.496C328.15 56.496 328.508 57.1241 328.508 57.9267V62.6899H327.63V63.3878H331.823V62.6899ZM318.739 55.6934C317.61 55.6934 316.965 57.1765 316.965 58.5897L319.08 58.2408C319.707 58.1186 319.994 57.9616 319.994 57.4207C319.994 56.6356 319.617 55.6934 318.739 55.6934ZM322.233 61.2592C321.588 62.6725 320.316 63.5623 318.703 63.5623C316.481 63.5623 314.94 61.835 314.94 59.5493C314.94 56.9147 316.822 55.0827 318.829 55.0827C320.979 55.0827 322.162 56.496 322.162 58.4501L317.001 59.2527C317.216 61.1022 318.363 62.0967 319.725 62.0967C320.549 62.0967 321.284 61.7826 321.875 60.9975L322.233 61.2592ZM311.446 55.0827C310.192 55.0827 309.153 56.0598 308.687 56.8275C308.418 55.7283 307.63 55.0827 306.447 55.0827C305.175 55.0827 304.243 56.0075 303.777 56.7577C303.777 56.2343 303.652 55.5189 303.419 55.0827H303.329L300.48 56.0075V56.4611C301.286 56.6007 301.448 56.9322 301.448 57.4382V62.6899H300.462V63.3878H304.637V62.6899H303.777V57.2114C304.136 56.7577 304.601 56.496 305.229 56.496C306.089 56.496 306.447 57.1241 306.447 57.8744V62.6899H305.569V63.3878H309.637V62.6899H308.776V57.2114C309.135 56.7577 309.583 56.496 310.228 56.496C311.088 56.496 311.446 57.1241 311.446 57.8744V62.6899H310.568V63.3878H314.761V62.6899H313.776V57.7871C313.776 56.0947 312.952 55.0827 311.446 55.0827ZM295.874 53.3903L298.078 52.6924H298.204V55.2572H300.193V55.9726H298.204V61.4511C298.204 62.0792 298.652 62.3584 299.189 62.3584C299.655 62.3584 300.031 62.1316 300.408 61.7303L300.766 62.1665C300.228 62.9516 299.332 63.5623 298.078 63.5623C296.931 63.5623 295.874 62.8993 295.874 61.5558V55.9726H294.674V55.2572H295.874V53.3903ZM290.335 62.655C290.263 61.4686 289.707 60.8754 289.08 60.8754C288.561 60.8754 288.22 61.2418 288.22 61.8001C288.22 62.9167 289.725 63.5623 291.284 63.5623C293.381 63.5623 294.761 62.2712 294.761 60.7532C294.761 59.0359 293.247 58.5444 291.962 58.1265C291.015 57.8185 290.191 57.5511 290.191 56.8624C290.191 56.1819 290.854 55.7632 291.732 55.7632C291.947 55.7632 292.109 55.7806 292.27 55.8504C292.377 56.8624 292.897 57.316 293.524 57.316C294.062 57.316 294.384 56.9845 294.384 56.496C294.384 55.5364 293.022 55.0827 291.876 55.0827C290.03 55.0827 288.543 56.2168 288.543 57.7871C288.543 59.3583 289.921 59.8058 291.154 60.2062C292.153 60.5312 293.058 60.8248 293.058 61.6605C293.058 62.4805 292.324 62.8644 291.374 62.8644C290.98 62.8644 290.603 62.7946 290.335 62.655ZM284.582 55.6934C283.453 55.6934 282.808 57.1765 282.808 58.5897L284.922 58.2408C285.549 58.1186 285.836 57.9616 285.836 57.4207C285.836 56.6356 285.46 55.6934 284.582 55.6934ZM288.076 61.2592C287.431 62.6725 286.159 63.5623 284.546 63.5623C282.324 63.5623 280.783 61.835 280.783 59.5493C280.783 56.9147 282.665 55.0827 284.671 55.0827C286.822 55.0827 288.004 56.496 288.004 58.4501L282.844 59.2527C283.059 61.1022 284.206 62.0967 285.567 62.0967C286.392 62.0967 287.126 61.7826 287.718 60.9975L288.076 61.2592ZM279.039 56.6356L277.301 60.9451L275.33 55.9726H276.53V55.2572H272.086V55.9726H272.857L276.046 63.3878H276.996L279.935 56.5483C280.114 56.0947 280.293 55.9726 280.938 55.9726V55.2572H277.982V55.9726H278.662C279.092 55.9726 279.182 56.2517 279.039 56.6356ZM271.71 62.6899H272.695V63.3878H268.502V62.6899H269.38V57.9267C269.38 57.1241 269.022 56.496 268.126 56.496C267.481 56.496 266.979 56.7577 266.621 57.2114V62.6899H267.499V63.3878H263.306V62.6899H264.291V57.4382C264.291 56.9322 264.13 56.6007 263.324 56.4611V56.0075L266.173 55.0827H266.262C266.495 55.5189 266.621 56.2343 266.621 56.7577C267.087 56.0075 268.018 55.0827 269.308 55.0827C270.849 55.0827 271.71 56.0947 271.71 57.7871V62.6899ZM259.308 52.6226V62.6376H258V63.3878H263.035V62.6376H261.727V52.6226H263.035V51.8724H258V52.6226H259.308Z" fill="black"/>
</g>
<g clip-path="url(#clip1_1369_94)">
<path d="M192.651 44.384V65.9966H196.374V51.9431H200.533V65.9966H204.26V50.5738C204.26 49.3956 203.355 48.5757 202.308 48.5757H196.374V44.384H192.651ZM169.061 48.5755C167.986 48.5755 167.113 49.527 167.113 50.7706V54.3404L170.75 53.8151V51.9523H175.083V55.436H169.061C168.015 55.436 167.113 56.2852 167.113 57.4634V63.8356C167.113 65.0469 167.986 65.9964 169.061 65.9964H176.8C177.874 65.9964 178.717 65.0468 178.717 63.7219V50.6537C178.717 49.527 177.874 48.5755 176.8 48.5755H169.061ZM156.292 48.5757C155.215 48.5757 154.344 49.5272 154.344 50.7735V63.8358C154.344 65.0471 155.215 65.9966 156.292 65.9966H164.027C165.105 65.9966 165.95 65.0471 165.95 63.8358V60.1173L162.256 60.6426V62.6198H158.036V51.9431H162.256V53.8153L165.95 54.3406V50.7735C165.95 49.5272 165.105 48.5757 164.027 48.5757H156.292ZM181.83 48.5757C180.755 48.5757 179.882 49.5272 179.882 50.7735V56.6475C179.882 57.8561 180.755 58.8063 181.83 58.8063H187.794V62.6258H183.576V60.6426L179.882 60.1173V63.8358C179.882 65.0471 180.755 65.9966 181.83 65.9966H189.567C190.644 65.9966 191.485 65.0471 191.485 63.8358V57.6247C191.485 56.3784 190.644 55.4276 189.567 55.4276H183.576V51.9517H187.794V53.8153L191.485 54.3406V50.7735C191.485 49.5272 190.644 48.5757 189.567 48.5757H181.83ZM170.75 58.8062H175.083V62.6257H170.75V58.8062Z" fill="black"/>
</g>
<g clip-path="url(#clip2_1369_94)">
<path d="M471.362 18.1525V5.19599H466.656V1.40308H480.192V5.19599H475.497V18.1525H471.362Z" fill="black"/>
<path d="M457.936 18.1525V1.40308H462.07V14.359H468.905V18.1525H457.936Z" fill="black"/>
<path d="M448.114 1.03979C443.285 1.03979 440.041 4.5718 440.041 9.82863C440.041 15.0244 443.371 18.5153 448.328 18.5153C451.141 18.5153 453.268 17.7438 455.02 16.0876L455.072 16.0388L452.538 13.1821L452.486 13.2271C451.35 14.2123 449.998 14.7327 448.576 14.7327C446.404 14.7327 445.004 13.5904 444.528 11.4286L444.509 11.3324L455.779 11.3319C455.782 11.31 455.786 11.294 455.789 11.2653C455.839 10.8892 455.872 10.2745 455.872 9.75978C455.856 4.54408 452.737 1.03979 448.114 1.03979ZM444.523 8.15514L444.542 8.05971C444.984 5.94519 446.174 4.87337 448.081 4.87337C449.879 4.87337 451.063 5.97485 451.503 8.05924L451.523 8.15514H444.523Z" fill="black"/>
<path d="M430.523 18.1523L427.513 7.55768L424.504 18.1523H419.569L415 1.40283H419.268L422.225 13.1672L425.331 1.40283H429.753L432.859 13.1909L435.816 1.40283H440.026L435.457 18.1523H430.523Z" fill="black"/>
</g>
<g clip-path="url(#clip3_1369_94)">
<path fill-rule="evenodd" clip-rule="evenodd" d="M26.0535 70.3799H27.57V61.428H26.0535V70.3799ZM31.6126 70.2457H32.971V64.5975L38.6884 70.3799V61.5622H37.3339V67.1139L31.6126 61.428V70.2457ZM41.7892 68.0776C42.5285 68.714 43.4159 69.0819 44.3672 69.0819C45.2938 69.0819 45.9439 68.7294 45.9439 67.951C45.9439 67.2726 45.5293 67.0069 44.8033 66.7096L43.6279 66.2585C42.5443 65.8333 41.7202 65.2123 41.7202 63.7848C41.7202 62.2581 42.9677 61.428 44.4596 61.428C45.3736 61.428 46.2065 61.6818 46.8572 62.1315V63.6457C46.1806 63.0932 45.44 62.7127 44.4887 62.7127C43.6697 62.7127 43.0576 63.0505 43.0576 63.7548C43.0576 64.3912 43.4418 64.6458 44.1184 64.9017L45.428 65.4095C46.6971 65.9025 47.2794 66.667 47.2794 67.9244C47.2794 69.5064 46.0198 70.3799 44.3672 70.3799C43.2811 70.3799 42.3576 70.0442 41.7892 69.6204V68.0776ZM50.8176 70.3799H52.3335V61.428H50.8176V70.3799ZM59.4453 69.0252C61.1543 69.0252 62.0676 67.8139 62.0676 65.9018C62.0676 63.9758 61.1536 62.7687 59.4453 62.7687H57.7553V69.0252H59.4453ZM56.3755 61.428H59.4959C61.898 61.428 63.4512 63.1764 63.4512 65.9018C63.4512 68.6294 61.898 70.3799 59.4959 70.3799H56.3755V61.428ZM71.0327 61.428V62.7687H67.3635V64.9227H70.6542V66.248H67.3629V69.0252H71.0327V70.3799H65.9786V61.428H71.0327ZM76.414 65.4815H77.9185C78.8091 65.4815 79.311 64.9416 79.311 64.1115C79.311 63.2813 78.8091 62.7407 77.9185 62.7407H76.414V65.4815ZM76.414 66.7474V70.3799H75.0753V61.428H77.9439C79.5794 61.428 80.6377 62.3588 80.6377 64.1115C80.6377 65.6102 80.0503 66.4711 78.799 66.6921L81.6453 70.3799H80.1225L77.3666 66.7481H76.4147L76.414 66.7474ZM25.5237 52.6089C26.1168 52.369 26.5788 51.6493 26.5788 50.6597C26.5788 49.0106 25.5237 48.156 23.8356 48.156H21V57.3618H24.0989C25.787 57.3618 26.8421 56.447 26.8421 54.7231C26.8421 53.7481 26.2883 52.8935 25.5237 52.6089ZM22.3317 52.0242V49.5057H23.823C24.7597 49.5057 25.2604 49.8806 25.2604 50.7499C25.2604 51.6193 24.7591 52.0242 23.823 52.0242H22.3317ZM22.3317 53.3138H24.0723C24.9964 53.3138 25.4971 53.823 25.4971 54.6629C25.4971 55.4875 24.9958 56.0127 24.073 56.0127H22.3324V53.3131L22.3317 53.3138ZM33.0292 57.5115C34.9679 57.5115 36.2737 56.2218 36.2737 53.7034V48.156H34.9021V53.5229C34.9021 55.2924 34.2426 56.1176 33.0292 56.1176C31.8158 56.1176 31.1569 55.2924 31.1569 53.5229V48.156H29.7853V53.688C29.7853 56.2218 31.1038 57.5115 33.0292 57.5115ZM39.503 56.7016C40.0701 57.152 40.9936 57.5115 42.0747 57.5115C43.7235 57.5115 44.9761 56.5813 44.9761 54.9028C44.9761 53.5684 44.3963 52.7585 43.1298 52.234L41.8246 51.6941C41.1518 51.4248 40.7695 51.1549 40.7695 50.48C40.7695 49.7302 41.3759 49.3708 42.1937 49.3708C43.1431 49.3708 43.8817 49.775 44.5546 50.3604V48.7553C43.9083 48.2763 43.0772 48.0063 42.1671 48.0063C40.6771 48.0063 39.4372 48.891 39.4372 50.51C39.4372 52.0242 40.2549 52.6837 41.336 53.1334L42.5101 53.6132C43.2355 53.9279 43.6444 54.2132 43.6444 54.9329C43.6444 55.7574 42.9981 56.1323 42.0747 56.1323C41.1252 56.1323 40.2416 55.7421 39.503 55.0679V56.7016ZM49.877 48.156H48.506V57.3611H49.877V48.156ZM53.7899 57.3499H55.1115V51.3612L60.6739 57.4926V48.142H59.3561V54.0286L53.7899 48V57.3499ZM69.2446 48.1581V49.5365H65.6836V51.7521H68.8769V53.1152H65.6836V55.9708H69.2446V57.3639H64.3393V48.1581H69.2446ZM72.4378 56.6953C73.005 57.1457 73.9278 57.5052 75.0095 57.5052C76.6577 57.5052 77.9109 56.5757 77.9109 54.8965C77.9109 53.5621 77.3305 52.7529 76.0646 52.2277L74.7589 51.6885C74.086 51.4185 73.7037 51.1486 73.7037 50.4737C73.7037 49.724 74.3101 49.3645 75.1279 49.3645C76.0773 49.3645 76.8159 49.7694 77.4888 50.3541V48.7497C76.8425 48.27 76.0115 48 75.1013 48C73.6113 48 72.3714 48.8847 72.3714 50.5038C72.3714 52.0179 73.1891 52.6774 74.2702 53.1271L75.4443 53.6069C76.1697 53.9216 76.5786 54.2069 76.5786 54.9266C76.5786 55.7511 75.933 56.126 75.0089 56.126C74.0595 56.126 73.1759 55.7365 72.4378 55.0616V56.6953ZM80.7206 56.6953C81.2877 57.1457 82.2112 57.5052 83.2923 57.5052C84.9411 57.5052 86.1937 56.5757 86.1937 54.8965C86.1937 53.5621 85.6133 52.7529 84.3474 52.2277L83.0416 51.6885C82.3694 51.4185 81.9865 51.1486 81.9865 50.4737C81.9865 49.724 82.5935 49.3645 83.4106 49.3645C84.3601 49.3645 85.0993 49.7694 85.7715 50.3541V48.7497C85.1259 48.27 84.2949 48 83.3847 48C81.8941 48 80.6548 48.8847 80.6548 50.5038C80.6548 52.0179 81.4725 52.6774 82.5536 53.1271L83.7277 53.6069C84.4531 53.9216 84.862 54.2069 84.862 54.9266C84.862 55.7511 84.2157 56.126 83.2923 56.126C82.3429 56.126 81.4593 55.7365 80.7206 55.0616V56.6953Z" fill="black"/>
</g>
<path d="M258.622 11.1436H252V17.7793H258.622V11.1436Z" fill="black"/>
<path d="M258.622 3.3269H252V9.96265H258.622V3.3269Z" fill="black"/>
<path d="M379.081 11.6505H380.633C380.633 11.103 380.655 10.1394 380.567 9.54807C380.502 9.11006 380.327 8.73776 379.868 8.73776C379.475 8.73776 379.234 8.95676 379.147 9.35097C379.038 9.85467 379.06 10.8183 379.06 11.4534V11.6505H379.081ZM379.081 14.0376C379.081 15.4173 379.781 15.921 380.808 15.921C381.442 15.921 382.491 15.5268 382.993 14.9136V17.016C382.534 17.4759 381.267 18.0891 379.781 18.0891C377.901 18.0891 376.459 16.8189 376.306 14.5413C376.197 13.1835 376.087 10.7526 376.437 9.37287C376.809 7.64276 377.901 6.81055 379.824 6.81055C381.507 6.81055 382.622 7.64276 382.971 9.37287C383.146 10.2927 383.059 12.6579 383.059 13.2711V13.3587H379.06V14.0376H379.081Z" fill="black"/>
<path d="M350.534 17.8903H348.042L346.294 9.94056L344.567 17.8903H342.054L339.672 3.41431H342.863V3.52381L344.065 12.1306L345.704 3.41431H347.977L349.594 12.1306L350.818 3.41431H352.981L350.534 17.8903Z" fill="black"/>
<path d="M356.317 18.1102C354.394 18.1102 353.236 17.3218 352.777 15.6574C352.537 14.8252 352.449 13.6645 352.449 12.4819C352.449 11.3212 352.515 10.1824 352.777 9.32826C353.258 7.64195 354.46 6.78784 356.317 6.78784C358.11 6.78784 359.399 7.62005 359.836 9.32826C360.055 10.1167 360.098 11.2117 360.098 12.4819C360.098 13.7521 360.033 14.8471 359.836 15.6574C359.377 17.3437 358.197 18.1102 356.317 18.1102ZM357.192 12.4819C357.192 11.0146 357.126 10.1824 357.082 9.85386C356.973 9.13116 356.755 8.89026 356.274 8.89026C355.815 8.89026 355.618 9.13116 355.487 9.85386C355.421 10.1824 355.378 11.0146 355.378 12.4819C355.378 13.9492 355.443 14.7814 355.487 15.1099C355.596 15.8326 355.815 16.0735 356.296 16.0735C356.755 16.0735 356.951 15.8326 357.082 15.1099C357.126 14.8033 357.192 13.9711 357.192 12.4819Z" fill="black"/>
<path d="M367.275 7.55435V11.0146H365.701L365.33 8.97786C365.199 8.89026 364.936 8.86836 364.849 8.86836C364.106 8.86836 363.887 9.35017 363.844 10.051C363.778 11.1022 363.756 13.2265 363.844 14.2339C363.931 15.3946 364.39 15.9202 365.308 15.9202C366.007 15.9202 366.75 15.4822 367.384 14.7376V16.9495C366.925 17.4094 365.92 18.0664 364.499 18.0664C362.511 18.0664 361.221 16.7524 361.003 14.7814C360.872 13.3141 360.872 11.7811 361.003 10.27C361.243 7.97046 362.532 6.78784 364.521 6.78784C365.461 6.78784 366.466 7.11634 367.275 7.55435Z" fill="black"/>
<path d="M375.42 17.8912H372.513V9.70054C372.513 9.19684 372.229 8.89023 371.792 8.89023C371.53 8.89023 371.289 8.97784 371.071 9.13114V17.8912H368.164V3.7437L371.071 3.021V7.48863C371.661 7.05062 372.295 6.78782 373.125 6.78782C374.742 6.78782 375.42 7.88283 375.42 9.56914V17.8912Z" fill="black"/>
<path d="M277.698 3.37061H274.791V5.77962H277.698V3.37061Z" fill="black"/>
<path d="M304.386 7.53335V10.9936H302.812L302.441 8.97876C302.31 8.89116 302.047 8.86926 301.96 8.86926C301.217 8.86926 300.998 9.35106 300.955 10.0519C300.889 11.1031 300.867 13.2274 300.955 14.2348C301.042 15.3955 301.501 15.8992 302.419 15.8992C303.118 15.8992 303.861 15.4612 304.495 14.7166V16.9285C304.036 17.3884 303.031 18.0454 301.61 18.0454C299.622 18.0454 298.332 16.7533 298.135 14.7604C298.004 13.2931 298.004 11.6506 298.135 10.1395C298.376 7.83995 299.665 6.76685 301.632 6.76685C302.572 6.78875 303.577 7.09535 304.386 7.53335Z" fill="black"/>
<path d="M289.152 15.8572C289.545 15.8572 290.004 15.6163 290.376 15.2878V17.215V17.2369C289.829 17.6311 288.933 17.9815 287.993 17.9815C286.617 17.9815 285.502 17.1712 285.502 15.1345V7.22857L288.146 4.88525H288.409V6.98767H290.135V8.82728H288.409V15.0688C288.387 15.7258 288.736 15.8572 289.152 15.8572Z" fill="black"/>
<path d="M324.619 17.8459H321.712V8.86684H320.729V7.02723H321.712V6.37022C321.712 4.37731 322.783 3.3042 324.619 3.3042C325.274 3.3042 326.039 3.4137 326.695 3.6765V5.58181C326.258 5.45041 325.842 5.31902 325.515 5.31902C324.772 5.31902 324.466 5.66942 324.466 6.37022V7.02723H326.389V8.86684H324.619V17.8459Z" fill="black"/>
<path d="M281.725 17.8489H278.819V9.76777C278.819 8.71656 278.731 7.84056 278.578 7.03025H280.917L281.244 8.10336C281.987 7.18355 282.709 6.87695 283.583 6.87695C283.976 6.87695 284.413 6.98645 284.785 7.20546V11.1694H283.211L282.949 9.43927C282.403 9.30787 281.747 9.43927 281.747 10.381L281.725 17.8489Z" fill="black"/>
<path d="M277.698 7.0061H274.791V17.8467H277.698V7.0061Z" fill="black"/>
<path d="M315.638 18.133C314.895 18.133 314.283 17.8483 313.802 17.2132C313.474 16.7752 313.256 16.0525 313.256 15.0013C313.256 13.9063 313.321 13.1836 313.737 12.5485C314.283 11.7163 315.354 11.2564 317.452 11.4535V10.03C317.452 9.11016 317.015 8.75975 316.228 8.75975C316.01 8.75975 315.769 8.82546 315.594 8.89116L315.332 10.6651H313.715V7.66475C314.502 7.16104 315.725 6.76685 316.774 6.76685C318.894 6.76685 320.227 7.70855 320.227 9.94237V15.067C320.227 15.8773 320.315 16.7533 320.555 17.7169V17.8264H318.195L317.867 16.9723C317.386 17.695 316.468 18.133 315.638 18.133ZM315.944 14.4538C315.944 15.8992 316.228 16.0306 316.665 16.0306C316.949 16.0306 317.474 15.7459 317.474 15.1327V13.0303C317.233 12.9646 317.037 12.9646 316.906 12.9646C316.228 12.9865 315.944 13.2712 315.944 14.4538Z" fill="black"/>
<path d="M271.826 17.8466H269.357L267.586 9.89685L265.882 17.8466H263.368L260.986 3.37061H264.177V3.4582L265.357 12.0869L266.996 3.37061H269.269L270.886 12.0869L272.11 3.37061H274.252L271.826 17.8466Z" fill="black"/>
<path d="M335.149 17.9578C334.341 17.9578 333.226 17.695 332.483 17.1694V14.1034H334.013L334.297 15.943C334.537 16.0087 334.8 16.0306 334.953 16.0306C335.739 16.0306 336.22 15.5707 336.22 15.0232C336.22 14.191 335.39 13.8406 334.21 13.0303C333.095 12.2857 332.33 11.2345 332.33 9.89857C332.33 8.01515 333.641 6.76685 335.696 6.76685C336.745 6.76685 337.641 7.09534 338.34 7.46765V10.4461H336.788L336.548 8.78166C335.761 8.56265 334.931 8.78166 334.931 9.67956C334.931 10.3804 335.827 10.8403 336.745 11.4097C337.925 12.1543 338.843 13.096 338.843 14.848C338.865 16.4686 337.444 17.9578 335.149 17.9578Z" fill="black"/>
<path d="M293.757 17.9578C292.948 17.9578 291.834 17.695 291.09 17.1694V14.1034H292.62L292.904 15.943C293.145 16.0087 293.407 16.0306 293.56 16.0306C294.347 16.0306 294.828 15.5707 294.828 15.0232C294.828 14.191 293.997 13.8406 292.817 13.0303C291.702 12.2857 290.938 11.2345 290.938 9.89857C290.938 8.01515 292.249 6.76685 294.303 6.76685C295.352 6.76685 296.248 7.09534 296.947 7.46765V10.4461H295.396L295.155 8.78166C294.369 8.56265 293.538 8.78166 293.538 9.67956C293.538 10.3804 294.434 10.8403 295.352 11.4097C296.532 12.1543 297.45 13.096 297.45 14.848C297.45 16.4686 296.051 17.9578 293.757 17.9578Z" fill="black"/>
<path d="M312.494 17.8483H309.609V9.67955C309.609 9.17584 309.325 8.86924 308.888 8.86924C308.625 8.86924 308.385 8.95684 308.166 9.11014V17.8264H305.26V3.7227L308.166 3V7.46763C308.735 7.02963 309.39 6.76683 310.199 6.76683C311.816 6.76683 312.494 7.86183 312.494 9.52624V17.8483Z" fill="black"/>
<path d="M330.613 15.8572C331.006 15.8572 331.465 15.6163 331.836 15.2878V17.215V17.2369C331.29 17.6311 330.394 17.9815 329.454 17.9815C328.077 17.9815 326.963 17.1712 326.963 15.1345V7.22857L329.607 4.88525H329.87V6.98767H331.596V8.82728H329.87V15.0688C329.87 15.7258 330.197 15.8572 330.613 15.8572Z" fill="black"/>
<g clip-path="url(#clip4_1369_94)">
<path d="M438.394 46.4019H436.979V54.4927H438.394V46.4019Z" fill="black"/>
<path d="M438.394 57.9702H436.979V67.7762H438.394V57.9702Z" fill="black"/>
<path fill-rule="evenodd" clip-rule="evenodd" d="M430 38V76.9216H465.029V38H430ZM441.829 54.3804C441.829 55.1828 441.181 55.8306 440.392 55.8306H440.241C441.115 55.8299 441.829 56.5513 441.829 57.4374V69.757C441.827 70.6049 441.155 71.2868 440.327 71.2888H433.529L433.531 42.8967H440.335C441.155 42.898 441.827 43.5799 441.829 44.4285V54.3804ZM446.771 71.2982H443.322V47.8402H446.771V71.2982ZM446.771 46.402H443.322V42.896H446.771V46.402ZM451.712 71.2982H448.263V42.8967H451.712V71.2982ZM461.5 71.2975L454.703 71.2888C453.875 71.2868 453.202 70.6049 453.201 69.757L453.204 49.3707C453.207 48.5221 453.873 47.8402 454.695 47.8388H458.051V42.8953H461.5V71.2975ZM456.637 67.7754H458.053V51.308H456.637V67.7754Z" fill="black"/>
</g>
<g clip-path="url(#clip5_1369_94)">
<path d="M141.125 5.06443H142.894C144.509 5.06443 145.206 5.56391 145.206 6.57952C145.206 7.46194 144.492 8.06131 143.081 8.06131H141.142V5.06443H141.125ZM139 15.0041H143.319C145.58 15.0041 147.858 14.2049 147.858 11.6576C147.858 10.1425 146.77 8.99367 145.274 8.82718V8.79388C146.515 8.4276 147.348 7.54518 147.348 6.22989C147.348 4.09877 145.495 3.28296 143.676 3.28296H139V15.0041ZM141.125 9.84279H143.166C144.9 9.84279 145.699 10.2757 145.699 11.5077C145.699 13.0561 144.169 13.2393 143.081 13.2393H141.125V9.84279Z" fill="black"/>
<path d="M149.236 3H151.26V15.0042H149.236V3Z" fill="black"/>
<path d="M154.66 11.0249C154.66 9.77623 155.561 8.64408 157.04 8.64408C158.537 8.64408 159.421 9.79288 159.421 11.0249C159.421 12.2736 158.52 13.4058 157.04 13.4058C155.561 13.4224 154.66 12.2736 154.66 11.0249ZM152.637 11.0249C152.637 13.5223 154.592 15.2039 157.057 15.2039C159.506 15.2039 161.478 13.5223 161.478 11.0249C161.478 8.52753 159.523 6.84595 157.057 6.84595C154.592 6.8626 152.637 8.52753 152.637 11.0249Z" fill="black"/>
<path d="M164.419 11.0249C164.419 9.77623 165.32 8.64408 166.8 8.64408C168.296 8.64408 169.18 9.79288 169.18 11.0249C169.18 12.2736 168.279 13.4058 166.8 13.4058C165.303 13.4224 164.419 12.2736 164.419 11.0249ZM162.379 11.0249C162.379 13.5223 164.334 15.2039 166.8 15.2039C169.248 15.2039 171.22 13.5223 171.22 11.0249C171.22 8.52753 169.265 6.84595 166.8 6.84595C164.351 6.8626 162.379 8.52753 162.379 11.0249Z" fill="black"/>
<path d="M172.46 7.06234H174.382V8.31104H174.416C174.773 7.56182 175.555 6.86255 176.898 6.86255C178.156 6.86255 179.006 7.34538 179.431 8.34434C180.026 7.32873 180.894 6.86255 182.101 6.86255C184.26 6.86255 185.025 8.37764 185.025 10.2757V15.0207H183.002V10.5087C183.002 9.50979 182.696 8.66067 181.489 8.66067C180.214 8.66067 179.737 9.69293 179.737 10.7085V15.0207H177.714V10.2757C177.714 9.29335 177.306 8.64403 176.32 8.64403C174.977 8.64403 174.467 9.60969 174.467 10.6586V15.0041H172.443V7.06234H172.46Z" fill="black"/>
<path d="M193.424 11.025C193.424 12.2737 192.523 13.4058 191.044 13.4058C189.548 13.4058 188.664 12.257 188.664 11.025C188.664 9.77628 189.565 8.64413 191.044 8.64413C192.523 8.64413 193.424 9.79293 193.424 11.025ZM186.691 15.0042H188.613V13.8054H188.647C189.242 14.7711 190.313 15.204 191.435 15.204C193.934 15.204 195.448 13.3892 195.448 11.025C195.448 8.67742 193.832 6.846 191.52 6.846C189.99 6.846 189.191 7.54526 188.766 8.06139H188.715V3H186.691V15.0042Z" fill="black"/>
<path d="M198.407 10.2424C198.561 9.09361 199.309 8.36104 200.499 8.36104C201.774 8.36104 202.539 9.09361 202.556 10.2424H198.407ZM204.596 11.7242V11.1748C204.596 8.41098 203.049 6.84595 200.788 6.84595C198.339 6.84595 196.367 8.52753 196.367 11.0249C196.367 13.5223 198.322 15.2039 200.788 15.2039C202.08 15.2039 203.27 14.7544 204.222 13.6056L202.76 12.5234C202.25 13.1394 201.587 13.6056 200.584 13.6056C199.445 13.6056 198.544 12.8897 198.407 11.7242H204.596Z" fill="black"/>
<path d="M205.922 7.06234H207.945V8.32769H207.979C208.421 7.41197 209.322 6.86255 210.377 6.86255C210.632 6.86255 210.87 6.91249 211.108 6.97909V8.89377C210.768 8.81052 210.445 8.74392 210.121 8.74392C208.217 8.74392 207.945 10.3256 207.945 10.7418V15.0041H205.922V7.06234Z" fill="black"/>
<path d="M215.664 8.64403C217.143 8.64403 218.062 9.60969 218.062 10.9749C218.062 12.3069 217.143 13.3058 215.647 13.3058C214.27 13.3058 213.267 12.2569 213.267 11.0082C213.267 9.60968 214.236 8.64403 215.664 8.64403ZM218.062 7.06234V8.26109H218.028C217.432 7.29543 216.361 6.86255 215.239 6.86255C212.74 6.86255 211.227 8.69397 211.227 11.0415C211.227 13.2892 212.842 15.1206 215.273 15.1206C216.293 15.1206 217.33 14.7377 217.926 13.9552H217.96V14.5379C217.96 16.1196 217.347 17.2018 215.392 17.2018C214.253 17.2018 213.42 16.7855 212.604 16.053L211.38 17.6846C212.536 18.6836 213.896 18.9999 215.409 18.9999C218.572 18.9999 220 17.1851 220 14.3048V7.06234H218.062Z" fill="black"/>
</g>
<path d="M22.0055 11.0588V14.6341C21.4062 15.2196 20.8046 15.533 20.2242 15.533C19.3361 15.533 18.6921 14.8642 18.6921 13.9234C18.6921 12.8985 19.3136 12.272 21.1986 11.4364L22.0055 11.0588ZM103.65 3.4979C102.931 5.86559 101.82 6.97448 100.15 6.97448H98.2094V3.4979H97.7351C97.0955 5.48799 95.9863 6.72444 94.3781 7.24689V7.74718H95.8836V14.3109C95.8836 16.3254 96.4985 17.1203 98.0653 17.1203C99.2407 17.1203 100.004 16.5757 100.665 15.2982L100.747 15.172L100.377 14.9618C99.9212 15.5086 99.6111 15.7177 99.2193 15.7177C98.4783 15.7177 98.2094 15.193 98.2094 13.7441V7.74718H101.797V14.3109C101.797 16.3254 102.417 17.1203 103.979 17.1203C105.259 17.1203 106.124 16.4516 106.805 14.9618L106.455 14.7735C106.002 15.4244 105.591 15.7177 105.136 15.7177C104.393 15.7177 104.123 15.193 104.123 13.7441V7.74718H106.455V6.97448H104.123V3.4979H103.65ZM11.8568 9.75717V14.5213C11.8568 16.1161 11.5677 16.4516 10.1415 16.4924V16.9331H16.1231V16.4924C14.639 16.4295 14.4101 16.136 14.4101 14.2057V4.53715C14.4101 2.88592 14.6602 2.61351 16.1231 2.52934V2.09106H10.1415V2.52934C11.5454 2.59362 11.8568 2.90673 11.8568 4.32923V8.84527H5.68738V4.43329C5.68738 2.92804 6.01777 2.57146 7.39936 2.52934V2.09106H1.41992V2.52934C2.80269 2.57146 3.13191 2.94793 3.13191 4.43329V14.2267C3.13191 16.136 2.88418 16.4516 1.41992 16.4924V16.9331H7.39936V16.4924C5.97546 16.5347 5.68738 16.1992 5.68738 14.4991V9.75717H11.8568ZM22.0057 15.8428C22.0057 16.808 22.1307 16.9331 23.097 16.9331H25.5835V16.5347C24.5567 16.5136 24.3315 16.1573 24.3315 14.415V9.94541C24.3315 7.46715 23.4878 6.65036 20.9286 6.65036C18.5495 6.65036 16.8007 7.73822 16.8007 9.21709C16.8007 9.88346 17.2537 10.345 17.8898 10.345C18.6085 10.345 18.9389 9.90336 18.9211 8.99012C18.8796 7.84229 19.3541 7.29994 20.3909 7.29994C21.5503 7.29994 22.0057 7.94748 22.0057 9.63321V10.345C17.7259 11.8758 16.3909 12.9052 16.3909 14.6251C16.3909 16.1217 17.4378 17.2353 18.8585 17.2353C19.8517 17.2353 20.3082 16.9629 22.0057 15.3868V15.8428ZM29.5475 9.61776C30.3936 8.65478 31.0776 8.23647 31.8208 8.23647C32.8542 8.23647 33.1857 8.86524 33.1857 10.6825V14.5499C33.1857 16.0586 32.957 16.436 31.9648 16.5201V16.9331H36.7781V16.5347C35.8016 16.5347 35.5093 16.0942 35.5093 14.6462V10.4923C35.5093 7.84024 34.7069 6.64704 32.8957 6.64704C31.7181 6.64704 30.8096 7.23348 29.5475 8.84527V6.6692H29.0957L25.8312 7.86112L25.9551 8.21657C26.1583 8.15456 26.2621 8.1324 26.3637 8.1324C27.0198 8.1324 27.2263 8.57286 27.2263 9.88346V14.7514C27.2263 16.0942 26.9383 16.5136 25.9751 16.5347V16.9331H30.7874V16.5347C29.8155 16.5347 29.5475 16.0942 29.5475 14.5202V9.61776ZM46.3969 2.09106H45.9237L42.6304 3.34501L42.752 3.70046L42.8984 3.65841C43.0423 3.59639 43.1047 3.59639 43.2486 3.59639C43.886 3.59639 44.0713 3.99255 44.0713 5.37292V7.46377C43.2667 6.83613 42.752 6.64704 41.8872 6.64704C39.3516 6.64704 37.4188 9.05545 37.4188 12.2167C37.4188 15.1896 38.9421 17.2375 41.1652 17.2375C42.2355 17.2375 42.6516 17.0283 44.0713 15.7963C44.0713 16.8489 44.1749 16.9331 45.1605 16.9331H47.6569V16.5347C46.5622 16.5347 46.3969 16.2213 46.3969 14.2113V2.09106ZM44.0713 14.9638C43.2074 15.5462 42.9174 15.6722 42.4228 15.6722C40.9609 15.6722 39.9275 13.8948 39.9275 11.3023C39.9275 8.91604 40.692 7.44274 41.9084 7.44274C43.3713 7.44274 44.0713 8.51649 44.0713 10.738V14.9638ZM56.1206 13.2649C55.3986 14.622 54.5728 15.2272 53.3765 15.2272C51.517 15.2272 50.3007 13.5362 50.1131 10.738H56.471C56.3271 8.07688 55.0059 6.64923 52.7347 6.64923C50.0519 6.64923 48.1512 8.91829 48.1512 12.137C48.1512 15.1852 49.8443 17.2375 52.4032 17.2375C54.4901 17.2375 55.7301 16.0864 56.471 13.4111L56.1206 13.2649ZM50.1345 9.9895C50.3609 8.28614 51.0216 7.48818 52.1767 7.48818C53.2906 7.48818 53.912 8.32939 54.017 9.9895H50.1345ZM60.5511 2.09106H60.078L56.7412 3.34635L56.8462 3.70046C57.1729 3.63844 57.2779 3.61854 57.4242 3.61854C58.0012 3.61854 58.2253 4.11884 58.2253 5.35415V14.851C58.2253 16.0864 57.9163 16.5257 56.9678 16.5257V16.9331H61.8223V16.5347C60.8648 16.5347 60.5511 16.115 60.5511 14.8577V2.09106ZM68.1086 6.77326C67.9235 6.91917 67.7985 6.98118 67.6132 6.98118C67.4481 6.98118 67.3432 6.96129 66.7874 6.8151C66.3532 6.68888 66.0664 6.64704 65.7372 6.64704C63.8255 6.64704 62.5331 7.83784 62.5331 9.64104C62.5331 10.9393 62.9204 11.4639 64.8712 12.7414C67.0955 14.209 67.1389 14.2511 67.1389 15.047C67.1323 15.8339 66.4916 16.4205 65.648 16.4205C64.224 16.4205 63.4438 15.5406 62.9272 13.4055H62.579V17.0493H63.0096C63.215 16.9231 63.3389 16.8809 63.483 16.8809C63.5877 16.8809 63.6904 16.902 64.1436 17.0072C64.8433 17.1955 65.1747 17.2375 65.6279 17.2375C67.6969 17.2375 69.2046 15.918 69.2046 14.0962C69.2046 12.7147 68.6054 12.0032 66.2952 10.6219C64.7104 9.65981 64.235 9.17722 64.235 8.52856C64.235 7.85908 64.8131 7.41946 65.6982 7.41946C66.9515 7.41946 67.6132 8.13127 68.0696 10.056H68.468V6.77326H68.1086ZM73.095 2.09106H72.6644L69.3007 3.32419L69.4469 3.70046C69.5907 3.63844 69.7369 3.61629 69.881 3.61629C70.5673 3.61629 70.7938 4.03467 70.7938 5.3519V16.0641C72.3763 16.943 73.2826 17.2353 74.5011 17.2353C77.453 17.2353 79.6325 14.8089 79.6325 11.504C79.6325 8.70247 78.1528 6.64923 76.1315 6.64923C74.9542 6.64923 74.0683 7.21486 73.095 8.59728V2.09106ZM73.095 9.35001C73.6953 8.74325 74.1921 8.49321 74.8114 8.49321C76.2979 8.49321 77.3091 10.1026 77.3091 12.4249C77.3091 14.7668 76.3581 16.3984 74.9542 16.3984C74.336 16.3984 73.8382 16.1683 73.095 15.5196V9.35001ZM83.7082 2.09106H83.2328L79.9005 3.34635L80.0029 3.70046C80.3344 3.63844 80.4349 3.61854 80.5788 3.61854C81.158 3.61854 81.3824 4.11884 81.3824 5.35415V14.851C81.3824 16.0841 81.0756 16.5224 80.1292 16.5224V16.9331H84.977V16.5347C84.0207 16.5347 83.7082 16.1161 83.7082 14.8597V2.09106ZM91.0492 15.8439C91.0492 16.808 91.1742 16.9331 92.1417 16.9331H94.635V16.5347C93.5827 16.5136 93.375 16.1573 93.375 14.4192V9.95867C93.375 7.46828 92.5312 6.65036 89.9735 6.65036C87.593 6.65036 85.8442 7.74048 85.8442 9.22718C85.8442 9.89666 86.2985 10.3571 86.9323 10.3571C87.651 10.3571 87.9824 9.91655 87.9636 8.99569C87.9435 7.82352 88.3798 7.29994 89.4344 7.29994C90.5939 7.29994 91.0492 7.97076 91.0492 9.64549V10.3571C86.7494 11.9069 85.4345 12.9119 85.4345 14.6297C85.4345 16.1217 86.4836 17.2353 87.902 17.2353C88.8964 17.2353 89.393 16.9409 91.0492 15.3868V15.8439ZM91.0492 11.0512V14.6318C90.47 15.2186 89.8483 15.533 89.2691 15.533C88.3798 15.533 87.7369 14.8631 87.7369 13.9201C87.7369 12.894 88.3574 12.2655 90.2413 11.4275L91.0492 11.0512Z" fill="black"/>
<defs>
<clipPath id="clip0_1369_94">
<rect width="118.711" height="12.6495" fill="white" transform="translate(258 51)"/>
</clipPath>
<clipPath id="clip1_1369_94">
<rect width="50.5981" height="22.3799" fill="white" transform="translate(154 44)"/>
</clipPath>
<clipPath id="clip2_1369_94">
<rect width="65.1937" height="17.5147" fill="white" transform="translate(415 1)"/>
</clipPath>
<clipPath id="clip3_1369_94">
<rect width="65.1937" height="22.3799" fill="white" transform="translate(21 48)"/>
</clipPath>
<clipPath id="clip4_1369_94">
<rect width="35.0295" height="38.9216" fill="white" transform="translate(430 38)"/>
</clipPath>
<clipPath id="clip5_1369_94">
<rect width="81" height="16" fill="white" transform="translate(139 3)"/>
</clipPath>
</defs>
</svg>
