<svg width="239" height="28" viewBox="0 0 239 28" fill="none" xmlns="http://www.w3.org/2000/svg">
<g clip-path="url(#clip0_2306_4524)">
<path d="M28.3324 24.2507C28.3324 25.7467 28.5668 25.9233 29.7374 26.2437L30.5073 26.458V27.6193H21.5413V26.458L22.3444 26.2437C23.6147 25.9233 23.7163 25.709 23.7163 24.2507V3.91767C23.7163 2.28033 23.5835 2.10133 22.446 1.53133L21.375 1.032V0.0566667L28.2301 0L28.4645 0.141333C28.4645 0.141333 28.3317 2.099 28.3317 4.48533V24.2503L28.3324 24.2507Z" fill="#1A1A1A"/>
<path d="M37.595 24.2507C37.595 25.7467 37.8294 25.9233 39 26.2437L39.7699 26.458V27.6193H30.8063V26.458L31.6097 26.2437C32.88 25.9233 32.9815 25.709 32.9815 24.2507V3.91767C32.9815 2.28033 32.8487 2.10133 31.7117 1.53133L30.6406 1.032V0.0566667L37.4934 0L37.7278 0.141333C37.7278 0.141333 37.595 2.099 37.595 4.48533V24.2503V24.2507Z" fill="#1A1A1A"/>
<path d="M56.4222 26.4588L56.9245 26.2798C58.0619 25.9241 58.3295 25.5331 59.467 22.1501L66.2889 2.24609H68.8645L75.5868 22.3998C76.5915 25.3188 76.9255 25.9971 77.8946 26.2821L78.5629 26.4611V27.6224H68.1278V26.4611L68.9641 26.2468C70.002 25.9618 70.2672 25.5001 70.2672 24.7508C70.2672 24.1454 69.9996 23.0051 69.7317 22.2231L68.5634 18.3761H61.9075L60.8365 21.7238C60.4029 23.0054 60.2013 23.8958 60.2013 24.6071C60.2013 25.4621 60.5685 25.8888 61.7392 26.2091L62.6087 26.4588V27.6201H56.4219V26.4588H56.4222ZM62.4098 17.0191H67.9416L65.419 7.83376H65.3194L62.4098 17.0191Z" fill="#1A1A1A"/>
<path d="M0 26.4572L0.502314 26.2782C1.63974 25.9225 1.90733 25.5312 3.04476 22.1485L9.86634 2.24219H12.442L19.164 22.3962C20.1686 25.3152 20.5026 25.9935 21.4717 26.2785L22.14 26.4575V27.6189H11.7049V26.4575L12.5413 26.2432C13.5791 25.9582 13.8447 25.4965 13.8447 24.7472C13.8447 24.1415 13.5768 23.0015 13.3092 22.2192L12.1409 18.3745H5.48495L4.41392 21.7199C3.98033 23.0015 3.77881 23.8919 3.77881 24.6035C3.77881 25.4585 4.146 25.8852 5.31663 26.2055L6.18613 26.4552V27.6165H0V26.4575V26.4572ZM5.9876 17.0175H11.5194L8.99683 7.83219H8.89724L5.9876 17.0175Z" fill="#1A1A1A"/>
<path d="M84.6898 24.2507C84.6898 25.888 84.7894 25.961 85.8936 26.2813L86.6303 26.4603V27.6217H77.9343V26.4603L78.7374 26.246C79.9744 25.9257 80.0405 25.7843 80.0405 24.253V3.847C80.0405 2.28033 79.9741 2.10133 78.8367 1.53133L77.7656 1.032V0.0566667L84.5895 0L84.8242 0.141333C84.8242 0.141333 84.6914 2.099 84.6914 4.48533V24.2503H84.6891L84.6898 24.2507ZM84.7163 18.0523V17.8027L88.4291 13.388C89.8341 11.7507 90.1684 10.825 90.1684 10.4313C90.1684 9.826 89.7348 9.435 88.8298 9.14967L88.3275 9.00833V8.066H95.1494V9.00833L94.6494 9.18733C93.4456 9.543 92.7421 9.97167 91.5383 11.324L88.3033 15.369C90.0426 18.8227 92.6757 23.0747 94.4811 25.3177C94.9502 25.923 95.1826 26.1373 95.7842 26.3497L96.1514 26.4557V27.617H90.2325C87.9932 24.8063 86.2538 21.115 84.716 18.0527L84.7163 18.0523Z" fill="#1A1A1A"/>
<path d="M97.9308 22.7541V10.0421H96.0234V9.68639C98.5327 8.68972 100.606 6.51772 101.608 4.02539H102.577V8.07739H106.892L106.883 9.48139L102.577 9.57106V22.6834C102.577 24.5704 103.146 25.1407 104.786 25.1407C105.689 25.1407 106.558 24.9264 107.127 24.7144V25.6474C106.324 26.5731 104.753 27.7841 102.345 27.7841C99.4357 27.7841 97.9311 25.9231 97.9311 22.7544L97.9308 22.7541Z" fill="#1A1A1A"/>
<path d="M108.129 26.4578L108.932 26.2434C110.169 25.9231 110.238 25.7818 110.238 24.3211V12.0358C110.238 10.6481 110.105 10.5044 109.001 9.82845L108.062 9.18778V8.06645L114.785 8.08278L115.02 8.18878C114.92 9.22078 114.887 10.4668 114.887 12.4974V24.3188C114.887 25.7794 114.986 25.9208 116.225 26.2411L116.995 26.4554V27.6168H108.131V26.4578H108.129H108.129ZM112.411 0.925781C113.816 0.925781 114.887 1.95778 114.887 3.45345C114.887 4.94911 113.816 5.94578 112.411 5.94578C111.006 5.94578 109.935 4.94945 109.935 3.45345C109.935 1.95745 111.006 0.925781 112.411 0.925781Z" fill="#1A1A1A"/>
<path d="M117.094 17.8754C117.094 11.7151 121.207 8.01172 125.621 8.01172C130.035 8.01172 132.88 10.5041 132.912 16.5231H121.776C121.776 22.7894 123.849 24.8201 127.596 24.8201C129.535 24.8201 131.074 24.3207 132.38 23.5737V24.5797C131.209 26.1107 128.868 27.8191 125.69 27.8191C119.837 27.8191 117.094 23.8214 117.094 17.8754ZM121.776 15.3691L128.299 15.4184C128.299 10.6101 127.577 9.00839 125.47 9.00839C123.364 9.00839 121.91 10.3134 121.776 15.3691Z" fill="#1A1A1A"/>
<path d="M39.6488 17.8754C39.6488 11.7151 43.7622 8.01172 48.1765 8.01172C52.5907 8.01172 55.434 10.5041 55.4675 16.5231H44.3309C44.3309 22.7894 46.4043 24.8201 50.1502 24.8201C52.0908 24.8201 53.6286 24.3207 54.934 23.5737V24.5797C53.7634 26.1107 51.4224 27.8191 48.2449 27.8191C42.3924 27.8191 39.6484 23.8214 39.6484 17.8754H39.6488ZM44.3306 15.3691L50.8537 15.4184C50.8537 10.6101 50.1323 9.00839 48.0258 9.00839C45.9192 9.00839 44.4654 10.3134 44.3306 15.3691Z" fill="#1A1A1A"/>
<path d="M133.438 26.4571L134.241 26.2427C135.477 25.9224 135.546 25.7811 135.546 24.3204V12.0351C135.546 10.6097 135.413 10.5037 134.342 9.82772L133.44 9.22239V8.90205L139.895 8.08239L140.128 8.18839L140.096 10.6101H140.162C141.868 9.32838 144.142 8.01172 146.483 8.01172C149.426 8.01172 150.864 9.57838 150.864 12.7821V24.3184C150.864 25.8144 150.964 25.9204 152.168 26.2407L153.004 26.4551V27.6237H144.242V26.4551L145.012 26.2761C146.116 25.9911 146.215 25.8851 146.215 24.3184V13.6701C146.215 11.3921 145.514 10.6427 143.841 10.6427C142.168 10.6427 140.887 11.3117 140.085 11.5967L140.194 24.3181C140.194 25.8847 140.294 25.9907 141.399 26.2757L142.202 26.4547V27.6234H133.44V26.4574H133.438V26.4571Z" fill="#1A1A1A"/>
<path d="M20.3382 25.2874C20.3382 25.2874 20.8097 26.206 21.9159 26.206C23.0221 26.206 23.7283 25.7844 23.7084 24.5827C23.6861 23.379 24.5712 25.499 24.5712 25.499L22.801 26.677H20.9577L19.7031 25.9704L20.3382 25.2874Z" fill="#1A1A1A"/>
<path d="M76.7601 25.2884C76.7601 25.2884 77.2315 26.207 78.3378 26.207C79.444 26.207 80.1501 25.7854 80.1302 24.5837C80.1103 23.3824 80.9931 25.5 80.9931 25.5L79.2229 26.678H77.3796L76.125 25.9714L76.7601 25.2884Z" fill="#1A1A1A"/>
<path d="M28.3382 24.3214C28.3382 24.3214 27.8956 26.206 30.5908 26.206C32.0489 26.206 32.9805 25.7844 32.9517 24.5827C32.9228 23.379 34.0911 25.499 34.0911 25.499L31.7565 26.677H29.3269L27.6719 25.9704L28.3379 24.3214H28.3382Z" fill="#1A1A1A"/>
<path d="M30.3656 26.9192H31.255V26.4102H30.1641L30.3656 26.9192Z" fill="#1A1A1A"/>
<path d="M30.9863 26.6758H29.4375V27.6181H30.9863V26.6758Z" fill="#1A1A1A"/>
<path d="M84.6871 17.2326C84.6871 17.2326 84.7183 17.4399 84.7602 17.4916C84.8551 17.6092 84.8618 17.5436 85.2535 17.1642C85.6453 16.7849 85.2027 17.7272 85.2027 17.7272L84.5391 17.9629L84.6871 17.2326Z" fill="#1A1A1A"/>
<path d="M84.6871 18.7421C84.6871 18.7421 84.7183 18.5347 84.7602 18.4827C84.8551 18.3651 84.8618 18.4311 85.2535 18.8104C85.6453 19.1897 85.2027 18.2474 85.2027 18.2474L84.5391 18.0117L84.6871 18.7421Z" fill="#1A1A1A"/>
<path d="M84.9816 17.7246H84.5391V18.1956H84.9816V17.7246Z" fill="#1A1A1A"/>
</g>
<path d="M160.18 27.7115V14H162.276V27.7115H160.18Z" fill="#1A1A1A"/>
<path d="M173.442 20.9233V27.7117H171.574V21.4407C171.574 20.1367 171.003 19.2551 169.592 19.2551C167.991 19.2551 166.962 20.2331 166.962 21.7098V27.7124H165.094V17.9324H166.962V19.1594H167C167.514 18.4117 168.525 17.6445 170.202 17.6445C171.994 17.6445 173.442 18.6801 173.442 20.924V20.9233Z" fill="#1A1A1A"/>
<path d="M178.399 27.7117L174.93 17.9316H176.931L179.485 25.7751H179.505L182.021 17.9316H183.965L180.496 27.7117H178.399H178.399Z" fill="#1A1A1A"/>
<path d="M194.318 23.3203H186.847C186.885 24.9503 187.838 26.4659 189.763 26.4659C191.478 26.4659 192.145 25.3533 192.317 24.7013H194.223C193.708 26.581 192.279 28.0002 189.725 28.0002C186.637 28.0002 184.922 25.7945 184.922 22.8029C184.922 19.8113 186.752 17.625 189.725 17.625C192.698 17.625 194.338 19.581 194.338 22.6107C194.338 22.8799 194.338 23.167 194.318 23.3203ZM192.393 21.8436C192.393 20.3093 191.326 19.1593 189.667 19.1593C188.104 19.1593 186.96 20.233 186.846 21.8436H192.393Z" fill="#1A1A1A"/>
<path d="M195.859 24.4505H197.746C197.823 25.5817 198.509 26.464 200.319 26.464C201.959 26.464 202.397 25.735 202.397 25.0255C202.397 23.7985 201.101 23.6639 199.843 23.3955C198.146 22.9925 196.202 22.4937 196.202 20.4614C196.202 18.7739 197.555 17.6426 199.9 17.6426C202.569 17.6426 203.845 19.0812 203.978 20.7687H202.092C201.959 20.021 201.558 19.1582 199.938 19.1582C198.68 19.1582 198.146 19.6562 198.146 20.3852C198.146 21.4013 199.233 21.497 200.605 21.8036C202.397 22.226 204.341 22.7435 204.341 24.9297C204.341 26.8282 202.893 27.9789 200.338 27.9789C197.384 27.9789 195.917 26.4446 195.859 24.4505Z" fill="#1A1A1A"/>
<path d="M210.673 26.1959V27.7108C210.196 27.8065 209.891 27.8259 209.491 27.8259C207.89 27.8259 206.918 27.2121 206.918 24.9495V19.4838H205.508V17.9307H206.918V14.7852H208.786V17.9307H210.654V19.4838H208.786V25.0071C208.786 26.0426 209.072 26.2729 209.872 26.2729C210.196 26.2729 210.349 26.2542 210.673 26.1959Z" fill="#1A1A1A"/>
<path d="M212.078 22.8216C212.078 19.7724 213.908 17.625 216.958 17.625C220.008 17.625 221.799 19.7537 221.799 22.8029C221.799 25.852 219.97 28.0002 216.939 28.0002C213.909 28.0002 212.079 25.8902 212.079 22.8223L212.078 22.8216ZM219.855 22.8216C219.855 20.7699 218.94 19.1974 216.958 19.1974C214.976 19.1974 214.023 20.7699 214.023 22.8216C214.023 24.8733 214.938 26.4465 216.958 26.4465C218.979 26.4465 219.855 24.8546 219.855 22.8216Z" fill="#1A1A1A"/>
<path d="M229.382 17.7587V19.5615C229.153 19.5233 228.982 19.5039 228.753 19.5039C227.057 19.5039 225.837 20.7885 225.837 22.6488V27.7115H223.969V17.9315H225.837V19.7917H225.875C226.39 18.5647 227.171 17.7012 228.486 17.7012C228.83 17.7012 229.097 17.7206 229.382 17.7587Z" fill="#1A1A1A"/>
<path d="M230.344 24.4505H232.231C232.307 25.5817 232.993 26.464 234.803 26.464C236.443 26.464 236.881 25.735 236.881 25.0255C236.881 23.7985 235.585 23.6639 234.327 23.3955C232.63 22.9925 230.686 22.4937 230.686 20.4614C230.686 18.7739 232.04 17.6426 234.384 17.6426C237.053 17.6426 238.33 19.0812 238.463 20.7687H236.576C236.443 20.021 236.042 19.1582 234.422 19.1582C233.164 19.1582 232.63 19.6562 232.63 20.3852C232.63 21.4013 233.717 21.497 235.09 21.8036C236.881 22.226 238.825 22.7435 238.825 24.9297C238.825 26.8282 237.377 27.9789 234.823 27.9789C231.869 27.9789 230.401 26.4446 230.344 24.4505Z" fill="#1A1A1A"/>
<defs>
<clipPath id="clip0_2306_4524">
<rect width="153" height="28" fill="white"/>
</clipPath>
</defs>
</svg>
