<svg width="1553" height="40" viewBox="0 0 1553 40" fill="none" xmlns="http://www.w3.org/2000/svg">
<g clip-path="url(#clip0_1369_94)">
<path fill-rule="evenodd" clip-rule="evenodd" d="M1383.93 25.5791H1382.95V22.9968C1383.14 22.6304 1383.36 22.2815 1383.57 21.95L1385.67 25.5791H1384.83V26.277H1389.09V25.5791H1388.22L1385.04 20.0831C1385.37 19.7341 1385.72 19.4201 1386.05 19.1758C1386.3 19.6992 1386.91 20.118 1387.52 20.118C1388.23 20.118 1388.81 19.6469 1388.81 19.0711C1388.81 18.4081 1388.25 17.9719 1387.43 17.9719C1385.78 17.9719 1384 20.1878 1382.95 22.0023V13.8892H1382.84L1379.54 14.936V15.3897C1380.38 15.5467 1380.62 15.8607 1380.62 16.4889V25.5791H1379.63V26.277H1383.93V25.5791ZM1374.27 21.4789C1374.27 20.0656 1374.92 18.5826 1376.05 18.5826C1376.92 18.5826 1377.3 19.5247 1377.3 20.3099C1377.3 20.8508 1377.01 21.0078 1376.39 21.1299L1374.27 21.4789ZM1376.01 26.4514C1377.62 26.4514 1378.9 25.5616 1379.54 24.1484L1379.18 23.8866C1378.59 24.6718 1377.86 24.9858 1377.03 24.9858C1375.67 24.9858 1374.52 23.9913 1374.31 22.1419L1379.47 21.3393C1379.47 19.3852 1378.29 17.9719 1376.14 17.9719C1374.13 17.9719 1372.25 19.8039 1372.25 22.4385C1372.25 24.7241 1373.79 26.4514 1376.01 26.4514ZM1368.38 18.5826C1367.25 18.5826 1366.6 20.0656 1366.6 21.4789L1368.72 21.1299C1369.35 21.0078 1369.63 20.8508 1369.63 20.3099C1369.63 19.5247 1369.26 18.5826 1368.38 18.5826ZM1371.87 24.1484C1371.23 25.5616 1369.96 26.4514 1368.34 26.4514C1366.12 26.4514 1364.58 24.7241 1364.58 22.4385C1364.58 19.8039 1366.46 17.9719 1368.47 17.9719C1370.62 17.9719 1371.8 19.3852 1371.8 21.3393L1366.64 22.1419C1366.86 23.9913 1368 24.9858 1369.36 24.9858C1370.19 24.9858 1370.92 24.6718 1371.51 23.8866L1371.87 24.1484ZM1359.11 16.1225H1357.57L1355.49 23.119L1353.38 15.5118H1354.83V14.7615H1349.72V15.5118H1350.83L1354.04 26.3468H1355.33L1357.63 18.8443L1360.1 26.3468H1361.39L1364.4 16.0876C1364.54 15.6339 1364.78 15.5118 1365.71 15.5118V14.7615H1361.98V15.5118H1362.82C1363.52 15.5118 1363.56 15.8084 1363.45 16.1748L1361.44 23.2585L1359.11 16.1225ZM1345.51 16.2795L1347.72 15.5816H1347.84V18.1464H1349.83V18.8617H1347.84V24.3403C1347.84 24.9684 1348.29 25.2476 1348.83 25.2476C1349.29 25.2476 1349.67 25.0207 1350.05 24.6194L1350.41 25.0556C1349.87 25.8408 1348.97 26.4514 1347.72 26.4514C1346.57 26.4514 1345.51 25.7884 1345.51 24.445V18.8617H1344.31V18.1464H1345.51V16.2795ZM1344.64 25.5791H1343.66V20.6763C1343.66 18.9839 1342.8 17.9719 1341.25 17.9719C1339.96 17.9719 1339.03 18.8966 1338.57 19.6469C1338.57 19.1234 1338.44 18.4081 1338.21 17.9719H1338.12L1335.27 18.8966V19.3503C1336.08 19.4898 1336.24 19.8214 1336.24 20.3273V25.5791H1335.25V26.277H1339.44V25.5791H1338.57V20.1005C1338.93 19.6469 1339.43 19.3852 1340.07 19.3852C1340.97 19.3852 1341.33 20.0133 1341.33 20.8159V25.5791H1340.45V26.277H1344.64V25.5791ZM1331.56 18.5826C1330.43 18.5826 1329.78 20.0656 1329.78 21.4789L1331.9 21.1299C1332.53 21.0078 1332.81 20.8508 1332.81 20.3099C1332.81 19.5247 1332.44 18.5826 1331.56 18.5826ZM1335.05 24.1484C1334.41 25.5616 1333.13 26.4514 1331.52 26.4514C1329.3 26.4514 1327.76 24.7241 1327.76 22.4385C1327.76 19.8039 1329.64 17.9719 1331.65 17.9719C1333.8 17.9719 1334.98 19.3852 1334.98 21.3393L1329.82 22.1419C1330.03 23.9913 1331.18 24.9858 1332.54 24.9858C1333.37 24.9858 1334.1 24.6718 1334.69 23.8866L1335.05 24.1484ZM1324.26 17.9719C1323.01 17.9719 1321.97 18.949 1321.51 19.7167C1321.24 18.6175 1320.45 17.9719 1319.27 17.9719C1317.99 17.9719 1317.06 18.8966 1316.6 19.6469C1316.6 19.1234 1316.47 18.4081 1316.24 17.9719H1316.15L1313.3 18.8966V19.3503C1314.1 19.4898 1314.27 19.8214 1314.27 20.3273V25.5791H1313.28V26.277H1317.46V25.5791H1316.6V20.1005C1316.95 19.6469 1317.42 19.3852 1318.05 19.3852C1318.91 19.3852 1319.27 20.0133 1319.27 20.7635V25.5791H1318.39V26.277H1322.45V25.5791H1321.59V20.1005C1321.95 19.6469 1322.4 19.3852 1323.05 19.3852C1323.91 19.3852 1324.26 20.0133 1324.26 20.7635V25.5791H1323.39V26.277H1327.58V25.5791H1326.59V20.6763C1326.59 18.9839 1325.77 17.9719 1324.26 17.9719ZM1308.69 16.2795L1310.9 15.5816H1311.02V18.1464H1313.01V18.8617H1311.02V24.3403C1311.02 24.9684 1311.47 25.2476 1312.01 25.2476C1312.47 25.2476 1312.85 25.0207 1313.23 24.6194L1313.58 25.0556C1313.05 25.8408 1312.15 26.4514 1310.9 26.4514C1309.75 26.4514 1308.69 25.7884 1308.69 24.445V18.8617H1307.49V18.1464H1308.69V16.2795ZM1303.15 25.5442C1303.08 24.3577 1302.53 23.7645 1301.9 23.7645C1301.38 23.7645 1301.04 24.1309 1301.04 24.6892C1301.04 25.8059 1302.54 26.4514 1304.1 26.4514C1306.2 26.4514 1307.58 25.1603 1307.58 23.6424C1307.58 21.9251 1306.07 21.4335 1304.78 21.0156C1303.83 20.7077 1303.01 20.4403 1303.01 19.7516C1303.01 19.0711 1303.67 18.6524 1304.55 18.6524C1304.77 18.6524 1304.93 18.6698 1305.09 18.7396C1305.2 19.7516 1305.72 20.2052 1306.34 20.2052C1306.88 20.2052 1307.2 19.8737 1307.2 19.3852C1307.2 18.4255 1305.84 17.9719 1304.69 17.9719C1302.85 17.9719 1301.36 19.106 1301.36 20.6763C1301.36 22.2474 1302.74 22.695 1303.97 23.0954C1304.97 23.4204 1305.88 23.7139 1305.88 24.5497C1305.88 25.3697 1305.14 25.7535 1304.19 25.7535C1303.8 25.7535 1303.42 25.6838 1303.15 25.5442ZM1297.4 18.5826C1296.27 18.5826 1295.63 20.0656 1295.63 21.4789L1297.74 21.1299C1298.37 21.0078 1298.65 20.8508 1298.65 20.3099C1298.65 19.5247 1298.28 18.5826 1297.4 18.5826ZM1300.89 24.1484C1300.25 25.5616 1298.98 26.4514 1297.36 26.4514C1295.14 26.4514 1293.6 24.7241 1293.6 22.4385C1293.6 19.8039 1295.48 17.9719 1297.49 17.9719C1299.64 17.9719 1300.82 19.3852 1300.82 21.3393L1295.66 22.1419C1295.88 23.9913 1297.02 24.9858 1298.39 24.9858C1299.21 24.9858 1299.94 24.6718 1300.54 23.8866L1300.89 24.1484ZM1291.86 19.5247L1290.12 23.8343L1288.15 18.8617H1289.35V18.1464H1284.9V18.8617H1285.68L1288.86 26.277H1289.81L1292.75 19.4375C1292.93 18.9839 1293.11 18.8617 1293.76 18.8617V18.1464H1290.8V18.8617H1291.48C1291.91 18.8617 1292 19.1409 1291.86 19.5247ZM1284.53 25.5791H1285.51V26.277H1281.32V25.5791H1282.2V20.8159C1282.2 20.0133 1281.84 19.3852 1280.94 19.3852C1280.3 19.3852 1279.8 19.6469 1279.44 20.1005V25.5791H1280.32V26.277H1276.12V25.5791H1277.11V20.3273C1277.11 19.8214 1276.95 19.4898 1276.14 19.3503V18.8966L1278.99 17.9719H1279.08C1279.31 18.4081 1279.44 19.1234 1279.44 19.6469C1279.9 18.8966 1280.84 17.9719 1282.13 17.9719C1283.67 17.9719 1284.53 18.9839 1284.53 20.6763V25.5791ZM1272.13 15.5118V25.5267H1270.82V26.277H1275.85V25.5267H1274.55V15.5118H1275.85V14.7615H1270.82V15.5118H1272.13Z" fill="black"/>
</g>
<g clip-path="url(#clip1_1369_94)">
<path d="M1130.43 9.4082V31.0208H1134.15V16.9673H1138.31V31.0208H1142.04V15.598C1142.04 14.4198 1141.13 13.5998 1140.09 13.5998H1134.15V9.4082H1130.43ZM1106.84 13.5997C1105.77 13.5997 1104.89 14.5512 1104.89 15.7948V19.3646L1108.53 18.8393V16.9764H1112.86V20.4602H1106.84C1105.79 20.4602 1104.89 21.3094 1104.89 22.4876V28.8598C1104.89 30.0711 1105.77 31.0206 1106.84 31.0206H1114.58C1115.65 31.0206 1116.5 30.071 1116.5 28.7461V15.6779C1116.5 14.5512 1115.65 13.5997 1114.58 13.5997H1106.84ZM1094.07 13.5998C1092.99 13.5998 1092.12 14.5514 1092.12 15.7977V28.86C1092.12 30.0712 1092.99 31.0208 1094.07 31.0208H1101.81C1102.88 31.0208 1103.73 30.0712 1103.73 28.86V25.1415L1100.04 25.6668V27.644H1095.82V16.9673H1100.04V18.8394L1103.73 19.3647V15.7977C1103.73 14.5514 1102.88 13.5998 1101.81 13.5998H1094.07ZM1119.61 13.5998C1118.53 13.5998 1117.66 14.5514 1117.66 15.7977V21.6717C1117.66 22.8803 1118.53 23.8305 1119.61 23.8305H1125.57V27.65H1121.36V25.6668L1117.66 25.1415V28.86C1117.66 30.0712 1118.53 31.0208 1119.61 31.0208H1127.35C1128.42 31.0208 1129.26 30.0712 1129.26 28.86V22.6489C1129.26 21.4026 1128.42 20.4518 1127.35 20.4518H1121.36V16.9758H1125.57V18.8394L1129.26 19.3647V15.7977C1129.26 14.5514 1128.42 13.5998 1127.35 13.5998H1119.61ZM1108.53 23.8304H1112.86V27.6498H1108.53V23.8304Z" fill="black"/>
</g>
<g clip-path="url(#clip2_1369_94)">
<path d="M760.87 28.1225V15.166H756.164V11.373H769.7V15.166H765.005V28.1225H760.87Z" fill="black"/>
<path d="M747.443 28.1225V11.373H751.578V24.329H758.412V28.1225H747.443Z" fill="black"/>
<path d="M737.621 11.0098C732.793 11.0098 729.549 14.5418 729.549 19.7986C729.549 24.9944 732.879 28.4852 737.836 28.4852C740.649 28.4852 742.775 27.7138 744.528 26.0575L744.58 26.0087L742.046 23.1521L741.994 23.1971C740.858 24.1823 739.506 24.7027 738.084 24.7027C735.912 24.7027 734.512 23.5604 734.036 21.3986L734.017 21.3024L745.287 21.3018C745.29 21.28 745.293 21.264 745.297 21.2353C745.347 20.8591 745.38 20.2445 745.38 19.7298C745.363 14.5141 742.245 11.0098 737.621 11.0098ZM734.03 18.1251L734.05 18.0297C734.492 15.9152 735.682 14.8433 737.588 14.8433C739.387 14.8433 740.571 15.9448 741.011 18.0292L741.031 18.1251H734.03Z" fill="black"/>
<path d="M720.03 28.1222L717.021 17.5277L714.011 28.1222H709.077L704.508 11.3728H708.776L711.733 23.1372L714.838 11.3728H719.26L722.366 23.1609L725.324 11.3728H729.533L724.965 28.1222H720.03Z" fill="black"/>
</g>
<g clip-path="url(#clip3_1369_94)">
<path fill-rule="evenodd" clip-rule="evenodd" d="M903.196 31.4041H904.713V22.4521H903.196V31.4041ZM908.755 31.2698H910.114V25.6217L915.831 31.4041V22.5864H914.476V28.138L908.755 22.4521V31.2698ZM918.932 29.1018C919.671 29.7382 920.558 30.1061 921.51 30.1061C922.436 30.1061 923.086 29.7536 923.086 28.9752C923.086 28.2968 922.672 28.031 921.946 27.7338L920.77 27.2827C919.687 26.8575 918.863 26.2364 918.863 24.809C918.863 23.2823 920.11 22.4521 921.602 22.4521C922.516 22.4521 923.349 22.706 924 23.1557V24.6698C923.323 24.1173 922.583 23.7369 921.631 23.7369C920.812 23.7369 920.2 24.0747 920.2 24.7789C920.2 25.4154 920.584 25.6699 921.261 25.9259L922.571 26.4337C923.84 26.9267 924.422 27.6911 924.422 28.9486C924.422 30.5306 923.162 31.4041 921.51 31.4041C920.424 31.4041 919.5 31.0684 918.932 30.6446V29.1018ZM927.96 31.4041H929.476V22.4521H927.96V31.4041ZM936.588 30.0494C938.297 30.0494 939.21 28.8381 939.21 26.926C939.21 24.9999 938.296 23.7928 936.588 23.7928H934.898V30.0494H936.588ZM933.518 22.4521H936.639C939.041 22.4521 940.594 24.2006 940.594 26.926C940.594 29.6536 939.041 31.4041 936.639 31.4041H933.518V22.4521ZM948.175 22.4521V23.7928H944.506V25.9469H947.797V27.2722H944.505V30.0494H948.175V31.4041H943.121V22.4521H948.175ZM953.557 26.5057H955.061C955.952 26.5057 956.454 25.9658 956.454 25.1356C956.454 24.3055 955.952 23.7649 955.061 23.7649H953.557V26.5057ZM953.557 27.7716V31.4041H952.218V22.4521H955.086C956.722 22.4521 957.78 23.383 957.78 25.1356C957.78 26.6344 957.193 27.4953 955.942 27.7163L958.788 31.4041H957.265L954.509 27.7723H953.557L953.557 27.7716ZM902.666 13.633C903.259 13.3932 903.721 12.6735 903.721 11.6839C903.721 10.0348 902.666 9.18013 900.978 9.18013H898.143V18.386H901.241C902.93 18.386 903.985 17.4712 903.985 15.7472C903.985 14.7723 903.431 13.9177 902.666 13.633ZM899.474 13.0484V10.5299H900.966C901.902 10.5299 902.403 10.9048 902.403 11.7741C902.403 12.6434 901.902 13.0484 900.966 13.0484H899.474ZM899.474 14.338H901.215C902.139 14.338 902.64 14.8471 902.64 15.6871C902.64 16.5117 902.138 17.0369 901.216 17.0369H899.475V14.3373L899.474 14.338ZM910.172 18.5356C912.11 18.5356 913.416 17.246 913.416 14.7276V9.18013H912.045V14.5471C912.045 16.3165 911.385 17.1418 910.172 17.1418C908.958 17.1418 908.3 16.3165 908.3 14.5471V9.18013H906.928V14.7122C906.928 17.246 908.246 18.5356 910.172 18.5356ZM916.646 17.7258C917.213 18.1762 918.136 18.5356 919.217 18.5356C920.866 18.5356 922.119 17.6055 922.119 15.927C922.119 14.5926 921.539 13.7827 920.272 13.2582L918.967 12.7183C918.294 12.449 917.912 12.179 917.912 11.5041C917.912 10.7544 918.518 10.3949 919.336 10.3949C920.286 10.3949 921.024 10.7992 921.697 11.3846V9.77949C921.051 9.30042 920.22 9.03046 919.31 9.03046C917.82 9.03046 916.58 9.91517 916.58 11.5342C916.58 13.0484 917.398 13.7079 918.479 14.1576L919.653 14.6373C920.378 14.9521 920.787 15.2374 920.787 15.9571C920.787 16.7816 920.141 17.1565 919.217 17.1565C918.268 17.1565 917.384 16.7662 916.646 16.092V17.7258ZM927.02 9.18013H925.649V18.3853H927.02V9.18013ZM930.932 18.3741H932.254V12.3854L937.816 18.5168V9.16614H936.499V15.0528L930.932 9.02417V18.3741ZM946.387 9.18223V10.5607H942.826V12.7763H946.019V14.1394H942.826V16.9949H946.387V18.3881H941.482V9.18223H946.387ZM949.58 17.7195C950.148 18.1699 951.07 18.5293 952.152 18.5293C953.8 18.5293 955.054 17.5999 955.054 15.9207C955.054 14.5863 954.473 13.7771 953.207 13.2519L951.901 12.7127C951.229 12.4427 950.846 12.1727 950.846 11.4979C950.846 10.7481 951.453 10.3886 952.27 10.3886C953.22 10.3886 953.959 10.7936 954.631 11.3783V9.7739C953.985 9.29413 953.154 9.02417 952.244 9.02417C950.754 9.02417 949.514 9.90888 949.514 11.5279C949.514 13.0421 950.332 13.7016 951.413 14.1513L952.587 14.631C953.312 14.9458 953.721 15.2311 953.721 15.9508C953.721 16.7753 953.076 17.1502 952.151 17.1502C951.202 17.1502 950.318 16.7606 949.58 16.0857V17.7195ZM957.863 17.7195C958.43 18.1699 959.354 18.5293 960.435 18.5293C962.084 18.5293 963.336 17.5999 963.336 15.9207C963.336 14.5863 962.756 13.7771 961.49 13.2519L960.184 12.7127C959.512 12.4427 959.129 12.1727 959.129 11.4979C959.129 10.7481 959.736 10.3886 960.553 10.3886C961.503 10.3886 962.242 10.7936 962.914 11.3783V9.7739C962.269 9.29413 961.437 9.02417 960.527 9.02417C959.037 9.02417 957.797 9.90888 957.797 11.5279C957.797 13.0421 958.615 13.7016 959.696 14.1513L960.87 14.631C961.596 14.9458 962.005 15.2311 962.005 15.9508C962.005 16.7753 961.358 17.1502 960.435 17.1502C959.485 17.1502 958.602 16.7606 957.863 16.0857V17.7195Z" fill="black"/>
</g>
<path d="M451.327 20.0867H444.705V26.7224H451.327V20.0867Z" fill="black"/>
<path d="M451.327 12.27H444.705V18.9058H451.327V12.27Z" fill="black"/>
<path d="M571.786 20.5936H573.338C573.338 20.0461 573.36 19.0825 573.273 18.4912C573.207 18.0532 573.032 17.6809 572.573 17.6809C572.18 17.6809 571.939 17.8999 571.852 18.2941C571.743 18.7978 571.765 19.7614 571.765 20.3965V20.5936H571.786ZM571.786 22.9807C571.786 24.3604 572.486 24.8641 573.513 24.8641C574.147 24.8641 575.196 24.4699 575.698 23.8567V25.9591C575.239 26.419 573.972 27.0322 572.486 27.0322C570.606 27.0322 569.164 25.762 569.011 23.4844C568.902 22.1266 568.792 19.6957 569.142 18.316C569.514 16.5859 570.606 15.7537 572.53 15.7537C574.212 15.7537 575.327 16.5859 575.677 18.316C575.851 19.2358 575.764 21.601 575.764 22.2142V22.3018H571.765V22.9807H571.786Z" fill="black"/>
<path d="M543.239 26.8334H540.747L538.999 18.8837L537.272 26.8334H534.759L532.377 12.3574H535.568V12.4669L536.77 21.0737L538.409 12.3574H540.682L542.299 21.0737L543.523 12.3574H545.686L543.239 26.8334Z" fill="black"/>
<path d="M549.023 27.0533C547.099 27.0533 545.941 26.2649 545.482 24.6005C545.242 23.7683 545.154 22.6076 545.154 21.425C545.154 20.2643 545.22 19.1255 545.482 18.2714C545.963 16.5851 547.165 15.731 549.023 15.731C550.815 15.731 552.104 16.5632 552.541 18.2714C552.76 19.0598 552.803 20.1548 552.803 21.425C552.803 22.6952 552.738 23.7902 552.541 24.6005C552.082 26.2868 550.902 27.0533 549.023 27.0533ZM549.897 21.425C549.897 19.9577 549.831 19.1255 549.787 18.797C549.678 18.0743 549.46 17.8334 548.979 17.8334C548.52 17.8334 548.323 18.0743 548.192 18.797C548.127 19.1255 548.083 19.9577 548.083 21.425C548.083 22.8923 548.148 23.7245 548.192 24.053C548.301 24.7757 548.52 25.0166 549.001 25.0166C549.46 25.0166 549.656 24.7757 549.787 24.053C549.831 23.7464 549.897 22.9142 549.897 21.425Z" fill="black"/>
<path d="M559.98 16.4975V19.9577H558.406L558.035 17.921C557.904 17.8334 557.642 17.8115 557.554 17.8115C556.811 17.8115 556.593 18.2933 556.549 18.9941C556.483 20.0453 556.461 22.1696 556.549 23.177C556.636 24.3377 557.095 24.8633 558.013 24.8633C558.712 24.8633 559.455 24.4253 560.089 23.6807V25.8926C559.63 26.3525 558.625 27.0095 557.204 27.0095C555.216 27.0095 553.926 25.6955 553.708 23.7245C553.577 22.2572 553.577 20.7242 553.708 19.2131C553.948 16.9136 555.238 15.731 557.226 15.731C558.166 15.731 559.171 16.0595 559.98 16.4975Z" fill="black"/>
<path d="M568.125 26.8343H565.218V18.6437C565.218 18.14 564.934 17.8333 564.497 17.8333C564.235 17.8333 563.994 17.921 563.776 18.0743V26.8343H560.869V12.6868L563.776 11.9641V16.4317C564.366 15.9937 565 15.7309 565.83 15.7309C567.447 15.7309 568.125 16.8259 568.125 18.5123V26.8343Z" fill="black"/>
<path d="M470.403 12.3137H467.496V14.7227H470.403V12.3137Z" fill="black"/>
<path d="M497.091 16.4765V19.9367H495.517L495.146 17.9219C495.015 17.8343 494.752 17.8124 494.665 17.8124C493.922 17.8124 493.703 18.2942 493.66 18.995C493.594 20.0462 493.572 22.1705 493.66 23.1779C493.747 24.3386 494.206 24.8423 495.124 24.8423C495.823 24.8423 496.566 24.4043 497.2 23.6597V25.8716C496.741 26.3315 495.736 26.9885 494.315 26.9885C492.327 26.9885 491.037 25.6964 490.841 23.7035C490.709 22.2362 490.709 20.5937 490.841 19.0826C491.081 16.7831 492.37 15.71 494.337 15.71C495.277 15.7319 496.282 16.0385 497.091 16.4765Z" fill="black"/>
<path d="M481.857 24.8003C482.25 24.8003 482.709 24.5594 483.081 24.2309V26.1582V26.1801C482.534 26.5743 481.638 26.9247 480.698 26.9247C479.322 26.9247 478.207 26.1144 478.207 24.0776V16.1717L480.851 13.8284H481.114V15.9308H482.84V17.7704H481.114V24.0119C481.092 24.6689 481.442 24.8003 481.857 24.8003Z" fill="black"/>
<path d="M517.324 26.789H514.417V17.81H513.434V15.9703H514.417V15.3133C514.417 13.3204 515.488 12.2473 517.324 12.2473C517.979 12.2473 518.744 12.3568 519.4 12.6196V14.5249C518.963 14.3935 518.548 14.2621 518.22 14.2621C517.477 14.2621 517.171 14.6125 517.171 15.3133V15.9703H519.094V17.81H517.324V26.789Z" fill="black"/>
<path d="M474.43 26.792H471.524V18.7109C471.524 17.6597 471.436 16.7837 471.283 15.9734H473.622L473.949 17.0465C474.693 16.1267 475.414 15.8201 476.288 15.8201C476.681 15.8201 477.118 15.9296 477.49 16.1486V20.1125H475.916L475.654 18.3824C475.108 18.251 474.452 18.3824 474.452 19.3241L474.43 26.792Z" fill="black"/>
<path d="M470.403 15.9492H467.496V26.7898H470.403V15.9492Z" fill="black"/>
<path d="M508.343 27.0761C507.6 27.0761 506.988 26.7914 506.507 26.1563C506.179 25.7183 505.961 24.9956 505.961 23.9444C505.961 22.8494 506.026 22.1267 506.442 21.4916C506.988 20.6594 508.059 20.1995 510.157 20.3966V18.9731C510.157 18.0533 509.72 17.7029 508.933 17.7029C508.715 17.7029 508.474 17.7686 508.299 17.8343L508.037 19.6082H506.42V16.6079C507.207 16.1042 508.43 15.71 509.48 15.71C511.599 15.71 512.933 16.6517 512.933 18.8855V24.0101C512.933 24.8204 513.02 25.6964 513.26 26.66V26.7695H510.9L510.572 25.9154C510.091 26.6381 509.174 27.0761 508.343 27.0761ZM508.649 23.3969C508.649 24.8423 508.933 24.9737 509.37 24.9737C509.654 24.9737 510.179 24.689 510.179 24.0758V21.9734C509.938 21.9077 509.742 21.9077 509.611 21.9077C508.933 21.9296 508.649 22.2143 508.649 23.3969Z" fill="black"/>
<path d="M464.531 26.7897H462.062L460.291 18.84L458.587 26.7897H456.074L453.691 12.3137H456.882V12.4013L458.062 21.03L459.701 12.3137H461.974L463.592 21.03L464.815 12.3137H466.957L464.531 26.7897Z" fill="black"/>
<path d="M527.854 26.9009C527.046 26.9009 525.931 26.6381 525.188 26.1125V23.0465H526.718L527.002 24.8861C527.242 24.9518 527.505 24.9737 527.658 24.9737C528.444 24.9737 528.925 24.5138 528.925 23.9663C528.925 23.1341 528.095 22.7837 526.915 21.9734C525.8 21.2288 525.035 20.1776 525.035 18.8417C525.035 16.9583 526.346 15.71 528.401 15.71C529.45 15.71 530.346 16.0385 531.045 16.4108V19.3892H529.493L529.253 17.7248C528.466 17.5058 527.636 17.7248 527.636 18.6227C527.636 19.3235 528.532 19.7834 529.45 20.3528C530.63 21.0974 531.548 22.0391 531.548 23.7911C531.57 25.4117 530.149 26.9009 527.854 26.9009Z" fill="black"/>
<path d="M486.462 26.9009C485.653 26.9009 484.539 26.6381 483.796 26.1125V23.0465H485.325L485.609 24.8861C485.85 24.9518 486.112 24.9737 486.265 24.9737C487.052 24.9737 487.533 24.5138 487.533 23.9663C487.533 23.1341 486.702 22.7837 485.522 21.9734C484.407 21.2288 483.643 20.1776 483.643 18.8417C483.643 16.9583 484.954 15.71 487.008 15.71C488.057 15.71 488.953 16.0385 489.653 16.4108V19.3892H488.101L487.861 17.7248C487.074 17.5058 486.243 17.7248 486.243 18.6227C486.243 19.3235 487.139 19.7834 488.057 20.3528C489.237 21.0974 490.155 22.0391 490.155 23.7911C490.155 25.4117 488.757 26.9009 486.462 26.9009Z" fill="black"/>
<path d="M505.199 26.7914H502.314V18.6227C502.314 18.119 502.03 17.8124 501.593 17.8124C501.33 17.8124 501.09 17.9 500.871 18.0533V26.7695H497.965V12.6658L500.871 11.9431V16.4107C501.44 15.9727 502.095 15.7099 502.904 15.7099C504.521 15.7099 505.199 16.8049 505.199 18.4694V26.7914Z" fill="black"/>
<path d="M523.318 24.8003C523.711 24.8003 524.17 24.5594 524.542 24.2309V26.1582V26.1801C523.995 26.5743 523.099 26.9247 522.159 26.9247C520.783 26.9247 519.668 26.1144 519.668 24.0776V16.1717L522.312 13.8284H522.575V15.9308H524.301V17.7704H522.575V24.0119C522.575 24.6689 522.902 24.8003 523.318 24.8003Z" fill="black"/>
<g clip-path="url(#clip4_1369_94)">
<path d="M1526.36 8.66846H1524.95V16.7593H1526.36V8.66846Z" fill="black"/>
<path d="M1526.36 20.2368H1524.95V30.0428H1526.36V20.2368Z" fill="black"/>
<path fill-rule="evenodd" clip-rule="evenodd" d="M1517.97 0.266602V39.1882H1553V0.266602H1517.97ZM1529.8 16.647C1529.8 17.4494 1529.15 18.0972 1528.36 18.0972H1528.21C1529.09 18.0965 1529.8 18.8179 1529.8 19.704V32.0236C1529.8 32.8715 1529.13 33.5534 1528.3 33.5554H1521.5L1521.5 5.16326H1528.31C1529.13 5.1646 1529.8 5.84653 1529.8 6.69509V16.647ZM1534.74 33.5648H1531.29V10.1068H1534.74V33.5648ZM1534.74 8.66861H1531.29V5.16259H1534.74V8.66861ZM1539.68 33.5648H1536.23V5.16326H1539.68V33.5648ZM1549.47 33.5641L1542.67 33.5554C1541.85 33.5534 1541.17 32.8715 1541.17 32.0236L1541.18 11.6373C1541.18 10.7887 1541.84 10.1068 1542.67 10.1054H1546.02V5.16192H1549.47V33.5641ZM1544.61 30.042H1546.02V13.5746H1544.61V30.042Z" fill="black"/>
</g>
<g clip-path="url(#clip5_1369_94)">
<path d="M237.125 15.0644H238.894C240.509 15.0644 241.206 15.5639 241.206 16.5795C241.206 17.4619 240.492 18.0613 239.081 18.0613H237.142V15.0644H237.125ZM235 25.0041H239.319C241.58 25.0041 243.858 24.2049 243.858 21.6576C243.858 20.1425 242.77 18.9937 241.274 18.8272V18.7939C242.515 18.4276 243.348 17.5452 243.348 16.2299C243.348 14.0988 241.495 13.283 239.676 13.283H235V25.0041ZM237.125 19.8428H239.166C240.9 19.8428 241.699 20.2757 241.699 21.5077C241.699 23.0561 240.169 23.2393 239.081 23.2393H237.125V19.8428Z" fill="black"/>
<path d="M245.236 13H247.26V25.0042H245.236V13Z" fill="black"/>
<path d="M250.66 21.0249C250.66 19.7762 251.561 18.6441 253.04 18.6441C254.537 18.6441 255.421 19.7929 255.421 21.0249C255.421 22.2736 254.52 23.4058 253.04 23.4058C251.561 23.4224 250.66 22.2736 250.66 21.0249ZM248.637 21.0249C248.637 23.5223 250.592 25.2039 253.057 25.2039C255.506 25.2039 257.478 23.5223 257.478 21.0249C257.478 18.5275 255.523 16.8459 253.057 16.8459C250.592 16.8626 248.637 18.5275 248.637 21.0249Z" fill="black"/>
<path d="M260.419 21.0249C260.419 19.7762 261.32 18.6441 262.8 18.6441C264.296 18.6441 265.18 19.7929 265.18 21.0249C265.18 22.2736 264.279 23.4058 262.8 23.4058C261.303 23.4224 260.419 22.2736 260.419 21.0249ZM258.379 21.0249C258.379 23.5223 260.334 25.2039 262.8 25.2039C265.248 25.2039 267.22 23.5223 267.22 21.0249C267.22 18.5275 265.265 16.8459 262.8 16.8459C260.351 16.8626 258.379 18.5275 258.379 21.0249Z" fill="black"/>
<path d="M268.46 17.0623H270.382V18.311H270.416C270.773 17.5618 271.555 16.8625 272.898 16.8625C274.156 16.8625 275.006 17.3454 275.431 18.3443C276.026 17.3287 276.894 16.8625 278.101 16.8625C280.26 16.8625 281.025 18.3776 281.025 20.2757V25.0207H279.002V20.5087C279.002 19.5098 278.696 18.6607 277.489 18.6607C276.214 18.6607 275.737 19.6929 275.737 20.7085V25.0207H273.714V20.2757C273.714 19.2933 273.306 18.644 272.32 18.644C270.977 18.644 270.467 19.6097 270.467 20.6586V25.0041H268.443V17.0623H268.46Z" fill="black"/>
<path d="M289.424 21.025C289.424 22.2737 288.523 23.4058 287.044 23.4058C285.548 23.4058 284.664 22.257 284.664 21.025C284.664 19.7763 285.565 18.6441 287.044 18.6441C288.523 18.6441 289.424 19.7929 289.424 21.025ZM282.691 25.0042H284.613V23.8054H284.647C285.242 24.7711 286.313 25.204 287.435 25.204C289.934 25.204 291.448 23.3892 291.448 21.025C291.448 18.6774 289.832 16.846 287.52 16.846C285.99 16.846 285.191 17.5453 284.766 18.0614H284.715V13H282.691V25.0042Z" fill="black"/>
<path d="M294.407 20.2424C294.561 19.0936 295.309 18.361 296.499 18.361C297.774 18.361 298.539 19.0936 298.556 20.2424H294.407ZM300.596 21.7242V21.1748C300.596 18.411 299.049 16.8459 296.788 16.8459C294.339 16.8459 292.367 18.5275 292.367 21.0249C292.367 23.5223 294.322 25.2039 296.788 25.2039C298.08 25.2039 299.27 24.7544 300.222 23.6056L298.76 22.5234C298.25 23.1394 297.587 23.6056 296.584 23.6056C295.445 23.6056 294.544 22.8897 294.407 21.7242H300.596Z" fill="black"/>
<path d="M301.922 17.0623H303.945V18.3277H303.979C304.421 17.412 305.322 16.8625 306.377 16.8625C306.632 16.8625 306.87 16.9125 307.108 16.9791V18.8938C306.768 18.8105 306.445 18.7439 306.121 18.7439C304.217 18.7439 303.945 20.3256 303.945 20.7418V25.0041H301.922V17.0623Z" fill="black"/>
<path d="M311.664 18.644C313.143 18.644 314.062 19.6097 314.062 20.9749C314.062 22.3069 313.143 23.3058 311.647 23.3058C310.27 23.3058 309.267 22.2569 309.267 21.0082C309.267 19.6097 310.236 18.644 311.664 18.644ZM314.062 17.0623V18.2611H314.028C313.432 17.2954 312.361 16.8625 311.239 16.8625C308.74 16.8625 307.227 18.694 307.227 21.0415C307.227 23.2892 308.842 25.1206 311.273 25.1206C312.293 25.1206 313.33 24.7377 313.926 23.9552H313.96V24.5379C313.96 26.1196 313.347 27.2018 311.392 27.2018C310.253 27.2018 309.42 26.7855 308.604 26.053L307.38 27.6846C308.536 28.6836 309.896 28.9999 311.409 28.9999C314.572 28.9999 316 27.1851 316 24.3048V17.0623H314.062Z" fill="black"/>
</g>
<path d="M22.0055 22.0588V25.6341C21.4062 26.2196 20.8046 26.533 20.2242 26.533C19.3361 26.533 18.6921 25.8642 18.6921 24.9234C18.6921 23.8985 19.3136 23.272 21.1986 22.4364L22.0055 22.0588ZM103.65 14.4979C102.931 16.8656 101.82 17.9745 100.15 17.9745H98.2094V14.4979H97.7351C97.0955 16.488 95.9863 17.7244 94.3781 18.2469V18.7472H95.8836V25.3109C95.8836 27.3254 96.4985 28.1203 98.0653 28.1203C99.2407 28.1203 100.004 27.5757 100.665 26.2982L100.747 26.172L100.377 25.9618C99.9212 26.5086 99.6111 26.7177 99.2193 26.7177C98.4783 26.7177 98.2094 26.193 98.2094 24.7441V18.7472H101.797V25.3109C101.797 27.3254 102.417 28.1203 103.979 28.1203C105.259 28.1203 106.124 27.4516 106.805 25.9618L106.455 25.7735C106.002 26.4244 105.591 26.7177 105.136 26.7177C104.393 26.7177 104.123 26.193 104.123 24.7441V18.7472H106.455V17.9745H104.123V14.4979H103.65ZM11.8568 20.7572V25.5213C11.8568 27.1161 11.5677 27.4516 10.1415 27.4924V27.9331H16.1231V27.4924C14.639 27.4295 14.4101 27.136 14.4101 25.2057V15.5371C14.4101 13.8859 14.6602 13.6135 16.1231 13.5293V13.0911H10.1415V13.5293C11.5454 13.5936 11.8568 13.9067 11.8568 15.3292V19.8453H5.68738V15.4333C5.68738 13.928 6.01777 13.5715 7.39936 13.5293V13.0911H1.41992V13.5293C2.80269 13.5715 3.13191 13.9479 3.13191 15.4333V25.2267C3.13191 27.136 2.88418 27.4516 1.41992 27.4924V27.9331H7.39936V27.4924C5.97546 27.5347 5.68738 27.1992 5.68738 25.4991V20.7572H11.8568ZM22.0057 26.8428C22.0057 27.808 22.1306 27.9331 23.097 27.9331H25.5835V27.5347C24.5567 27.5136 24.3315 27.1573 24.3315 25.415V20.9454C24.3315 18.4672 23.4878 17.6504 20.9286 17.6504C18.5495 17.6504 16.8007 18.7382 16.8007 20.2171C16.8007 20.8835 17.2537 21.345 17.8898 21.345C18.6085 21.345 18.9389 20.9034 18.9211 19.9901C18.8796 18.8423 19.3541 18.2999 20.3909 18.2999C21.5503 18.2999 22.0057 18.9475 22.0057 20.6332V21.345C17.7259 22.8758 16.3909 23.9052 16.3909 25.6251C16.3909 27.1217 17.4378 28.2353 18.8585 28.2353C19.8517 28.2353 20.3082 27.9628 22.0057 26.3868V26.8428ZM29.5475 20.6178C30.3936 19.6548 31.0776 19.2365 31.8208 19.2365C32.8542 19.2365 33.1857 19.8652 33.1857 21.6825V25.5499C33.1857 27.0586 32.957 27.436 31.9648 27.5201V27.9331H36.7781V27.5347C35.8016 27.5347 35.5093 27.0942 35.5093 25.6462V21.4923C35.5093 18.8402 34.7069 17.647 32.8957 17.647C31.7181 17.647 30.8096 18.2335 29.5475 19.8453V17.6692H29.0957L25.8312 18.8611L25.9551 19.2166C26.1583 19.1546 26.2621 19.1324 26.3637 19.1324C27.0198 19.1324 27.2263 19.5729 27.2263 20.8835V25.7514C27.2263 27.0942 26.9383 27.5136 25.9751 27.5347V27.9331H30.7874V27.5347C29.8155 27.5347 29.5475 27.0942 29.5475 25.5202V20.6178ZM46.3969 13.0911H45.9237L42.6304 14.345L42.752 14.7005L42.8984 14.6584C43.0423 14.5964 43.1047 14.5964 43.2486 14.5964C43.886 14.5964 44.0713 14.9925 44.0713 16.3729V18.4638C43.2667 17.8361 42.752 17.647 41.8872 17.647C39.3516 17.647 37.4188 20.0554 37.4188 23.2167C37.4188 26.1896 38.9421 28.2375 41.1652 28.2375C42.2355 28.2375 42.6516 28.0283 44.0713 26.7963C44.0713 27.8489 44.1749 27.9331 45.1605 27.9331H47.6569V27.5347C46.5622 27.5347 46.3969 27.2213 46.3969 25.2113V13.0911ZM44.0713 25.9638C43.2074 26.5462 42.9174 26.6722 42.4228 26.6722C40.9609 26.6722 39.9275 24.8948 39.9275 22.3023C39.9275 19.916 40.692 18.4427 41.9084 18.4427C43.3713 18.4427 44.0713 19.5165 44.0713 21.738V25.9638ZM56.1206 24.2649C55.3986 25.622 54.5728 26.2272 53.3765 26.2272C51.517 26.2272 50.3007 24.5362 50.1131 21.738H56.471C56.3271 19.0769 55.0059 17.6492 52.7347 17.6492C50.0519 17.6492 48.1512 19.9183 48.1512 23.137C48.1512 26.1852 49.8443 28.2375 52.4032 28.2375C54.4901 28.2375 55.7301 27.0864 56.471 24.4111L56.1206 24.2649ZM50.1345 20.9895C50.3609 19.2861 51.0216 18.4882 52.1767 18.4882C53.2906 18.4882 53.912 19.3294 54.017 20.9895H50.1345ZM60.5511 13.0911H60.078L56.7412 14.3463L56.8462 14.7005C57.1729 14.6384 57.2779 14.6185 57.4242 14.6185C58.0012 14.6185 58.2253 15.1188 58.2253 16.3542V25.851C58.2253 27.0864 57.9163 27.5257 56.9678 27.5257V27.9331H61.8223V27.5347C60.8648 27.5347 60.5511 27.115 60.5511 25.8577V13.0911ZM68.1086 17.7733C67.9235 17.9192 67.7985 17.9812 67.6132 17.9812C67.4481 17.9812 67.3432 17.9613 66.7874 17.8151C66.3532 17.6889 66.0664 17.647 65.7372 17.647C63.8255 17.647 62.5331 18.8378 62.5331 20.641C62.5331 21.9393 62.9204 22.4639 64.8712 23.7414C67.0955 25.209 67.1389 25.2511 67.1389 26.047C67.1323 26.8339 66.4916 27.4205 65.648 27.4205C64.224 27.4205 63.4438 26.5406 62.9272 24.4055H62.579V28.0493H63.0096C63.215 27.9231 63.3389 27.8809 63.483 27.8809C63.5877 27.8809 63.6904 27.902 64.1436 28.0072C64.8433 28.1955 65.1747 28.2375 65.6279 28.2375C67.6969 28.2375 69.2046 26.918 69.2046 25.0962C69.2046 23.7147 68.6054 23.0032 66.2952 21.6219C64.7104 20.6598 64.235 20.1772 64.235 19.5286C64.235 18.8591 64.8131 18.4195 65.6982 18.4195C66.9515 18.4195 67.6132 19.1313 68.0696 21.056H68.468V17.7733H68.1086ZM73.095 13.0911H72.6644L69.3007 14.3242L69.4469 14.7005C69.5907 14.6384 69.7369 14.6163 69.881 14.6163C70.5673 14.6163 70.7938 15.0347 70.7938 16.3519V27.0641C72.3763 27.943 73.2826 28.2353 74.5011 28.2353C77.453 28.2353 79.6325 25.8089 79.6325 22.504C79.6325 19.7025 78.1528 17.6492 76.1315 17.6492C74.9542 17.6492 74.0683 18.2149 73.095 19.5973V13.0911ZM73.095 20.35C73.6953 19.7433 74.1921 19.4932 74.8114 19.4932C76.2979 19.4932 77.3091 21.1026 77.3091 23.4249C77.3091 25.7668 76.3581 27.3984 74.9542 27.3984C74.336 27.3984 73.8382 27.1683 73.095 26.5196V20.35ZM83.7082 13.0911H83.2328L79.9005 14.3463L80.0029 14.7005C80.3344 14.6384 80.4349 14.6185 80.5788 14.6185C81.158 14.6185 81.3824 15.1188 81.3824 16.3542V25.851C81.3824 27.0841 81.0756 27.5224 80.1292 27.5224V27.9331H84.977V27.5347C84.0207 27.5347 83.7082 27.1161 83.7082 25.8597V13.0911ZM91.0492 26.8439C91.0492 27.808 91.1742 27.9331 92.1417 27.9331H94.635V27.5347C93.5827 27.5136 93.375 27.1573 93.375 25.4192V20.9587C93.375 18.4683 92.5312 17.6504 89.9735 17.6504C87.593 17.6504 85.8442 18.7405 85.8442 20.2272C85.8442 20.8967 86.2985 21.3571 86.9323 21.3571C87.651 21.3571 87.9824 20.9166 87.9636 19.9957C87.9435 18.8235 88.3798 18.2999 89.4344 18.2999C90.5939 18.2999 91.0492 18.9708 91.0492 20.6455V21.3571C86.7494 22.9069 85.4345 23.9119 85.4345 25.6297C85.4345 27.1217 86.4836 28.2353 87.902 28.2353C88.8964 28.2353 89.393 27.9409 91.0492 26.3868V26.8439ZM91.0492 22.0512V25.6318C90.47 26.2186 89.8483 26.533 89.2691 26.533C88.3798 26.533 87.7369 25.8631 87.7369 24.9201C87.7369 23.894 88.3574 23.2655 90.2413 22.4275L91.0492 22.0512Z" fill="black"/>
<defs>
<clipPath id="clip0_1369_94">
<rect width="118.711" height="12.6495" fill="white" transform="translate(1270.82 13.8892)"/>
</clipPath>
<clipPath id="clip1_1369_94">
<rect width="50.5981" height="22.3799" fill="white" transform="translate(1091.78 9.02417)"/>
</clipPath>
<clipPath id="clip2_1369_94">
<rect width="65.1937" height="17.5147" fill="white" transform="translate(704.508 10.97)"/>
</clipPath>
<clipPath id="clip3_1369_94">
<rect width="65.1937" height="22.3799" fill="white" transform="translate(898.143 9.02417)"/>
</clipPath>
<clipPath id="clip4_1369_94">
<rect width="35.0295" height="38.9216" fill="white" transform="translate(1517.97 0.266602)"/>
</clipPath>
<clipPath id="clip5_1369_94">
<rect width="81" height="16" fill="white" transform="translate(235 13)"/>
</clipPath>
</defs>
</svg>
