<svg width="72" height="22" viewBox="0 0 72 22" fill="none" xmlns="http://www.w3.org/2000/svg">
  <path d="M10.7968 0C4.83369 0 0 4.92465 0 11C0 17.0754 4.83369 22 10.7968 22C16.76 22 21.5937 17.0754 21.5937 11C21.5937 4.92465 16.7613 0 10.7968 0ZM15.7492 15.8655C15.5558 16.1887 15.1406 16.2911 14.8234 16.0928C12.2886 14.5152 9.09751 14.1579 5.33911 15.0327C4.97681 15.1168 4.6158 14.8856 4.53328 14.5165C4.45076 14.1474 4.6764 13.7796 5.03999 13.6955C9.15295 12.7379 12.6806 13.1503 15.5274 14.9224C15.8446 15.1207 15.9451 15.5424 15.7504 15.8655H15.7492ZM17.0707 12.8706C16.827 13.2738 16.3087 13.4012 15.9129 13.153C13.0106 11.335 8.58693 10.8095 5.15345 11.8709C4.70863 12.0075 4.23802 11.7527 4.10264 11.2995C3.96855 10.8463 4.21997 10.3682 4.6635 10.2302C8.58435 9.01779 13.4593 9.60497 16.7922 11.6923C17.188 11.9405 17.3131 12.4686 17.0694 12.8719L17.0707 12.8706ZM17.1842 9.75078C13.7043 7.64509 7.9629 7.452 4.6403 8.47922C4.10651 8.64342 3.54308 8.33736 3.38062 7.79353C3.21945 7.2497 3.51987 6.67566 4.05365 6.51015C7.86749 5.33055 14.2084 5.5578 18.2144 7.98137C18.6953 8.27168 18.8526 8.90351 18.5676 9.39085C18.284 9.87951 17.6625 10.0411 17.1842 9.75078ZM29.3761 10.1554C27.5117 9.70218 27.1803 9.38429 27.1803 8.71698C27.1803 8.08646 27.7631 7.66086 28.6308 7.66086C29.4986 7.66086 30.3044 7.984 31.1786 8.64736C31.2043 8.66707 31.2379 8.67495 31.2701 8.66969C31.3036 8.66444 31.332 8.64605 31.3513 8.61846L32.2616 7.31144C32.299 7.25758 32.2887 7.18271 32.2384 7.14199C31.1979 6.2921 30.0272 5.87831 28.6579 5.87831C26.6453 5.87831 25.2386 7.10915 25.2386 8.86936C25.2386 10.757 26.4519 11.4269 28.5483 11.9418C30.3315 12.3609 30.6332 12.7116 30.6332 13.3382C30.6332 14.0331 30.0246 14.4653 29.0447 14.4653C27.9565 14.4653 27.0682 14.0909 26.0754 13.216C26.0509 13.1937 26.0174 13.1845 25.9864 13.1858C25.9529 13.1884 25.9233 13.2042 25.9026 13.2292L24.8815 14.4666C24.8389 14.5191 24.8441 14.5953 24.8931 14.64C26.0483 15.6908 27.4692 16.2452 29.0035 16.2452C31.1721 16.2452 32.5736 15.038 32.5736 13.1687C32.5775 11.5911 31.6504 10.7176 29.3799 10.1554H29.3761ZM37.4808 8.28218C36.5409 8.28218 35.7699 8.65918 35.1329 9.43289V8.56329C35.1329 8.49499 35.0788 8.4385 35.0117 8.4385H33.3421C33.275 8.4385 33.2209 8.49499 33.2209 8.56329V18.2313C33.2209 18.2996 33.275 18.3561 33.3421 18.3561H35.0117C35.0788 18.3561 35.1329 18.2996 35.1329 18.2313V15.1798C35.7699 15.9063 36.5409 16.2622 37.4808 16.2622C39.2278 16.2622 40.9968 14.8922 40.9968 12.2729C40.9994 9.65357 39.2304 8.28218 37.4821 8.28218H37.4808ZM39.0551 12.2716C39.0551 13.6049 38.2492 14.5362 37.094 14.5362C35.9388 14.5362 35.0917 13.5628 35.0917 12.2716C35.0917 10.9803 35.9529 10.0069 37.094 10.0069C38.2299 10.0069 39.0551 10.9593 39.0551 12.2716ZM45.5288 8.28218C43.2789 8.28218 41.5164 10.0476 41.5164 12.3005C41.5164 14.5533 43.2673 16.2754 45.5017 16.2754C47.7361 16.2754 49.527 14.5165 49.527 12.2716C49.527 10.0266 47.7709 8.28218 45.5288 8.28218ZM45.5288 14.5493C44.3323 14.5493 43.4298 13.5694 43.4298 12.2716C43.4298 10.9737 44.3013 10.0214 45.5017 10.0214C46.7021 10.0214 47.6136 11.0013 47.6136 12.3005C47.6136 13.5996 46.7369 14.5506 45.5288 14.5506V14.5493ZM54.331 8.43719H52.4937V6.52329C52.4937 6.45498 52.4396 6.3985 52.3725 6.3985H50.7029C50.6358 6.3985 50.5804 6.45498 50.5804 6.52329V8.43719H49.7784C49.7114 8.43719 49.6572 8.49367 49.6572 8.56198V10.024C49.6572 10.0923 49.7114 10.1488 49.7784 10.1488H50.5804V13.9306C50.5804 15.4583 51.3269 16.2333 52.8006 16.2333C53.3989 16.2333 53.8952 16.1072 54.3633 15.8366C54.402 15.8156 54.4252 15.7736 54.4252 15.7289V14.3365C54.4252 14.2945 54.4032 14.2538 54.3671 14.2314C54.331 14.2078 54.2859 14.2065 54.2485 14.2262C53.9275 14.3904 53.6167 14.4666 53.2686 14.4666C52.7336 14.4666 52.4937 14.2183 52.4937 13.664V10.1488H54.331C54.3981 10.1488 54.4522 10.0923 54.4522 10.024V8.56198C54.4548 8.49367 54.4007 8.43719 54.3323 8.43719H54.331ZM60.7313 8.44507V8.20994C60.7313 7.51899 60.9917 7.2103 61.5745 7.2103C61.9226 7.2103 62.2024 7.28123 62.5157 7.38763C62.5544 7.39945 62.5943 7.3942 62.6253 7.37055C62.6575 7.34691 62.6756 7.30881 62.6756 7.26941V5.83628C62.6756 5.78111 62.6421 5.73251 62.5892 5.71674C62.2591 5.61691 61.8362 5.51314 61.2019 5.51314C59.6611 5.51314 58.845 6.39718 58.845 8.0707V8.43062H58.043C57.976 8.43062 57.9205 8.4871 57.9205 8.55541V10.024C57.9205 10.0923 57.976 10.1488 58.043 10.1488H58.845V15.9824C58.845 16.0521 58.9004 16.1072 58.9675 16.1072H60.6359C60.7042 16.1072 60.7583 16.0521 60.7583 15.9824V10.1501H62.3171L64.705 15.9824C64.4342 16.5946 64.1673 16.7167 63.8037 16.7167C63.5098 16.7167 63.199 16.6274 62.8832 16.4501C62.8535 16.4343 62.8174 16.4317 62.7865 16.4409C62.7542 16.4527 62.7271 16.4764 62.7143 16.5079L62.1482 17.7729C62.1212 17.8333 62.1444 17.9029 62.2011 17.9344C62.7916 18.2602 63.3241 18.3995 63.983 18.3995C65.2156 18.3995 65.8976 17.8136 66.4971 16.2399L69.393 8.61584C69.4085 8.57774 69.4033 8.53439 69.3801 8.50024C69.3582 8.46609 69.3208 8.44638 69.2808 8.44638H67.5428C67.4899 8.44638 67.4435 8.48054 67.4268 8.53045L65.6462 13.7099L63.6967 8.52651C63.6787 8.47791 63.6335 8.44638 63.5833 8.44638L60.7313 8.44638V8.44507ZM57.0206 8.43719H55.3509C55.2839 8.43719 55.2284 8.49367 55.2284 8.56198V15.9811C55.2284 16.0508 55.2839 16.1059 55.3509 16.1059H57.0206C57.0876 16.1059 57.1431 16.0508 57.1431 15.9811V8.56198C57.1431 8.49367 57.0889 8.43719 57.0206 8.43719ZM56.1954 5.05863C55.534 5.05863 54.9976 5.60378 54.9976 6.27765C54.9976 6.95152 55.534 7.49797 56.1954 7.49797C56.8568 7.49797 57.3919 6.95152 57.3919 6.27765C57.3919 5.60378 56.8555 5.05863 56.1954 5.05863ZM70.819 10.8227C70.1588 10.8227 69.6444 10.2815 69.6444 9.62599C69.6444 8.97051 70.1653 8.42274 70.8254 8.42274C71.4856 8.42274 72 8.96262 72 9.61942C72 10.2762 71.4791 10.8227 70.819 10.8227ZM70.8254 8.54228C70.2233 8.54228 69.7682 9.02962 69.7682 9.62599C69.7682 10.2224 70.2207 10.7031 70.819 10.7031C71.4172 10.7031 71.8762 10.2158 71.8762 9.61942C71.8762 9.02305 71.4237 8.54228 70.8254 8.54228ZM71.0859 9.74158L71.4185 10.2158H71.1374L70.8383 9.78099H70.5817V10.2158H70.3471V8.96H70.8963C71.1839 8.96 71.3721 9.10975 71.3721 9.36064C71.3721 9.56688 71.2561 9.69298 71.0872 9.74158H71.0859ZM70.8873 9.17543H70.5817V9.57213H70.8873C71.0395 9.57213 71.131 9.49594 71.131 9.37378C71.131 9.24505 71.0395 9.17543 70.8873 9.17543Z" fill="black"/>
</svg>