<svg width="70" height="13" viewBox="0 0 70 13" fill="none" xmlns="http://www.w3.org/2000/svg">
<g opacity="0.9" clip-path="url(#clip0_3124_1197)">
<path d="M12.9349 11.3322C12.9349 12.0311 13.0419 12.1139 13.5764 12.2634L13.9279 12.3634V12.9063H9.83352V12.3634L10.2003 12.2634C10.7803 12.1136 10.8268 12.0135 10.8268 11.3322V1.83083C10.8268 1.06563 10.7661 0.982071 10.2468 0.715733L9.75781 0.482377V0.0263865L12.8881 0L12.9951 0.0659661C12.9951 0.0659661 12.9344 0.980696 12.9344 2.09607V11.3322H12.9349Z" fill="white"/>
<path d="M17.1682 11.3322C17.1682 12.0311 17.2752 12.1139 17.8097 12.2634L18.1612 12.3634V12.9063H14.0679V12.3634L14.4347 12.2634C15.0147 12.1136 15.0612 12.0135 15.0612 11.3322V1.83083C15.0612 1.06563 15.0005 0.982071 14.4812 0.715733L13.9922 0.482377V0.0263865L17.1214 0L17.2284 0.0659661C17.2284 0.0659661 17.1677 0.980696 17.1677 2.09607V11.3322H17.1682Z" fill="white"/>
<path d="M25.7656 12.3637L25.9949 12.2798C26.5141 12.1135 26.6364 11.9308 27.1559 10.3501L30.2712 1.04883H31.4472L34.517 10.4666C34.9758 11.8304 35.1283 12.1476 35.5708 12.2809L35.876 12.3645V12.9073H31.1107V12.3645L31.4927 12.2644C31.9665 12.1311 32.0879 11.9154 32.0879 11.5655C32.0879 11.2826 31.9657 10.7497 31.8434 10.3844L31.31 8.58656H28.2707L27.7817 10.1508C27.5837 10.7497 27.4917 11.1658 27.4917 11.4981C27.4917 11.8978 27.6594 12.0971 28.1939 12.2466L28.5909 12.3634V12.9062H25.7659V12.3634L25.7656 12.3637ZM28.4997 7.95246H31.0259L29.8739 3.66026H29.8285L28.4997 7.95246Z" fill="white"/>
<path d="M0 12.3645L0.229265 12.2809C0.748523 12.1146 0.87078 11.9319 1.3903 10.3512L4.50558 1.04883H5.68187L8.7514 10.4666C9.2102 11.8304 9.36269 12.1476 9.80517 12.2809L10.1104 12.3645V12.9073H5.34533V12.3645L5.72735 12.2642C6.20113 12.1311 6.32258 11.9151 6.32258 11.5652C6.32258 11.2824 6.20033 10.7494 6.07807 10.3839L5.54463 8.58738H2.50533L2.0163 10.1505C1.81834 10.7494 1.72631 11.1656 1.72631 11.4979C1.72631 11.8975 1.89405 12.0968 2.42855 12.2463L2.82555 12.3628V12.9057H0V12.3642V12.3645ZM2.73433 7.95328H5.26053L4.10858 3.66109H4.0631L2.73433 7.95328Z" fill="white"/>
<path d="M38.6694 11.3322C38.6694 12.0974 38.7148 12.1314 39.2191 12.281L39.5557 12.3645V12.9074H35.5846V12.3645L35.9514 12.2645C36.5161 12.1147 36.5466 12.0487 36.5466 11.333V1.79758C36.5466 1.06563 36.5164 0.981796 35.9968 0.715458L35.5078 0.482102V0.0263865L38.6239 0L38.7309 0.0659661C38.7309 0.0659661 38.6702 0.980696 38.6702 2.09607V11.3322H38.6691H38.6694ZM38.6814 8.43597V8.31915L40.377 6.25606C41.0187 5.49086 41.1712 5.05823 41.1712 4.87435C41.1712 4.59152 40.9733 4.40874 40.5599 4.27543L40.3304 4.20946V3.76914H43.4457V4.20946L43.2172 4.29302C42.6675 4.45931 42.3462 4.65968 41.7964 5.29158L40.3192 7.18179C41.1134 8.79576 42.3157 10.7827 43.1404 11.8307C43.3547 12.1136 43.4607 12.2139 43.7357 12.3129L43.9034 12.3623V12.9052H41.2006C40.1782 11.5919 39.3839 9.86688 38.6817 8.43569L38.6814 8.43597Z" fill="white"/>
<path d="M44.7226 10.6326V4.69239H43.8516V4.5261C44.9974 4.06049 45.9441 3.04544 46.4018 1.88086H46.8443V3.77436H48.8146L48.8106 4.43045L46.8443 4.47223V10.5997C46.8443 11.4814 47.1041 11.748 47.8529 11.748C48.2651 11.748 48.6621 11.6477 48.9219 11.5487V11.9847C48.5551 12.4173 47.8376 12.9832 46.7384 12.9832C45.4096 12.9832 44.7226 12.1136 44.7226 10.6329V10.6326Z" fill="white"/>
<path d="M49.374 12.3647L49.7408 12.2646C50.3058 12.1148 50.3371 12.0489 50.3371 11.3664V5.6254C50.3371 4.97701 50.2763 4.90995 49.7723 4.59386L49.3438 4.29454V3.77066L52.4135 3.77835L52.5206 3.82783C52.4751 4.30993 52.4598 4.89235 52.4598 5.84144V11.3656C52.4598 12.048 52.5053 12.114 53.0711 12.2638L53.4226 12.3638V12.9067H49.3748V12.3649H49.3737L49.374 12.3647ZM51.3293 0.433594C51.9708 0.433594 52.4601 0.915696 52.4601 1.61494C52.4601 2.31418 51.9711 2.77951 51.3293 2.77951C50.6875 2.77951 50.1985 2.3139 50.1985 1.61494C50.1985 0.915971 50.6875 0.433594 51.3293 0.433594Z" fill="white"/>
<path d="M53.4688 8.35352C53.4688 5.47465 55.347 3.74414 57.3628 3.74414C59.3785 3.74414 60.6774 4.90872 60.6921 7.72162H55.6068C55.6068 10.65 56.5535 11.5988 58.2643 11.5988C59.1501 11.5988 59.8526 11.3654 60.4489 11.0164V11.4864C59.9141 12.2018 58.8454 13 57.3941 13C54.7215 13 53.4688 11.1318 53.4688 8.35325V8.35352ZM55.6068 7.18235L58.5856 7.20544C58.5856 4.95847 58.256 4.21003 57.294 4.21003C56.332 4.21003 55.6683 4.81994 55.6068 7.18235Z" fill="white"/>
<path d="M18.1096 8.35352C18.1096 5.47465 19.9879 3.74414 22.0039 3.74414C24.02 3.74414 25.3183 4.90872 25.3332 7.72162H20.2477C20.2477 10.65 21.1944 11.5988 22.905 11.5988C23.791 11.5988 24.4935 11.3654 25.0895 11.0164V11.4864C24.555 12.2018 23.486 13 22.035 13C19.3624 13 18.1094 11.1318 18.1094 8.35325L18.1096 8.35352ZM20.2477 7.18235L23.2265 7.20544C23.2265 4.95847 22.8972 4.21003 21.9352 4.21003C20.9732 4.21003 20.3095 4.81994 20.2477 7.18235Z" fill="white"/>
<path d="M60.9297 12.3643L61.2967 12.2639C61.8612 12.1141 61.8925 12.0482 61.8925 11.3657V5.62473C61.8925 4.95874 61.832 4.90927 61.343 4.59318L60.931 4.31035V4.16055L63.8786 3.7774L63.9853 3.82687L63.9703 4.95847H64.0006C64.7796 4.35955 65.8181 3.74414 66.8871 3.74414C68.2311 3.74414 68.8879 4.47609 68.8879 5.97325V11.3643C68.8879 12.0633 68.9336 12.1128 69.4831 12.2626L69.8649 12.3626V12.9088H65.8638V12.3626L66.2154 12.2791C66.7194 12.1458 66.7649 12.0963 66.7649 11.3643V6.38856C66.7649 5.32403 66.4446 4.97386 65.6806 4.97386C64.9165 4.97386 64.3317 5.28637 63.9652 5.41968L64.0153 11.3643C64.0153 12.0963 64.061 12.146 64.5653 12.2791L64.9318 12.3626V12.9088H60.9308V12.3637H60.9297V12.3643Z" fill="white"/>
<path d="M9.28999 11.8166C9.28999 11.8166 9.50508 12.2459 10.0104 12.2459C10.5158 12.2459 10.8379 12.0489 10.829 11.4873C10.8189 10.9247 11.2231 11.9156 11.2231 11.9156L10.4146 12.4661H9.57303L9 12.1357L9.28999 11.8166Z" fill="white"/>
<path d="M35.0556 11.8162C35.0556 11.8162 35.271 12.2455 35.7761 12.2455C36.2811 12.2455 36.6035 12.0484 36.5947 11.4869C36.5856 10.9253 36.9887 11.9151 36.9887 11.9151L36.1803 12.4657H35.3387L34.7656 12.1353L35.0556 11.8162Z" fill="white"/>
<path d="M12.937 11.3653C12.937 11.3653 12.735 12.2459 13.9656 12.2459C14.6315 12.2459 15.0568 12.0489 15.0437 11.4873C15.0306 10.9247 15.564 11.9156 15.564 11.9156L14.498 12.4661H13.3886L12.6328 12.1357L12.937 11.365V11.3653Z" fill="white"/>
<path d="M13.8655 12.5796H14.2716V12.3418H13.7734L13.8655 12.5796Z" fill="white"/>
<path d="M14.1526 12.4668H13.4453V12.9071H14.1526V12.4668Z" fill="white"/>
<path d="M38.6692 8.05275C38.6692 8.05275 38.6834 8.1495 38.7027 8.17369C38.746 8.22866 38.7492 8.19787 38.9279 8.02059C39.1069 7.84331 38.9047 8.28363 38.9047 8.28363L38.6016 8.39385L38.6692 8.05247V8.05275Z" fill="white"/>
<path d="M38.6692 8.75934C38.6692 8.75934 38.6834 8.66259 38.7027 8.63813C38.746 8.58316 38.7492 8.61394 38.9279 8.79123C39.1069 8.96851 38.9047 8.52819 38.9047 8.52819L38.6016 8.41797L38.6692 8.75934Z" fill="white"/>
<path d="M38.8035 8.2832H38.6016V8.50336H38.8035V8.2832Z" fill="white"/>
</g>
<defs>
<clipPath id="clip0_3124_1197">
<rect width="70" height="13" fill="white"/>
</clipPath>
</defs>
</svg>
