<svg width="111" height="14" viewBox="0 0 111 14" fill="none" xmlns="http://www.w3.org/2000/svg">
<g clip-path="url(#clip0_3163_968)">
<path d="M13.461 11.5191C13.461 12.2297 13.5723 12.3136 14.1284 12.4657L14.4941 12.5675V13.1192H10.2353V12.5675L10.6167 12.4657C11.2201 12.3136 11.2683 12.2118 11.2683 11.5191V1.86089C11.2683 1.08316 11.2053 0.998133 10.665 0.727383L10.1562 0.4902V0.0269167L13.4124 0L13.5238 0.0671333C13.5238 0.0671333 13.4607 0.997025 13.4607 2.13053V11.5189L13.461 11.5191Z" fill="white"/>
<path d="M17.858 11.5191C17.858 12.2297 17.9694 12.3136 18.5254 12.4657L18.8911 12.5675V13.1192H14.6334V12.5675L15.015 12.4657C15.6184 12.3136 15.6666 12.2118 15.6666 11.5191V1.86089C15.6666 1.08316 15.6035 0.998133 15.0634 0.727383L14.5547 0.4902V0.0269167L17.8098 0L17.9211 0.0671333C17.9211 0.0671333 17.858 0.997025 17.858 2.13053V11.5189V11.5191Z" fill="white"/>
<path d="M26.797 12.5674L27.0356 12.4824C27.5759 12.3135 27.703 12.1277 28.2433 10.5208L31.4837 1.06641H32.7071L35.9002 10.6394C36.3774 12.0259 36.5361 12.3481 36.9964 12.4835L37.3138 12.5685V13.1202H32.3572V12.5685L32.7544 12.4667C33.2474 12.3313 33.3734 12.1121 33.3734 11.7561C33.3734 11.4686 33.2463 10.9269 33.119 10.5555L32.5641 8.72816H29.4025L28.8938 10.3183C28.6878 10.9271 28.5921 11.35 28.5921 11.6879C28.5921 12.094 28.7665 12.2967 29.3226 12.4488L29.7356 12.5674V13.1191H26.7969V12.5674H26.797ZM29.6411 8.08358H32.2687L31.0705 3.72055H31.0232L29.6411 8.08358Z" fill="white"/>
<path d="M0 12.5666L0.238599 12.4816C0.778877 12.3126 0.905983 12.1267 1.44626 10.52L4.68651 1.06445H5.90994L9.10288 10.6376C9.58008 12.0241 9.73873 12.3463 10.1991 12.4817L10.5165 12.5667V13.1184H5.55985V12.5667L5.9571 12.4649C6.45006 12.3296 6.57622 12.1103 6.57622 11.7543C6.57622 11.4666 6.44896 10.9251 6.32185 10.5535L5.76691 8.72731H2.60535L2.09661 10.3163C1.89066 10.9251 1.79493 11.348 1.79493 11.6861C1.79493 12.0922 1.96935 12.2949 2.5254 12.447L2.93841 12.5656V13.1173H0V12.5667V12.5666ZM2.84411 8.08274H5.4717L4.2735 3.7197H4.22619L2.84411 8.08274Z" fill="white"/>
<path d="M40.2265 11.5191C40.2265 12.2968 40.2738 12.3315 40.7983 12.4836L41.1482 12.5687V13.1203H37.0176V12.5687L37.3991 12.4669C37.9867 12.3147 38.0181 12.2476 38.0181 11.5202V1.82732C38.0181 1.08316 37.9865 0.998133 37.4462 0.727383L36.9375 0.4902V0.0269167L40.1789 0L40.2903 0.0671333C40.2903 0.0671333 40.2273 0.997025 40.2273 2.13053V11.5189H40.2262L40.2265 11.5191ZM40.2391 8.57486V8.45627L42.0026 6.3593C42.67 5.58157 42.8288 5.14187 42.8288 4.95488C42.8288 4.66735 42.6229 4.48162 42.193 4.34609L41.9544 4.27896V3.83135H45.1948V4.27896L44.9573 4.36398C44.3855 4.53292 44.0513 4.73654 43.4795 5.3789L41.9429 7.30027C42.7691 8.94077 44.0198 10.9605 44.8774 12.0259C45.1002 12.3134 45.2106 12.4152 45.4963 12.5161L45.6707 12.5664V13.1181H42.8593C41.7956 11.783 40.9694 10.0296 40.2389 8.57502L40.2391 8.57486Z" fill="white"/>
<path d="M46.5154 10.8082V4.77003H45.6094V4.60108C46.8013 4.12767 47.7861 3.09597 48.2622 1.91211H48.7225V3.83681H50.7721L50.7679 4.50371L48.7225 4.5463V10.7747C48.7225 11.671 48.9927 11.9419 49.7715 11.9419C50.2003 11.9419 50.6133 11.8401 50.8835 11.7394V12.1826C50.502 12.6223 49.7558 13.1975 48.6123 13.1975C47.2302 13.1975 46.5155 12.3135 46.5155 10.8084L46.5154 10.8082Z" fill="white"/>
<path d="M51.3598 12.5672L51.7413 12.4653C52.3289 12.3132 52.3614 12.2461 52.3614 11.5522V5.7167C52.3614 5.05756 52.2983 4.98932 51.7738 4.66822L51.3281 4.3639V3.83127L54.5212 3.83903L54.6327 3.88938C54.5854 4.37958 54.5696 4.97143 54.5696 5.936V11.5511C54.5696 12.2449 54.6169 12.3121 55.2055 12.4642L55.5712 12.566V13.1177H51.3608V12.5672H51.3597H51.3598ZM53.3935 0.439453C54.0609 0.439453 54.5696 0.929653 54.5696 1.64009C54.5696 2.35054 54.0609 2.82395 53.3935 2.82395C52.7261 2.82395 52.2174 2.3507 52.2174 1.64009C52.2174 0.929495 52.7261 0.439453 53.3935 0.439453Z" fill="white"/>
<path d="M55.6172 8.48993C55.6172 5.56377 57.5711 3.80469 59.6677 3.80469C61.7643 3.80469 63.1155 4.98855 63.1309 7.84757H57.8412C57.8412 10.8241 58.8261 11.7886 60.6057 11.7886C61.527 11.7886 62.2578 11.5515 62.878 11.1966V11.6745C62.3218 12.4017 61.21 13.2132 59.7003 13.2132C56.9204 13.2132 55.6172 11.3143 55.6172 8.48993ZM57.8411 7.29942L60.9397 7.32285C60.9397 5.0389 60.5969 4.2781 59.5961 4.2781C58.5953 4.2781 57.9051 4.89798 57.8411 7.29942Z" fill="white"/>
<path d="M18.8361 8.48993C18.8361 5.56377 20.79 3.80469 22.8868 3.80469C24.9835 3.80469 26.3341 4.98855 26.35 7.84757H21.0601C21.0601 10.8241 22.045 11.7886 23.8243 11.7886C24.746 11.7886 25.4765 11.5515 26.0966 11.1966V11.6745C25.5405 12.4017 24.4286 13.2132 22.9192 13.2132C20.1393 13.2132 18.8359 11.3143 18.8359 8.48993H18.8361ZM21.06 7.29942L24.1585 7.32285C24.1585 5.0389 23.8158 4.2781 22.8152 4.2781C21.8146 4.2781 21.124 4.89798 21.06 7.29942Z" fill="white"/>
<path d="M63.3828 12.5662L63.7644 12.4644C64.3516 12.3123 64.3842 12.2451 64.3842 11.5513V5.71577C64.3842 5.03874 64.3213 4.98839 63.8125 4.66729L63.3839 4.37975V4.2276L66.4499 3.83825L66.5609 3.8886L66.5455 5.0389H66.577C67.3873 4.4301 68.4677 3.80469 69.5795 3.80469C70.9775 3.80469 71.6606 4.54885 71.6606 6.0706V11.5504C71.6606 12.261 71.7081 12.3113 72.2797 12.4635L72.6768 12.5653V13.1204H68.515V12.5653L68.8807 12.4802C69.4049 12.3449 69.4523 12.2945 69.4523 11.5504V6.4924C69.4523 5.41035 69.1193 5.05441 68.3245 5.05441C67.5297 5.05441 66.9214 5.37219 66.5403 5.50756L66.5923 11.5502C66.5923 12.2944 66.6398 12.3447 67.1646 12.4801L67.5458 12.5651V13.1202H63.3839V12.5664H63.3828V12.5662Z" fill="white"/>
<path d="M9.66105 12.0123C9.66105 12.0123 9.88499 12.4487 10.4104 12.4487C10.9359 12.4487 11.2713 12.2484 11.2619 11.6776C11.2513 11.1059 11.6717 12.1129 11.6717 12.1129L10.8309 12.6724H9.95532L9.35938 12.3367L9.66105 12.0123Z" fill="white"/>
<path d="M36.4579 12.0119C36.4579 12.0119 36.6819 12.4482 37.2073 12.4482C37.7328 12.4482 38.0682 12.248 38.0587 11.6772C38.0493 11.1065 38.4686 12.1124 38.4686 12.1124L37.6277 12.672H36.7522L36.1562 12.3363L36.4579 12.0119Z" fill="white"/>
<path d="M13.4571 11.5535C13.4571 11.5535 13.2469 12.4487 14.5271 12.4487C15.2197 12.4487 15.6622 12.2484 15.6485 11.6776C15.6348 11.1059 16.1897 12.1129 16.1897 12.1129L15.0808 12.6724H13.9268L13.1406 12.3367L13.457 11.5535H13.4571Z" fill="white"/>
<path d="M14.4238 12.7867H14.8463V12.5449H14.3281L14.4238 12.7867Z" fill="white"/>
<path d="M14.72 12.6719H13.9844V13.1195H14.72V12.6719Z" fill="white"/>
<path d="M40.2266 8.18459C40.2266 8.18459 40.2414 8.28307 40.2613 8.30761C40.3064 8.36351 40.3095 8.33231 40.4956 8.15213C40.6817 7.97195 40.4715 8.41956 40.4715 8.41956L40.1562 8.5315L40.2266 8.18459Z" fill="white"/>
<path d="M40.2266 8.9016C40.2266 8.9016 40.2414 8.80311 40.2613 8.77841C40.3064 8.72252 40.3095 8.75387 40.4956 8.93405C40.6817 9.11424 40.4715 8.66663 40.4715 8.66663L40.1562 8.55469L40.2266 8.9016Z" fill="white"/>
<path d="M40.3665 8.41992H40.1562V8.64365H40.3665V8.41992Z" fill="white"/>
</g>
<path d="M78.0703 12.8562H77V6H79.8996C81.2132 6 82.1765 6.60411 82.1765 8.04247C82.1765 9.48082 81.2132 10.0753 79.8996 10.0753H78.0703V12.8562ZM78.0703 9.16438H79.851C80.6586 9.16438 81.0672 8.80959 81.0672 8.04247C81.0672 7.26575 80.6586 6.91096 79.851 6.91096H78.0703V9.16438Z" fill="white"/>
<path d="M84.8876 13C83.3405 13 82.4064 11.9452 82.4064 10.411C82.4064 8.8863 83.3405 7.81233 84.8974 7.81233C86.4347 7.81233 87.3688 8.87671 87.3688 10.4014C87.3688 11.9356 86.4347 13 84.8876 13ZM84.8974 12.2233C85.9093 12.2233 86.3763 11.4274 86.3763 10.411C86.3763 9.38493 85.9093 8.59863 84.8974 8.59863C83.866 8.59863 83.3989 9.38493 83.3989 10.411C83.3989 11.4274 83.866 12.2233 84.8974 12.2233Z" fill="white"/>
<path d="M91.7027 8.56027V6H92.6563V12.8562H91.7027V12.2808H91.6833C91.4108 12.626 90.934 12.9904 90.1556 12.9904C88.8907 12.9904 87.9274 12.0219 87.9274 10.411C87.9274 8.8 88.8907 7.82192 90.1556 7.82192C90.934 7.82192 91.4108 8.17671 91.6833 8.56027H91.7027ZM90.3113 12.2137C91.1676 12.2137 91.693 11.5137 91.693 10.411C91.693 9.29863 91.1676 8.60822 90.3113 8.60822C89.3772 8.60822 88.9199 9.45205 88.9199 10.411C88.9199 11.3699 89.3772 12.2137 90.3113 12.2137Z" fill="white"/>
<path d="M95.9092 13C94.4302 13 93.4669 11.9452 93.4669 10.411C93.4669 8.87671 94.4302 7.82192 95.8995 7.82192C97.1741 7.82192 98.0207 8.63699 98.1374 9.73973H97.1547C97.106 9.23151 96.8141 8.59863 95.9092 8.59863C94.8486 8.59863 94.4594 9.49041 94.4594 10.411C94.4594 11.3315 94.8486 12.2137 95.9092 12.2137C96.8239 12.2137 97.106 11.6 97.1547 11.0438H98.1374C98.0693 12.1658 97.1839 13 95.9092 13Z" fill="white"/>
<path d="M100.271 12.9904C99.2783 12.9904 98.6458 12.4247 98.6458 11.5904C98.6458 10.4973 99.4826 10.1712 100.718 9.9411C101.497 9.79726 101.974 9.70137 101.974 9.22192C101.974 8.86712 101.759 8.56986 101.03 8.56986C100.164 8.56986 99.901 8.83836 99.8524 9.49041H98.8794C98.928 8.55069 99.5507 7.81233 101.069 7.81233C102.09 7.81233 102.908 8.23425 102.908 9.5V11.7438C102.908 12.0986 102.956 12.2808 103.141 12.2808C103.17 12.2808 103.2 12.2808 103.258 12.2712V12.8466C103.093 12.8849 102.927 12.9041 102.771 12.9041C102.295 12.9041 102.042 12.7219 101.983 12.1658H101.964C101.643 12.674 101.078 12.9904 100.271 12.9904ZM100.485 12.2329C101.341 12.2329 101.974 11.8014 101.974 10.9479V10.2479C101.818 10.3918 101.39 10.4973 100.884 10.6027C100.008 10.7753 99.6383 11.0151 99.6383 11.5233C99.6383 11.9836 99.8913 12.2329 100.485 12.2329Z" fill="white"/>
<path d="M106.024 12.9904C104.516 12.9904 103.766 12.2233 103.737 11.226H104.7C104.739 11.7918 105.09 12.2329 106.014 12.2329C106.851 12.2329 107.075 11.8685 107.075 11.5137C107.075 10.9 106.413 10.8329 105.771 10.6986C104.905 10.4973 103.912 10.2479 103.912 9.23151C103.912 8.38767 104.603 7.82192 105.8 7.82192C107.162 7.82192 107.814 8.5411 107.882 9.38493H106.919C106.851 9.01096 106.646 8.57945 105.819 8.57945C105.177 8.57945 104.905 8.82877 104.905 9.19315C104.905 9.70137 105.459 9.74932 106.16 9.90274C107.075 10.1137 108.067 10.3726 108.067 11.4658C108.067 12.4151 107.328 12.9904 106.024 12.9904Z" fill="white"/>
<path d="M110.591 12.137C110.757 12.137 110.835 12.1274 111 12.0986V12.8562C110.757 12.9041 110.601 12.9137 110.397 12.9137C109.579 12.9137 109.083 12.6068 109.083 11.4753V8.74247H108.363V7.96575H109.083V6.39315H110.037V7.96575H110.99V8.74247H110.037V11.5041C110.037 12.0219 110.183 12.137 110.591 12.137Z" fill="white"/>
<defs>
<clipPath id="clip0_3163_968">
<rect width="73" height="14" fill="white"/>
</clipPath>
</defs>
</svg>
