<svg xmlns="http://www.w3.org/2000/svg" width="140" height="152" fill="none">
  <g opacity=".29">
    <path fill="url(#a)" d="M29.06 98.233c1.15 0 2.082-.935 2.082-2.089a2.086 2.086 0 0 0-2.083-2.088c-1.15 0-2.082.935-2.082 2.088 0 1.154.932 2.089 2.082 2.089Z"/>
    <path fill="url(#b)" d="M29.06 111.687c1.15 0 2.082-.935 2.082-2.089a2.085 2.085 0 0 0-2.083-2.088c-1.15 0-2.082.935-2.082 2.088 0 1.154.932 2.089 2.082 2.089Z"/>
    <path fill="url(#c)" d="M29.06 80.626a2.085 2.085 0 0 0-2.083 2.089c0 1.141.944 2.088 2.082 2.088a2.101 2.101 0 0 0 2.083-2.088 2.101 2.101 0 0 0-2.083-2.089Z"/>
    <path fill="url(#d)" d="M29.06 71.374c1.15 0 2.082-.935 2.082-2.089a2.086 2.086 0 0 0-2.083-2.088c-1.15 0-2.082.935-2.082 2.088 0 1.154.932 2.089 2.082 2.089Z"/>
    <path fill="url(#e)" d="M29.06 44.49c1.15 0 2.082-.935 2.082-2.088a2.086 2.086 0 0 0-2.083-2.089c-1.15 0-2.082.935-2.082 2.089 0 1.153.932 2.088 2.082 2.088Z"/>
    <path fill="url(#f)" d="M29.06 57.92c1.15 0 2.082-.935 2.082-2.089a2.086 2.086 0 0 0-2.083-2.088c-1.15 0-2.082.935-2.082 2.088 0 1.154.932 2.089 2.082 2.089Z"/>
    <path fill="url(#g)" d="M15.57 57.92c1.151 0 2.084-.935 2.084-2.089a2.086 2.086 0 0 0-2.083-2.088c-1.15 0-2.083.935-2.083 2.088 0 1.154.933 2.089 2.083 2.089Z"/>
    <path fill="url(#h)" d="M15.57 98.233c1.151 0 2.084-.935 2.084-2.089a2.086 2.086 0 0 0-2.083-2.088c-1.15 0-2.083.935-2.083 2.088 0 1.154.933 2.089 2.083 2.089Z"/>
    <path fill="url(#i)" d="M57.634 41.139a1.938 1.938 0 0 0-.315-.316c-.097-.073-.193-.146-.29-.194-.097-.049-.17-.122-.29-.146a1.766 1.766 0 0 0-.727-.146 2.07 2.07 0 0 0-1.913 1.287 2.28 2.28 0 0 0-.17.826c0 1.166.944 2.089 2.083 2.089.072 0 .145-.049.218-.049.048 0 .097 0 .145-.024.969-.194 1.72-.996 1.72-2.016 0-.413-.146-.801-.364-1.117-.024-.048-.073-.097-.097-.146v-.048Z"/>
    <path fill="url(#j)" d="M56.012 125.116c1.15 0 2.082-.935 2.082-2.088a2.086 2.086 0 0 0-2.082-2.089c-1.15 0-2.083.936-2.083 2.089s.932 2.088 2.083 2.088Z"/>
    <path fill="url(#k)" d="M56.012 98.233c1.15 0 2.082-.935 2.082-2.089a2.086 2.086 0 0 0-2.082-2.088c-1.15 0-2.083.935-2.083 2.088 0 1.154.932 2.089 2.083 2.089Z"/>
    <path fill="url(#l)" d="M56.012 57.92c1.15 0 2.082-.935 2.082-2.089a2.085 2.085 0 0 0-2.082-2.088c-1.15 0-2.083.935-2.083 2.088 0 1.154.932 2.089 2.083 2.089Z"/>
    <path fill="url(#m)" d="M56.012 138.546c1.15 0 2.082-.935 2.082-2.088a2.086 2.086 0 0 0-2.082-2.089c-1.15 0-2.083.935-2.083 2.089 0 1.153.932 2.088 2.083 2.088Z"/>
    <path fill="url(#n)" d="M42.548 53.743a2.085 2.085 0 0 0-2.083 2.088c0 1.142.944 2.089 2.083 2.089a2.101 2.101 0 0 0 2.082-2.089 2.101 2.101 0 0 0-2.082-2.088Z"/>
    <path fill="url(#o)" d="M42.548 120.939a2.086 2.086 0 0 0-2.083 2.089c0 1.141.944 2.088 2.083 2.088a2.1 2.1 0 0 0 2.082-2.088 2.102 2.102 0 0 0-2.082-2.089Z"/>
    <path fill="url(#p)" d="M42.548 40.313a2.086 2.086 0 0 0-2.083 2.089c0 1.141.944 2.088 2.083 2.088a2.101 2.101 0 0 0 2.082-2.088 2.101 2.101 0 0 0-2.082-2.089Z"/>
    <path fill="url(#q)" d="M42.548 67.197a2.085 2.085 0 0 0-2.083 2.088c0 1.142.944 2.089 2.083 2.089a2.101 2.101 0 0 0 2.082-2.089 2.101 2.101 0 0 0-2.082-2.088Z"/>
    <path fill="url(#r)" d="M42.548 26.884a2.085 2.085 0 0 0-2.083 2.088c0 1.141.944 2.089 2.083 2.089a2.101 2.101 0 0 0 2.082-2.089 2.101 2.101 0 0 0-2.082-2.088Z"/>
    <path fill="url(#s)" d="M42.548 107.51a2.085 2.085 0 0 0-2.083 2.088c0 1.142.944 2.089 2.083 2.089a2.101 2.101 0 0 0 2.082-2.089 2.1 2.1 0 0 0-2.082-2.088Z"/>
    <path fill="url(#t)" d="M42.548 80.626a2.085 2.085 0 0 0-2.083 2.089c0 1.141.944 2.088 2.083 2.088a2.101 2.101 0 0 0 2.082-2.088 2.101 2.101 0 0 0-2.082-2.089Z"/>
    <path fill="url(#u)" d="M42.548 94.056a2.085 2.085 0 0 0-2.083 2.088c0 1.142.944 2.089 2.083 2.089a2.101 2.101 0 0 0 2.082-2.089 2.101 2.101 0 0 0-2.082-2.088Z"/>
    <path fill="url(#v)" d="M2.083 94.056A2.085 2.085 0 0 0 0 96.144c0 1.142.944 2.089 2.083 2.089a2.101 2.101 0 0 0 2.082-2.089 2.101 2.101 0 0 0-2.082-2.088Z"/>
    <path fill="url(#w)" d="M15.57 111.687c1.151 0 2.084-.935 2.084-2.089a2.085 2.085 0 0 0-2.083-2.088c-1.15 0-2.083.935-2.083 2.088 0 1.154.933 2.089 2.083 2.089Z"/>
    <path fill="url(#x)" d="M2.083 107.51A2.085 2.085 0 0 0 0 109.598c0 1.142.944 2.089 2.083 2.089a2.101 2.101 0 0 0 2.082-2.089 2.101 2.101 0 0 0-2.082-2.088Z"/>
    <path fill="url(#y)" d="M2.083 53.743A2.085 2.085 0 0 0 0 55.83c0 1.142.944 2.089 2.083 2.089a2.101 2.101 0 0 0 2.082-2.089 2.101 2.101 0 0 0-2.082-2.088Z"/>
    <path fill="url(#z)" d="M15.57 67.197a2.085 2.085 0 0 0-2.082 2.088c0 1.142.945 2.089 2.083 2.089a2.101 2.101 0 0 0 2.083-2.089 2.101 2.101 0 0 0-2.083-2.088Z"/>
    <path fill="url(#A)" d="M2.083 67.197A2.085 2.085 0 0 0 0 69.285c0 1.142.944 2.089 2.083 2.089a2.101 2.101 0 0 0 2.082-2.089 2.101 2.101 0 0 0-2.082-2.088Z"/>
    <path fill="url(#B)" d="M82.988 17.607c1.15 0 2.083-.935 2.083-2.089a2.086 2.086 0 0 0-2.083-2.088c-1.15 0-2.082.935-2.082 2.088 0 1.154.932 2.089 2.082 2.089Z"/>
    <path fill="url(#C)" d="M82.988 0c-.58 0-1.09.243-1.477.607a2.056 2.056 0 0 0-.605 1.482c0 .655.29 1.238.75 1.602a2.13 2.13 0 0 0 1.332.486c.509 0 .969-.17 1.332-.486.46-.388.75-.971.75-1.602a2.16 2.16 0 0 0-.604-1.482A2.044 2.044 0 0 0 82.988 0Z"/>
    <path fill="url(#D)" d="M82.988 57.92c1.15 0 2.083-.935 2.083-2.089a2.086 2.086 0 0 0-2.083-2.088c-1.15 0-2.082.935-2.082 2.088 0 1.154.932 2.089 2.082 2.089Z"/>
    <path fill="url(#E)" d="M84.587 67.974a2.265 2.265 0 0 0-.654-.535s-.025 0-.049-.024c-.266-.121-.557-.218-.871-.218-.315 0-.606.097-.872.218 0 0-.024 0-.049.024-.678.34-1.162 1.045-1.162 1.846 0 1.166.944 2.089 2.082 2.089a2.101 2.101 0 0 0 2.083-2.089c0-.51-.194-.947-.484-1.311h-.024Z"/>
    <path fill="url(#F)" d="M123.429 120.939c-.315 0-.605.073-.872.195-.218.17-.436.315-.654.485a2.097 2.097 0 0 0-.556 1.409c0 1.166.944 2.088 2.082 2.088a2.101 2.101 0 0 0 2.083-2.088 2.102 2.102 0 0 0-2.083-2.089Z"/>
    <path fill="url(#G)" d="M123.429 147.799a2.085 2.085 0 0 0-2.082 2.088c0 1.142.92 2.064 2.058 2.089.508-.219 1.041-.437 1.55-.656.363-.364.581-.874.581-1.433a2.086 2.086 0 0 0-2.083-2.088h-.024Z"/>
    <path fill="url(#H)" d="M82.988 98.233c1.15 0 2.083-.935 2.083-2.089a2.086 2.086 0 0 0-2.083-2.088c-1.15 0-2.082.935-2.082 2.088 0 1.154.932 2.089 2.082 2.089Z"/>
    <path fill="url(#I)" d="M82.988 138.546c1.15 0 2.083-.935 2.083-2.088a2.086 2.086 0 0 0-2.083-2.089c-1.15 0-2.082.935-2.082 2.089 0 1.153.932 2.088 2.082 2.088Z"/>
    <path fill="url(#J)" d="M82.988 152c1.15 0 2.083-.935 2.083-2.089a2.085 2.085 0 0 0-2.083-2.088c-1.15 0-2.082.935-2.082 2.088 0 1.154.932 2.089 2.082 2.089Z"/>
    <path fill="url(#K)" d="M123.429 17.607c1.15 0 2.083-.935 2.083-2.089a2.086 2.086 0 0 0-2.083-2.088c-1.15 0-2.082.935-2.082 2.088 0 1.154.932 2.089 2.082 2.089Z"/>
    <path fill="url(#L)" d="M123.429 138.546c1.15 0 2.083-.935 2.083-2.088a2.086 2.086 0 0 0-2.083-2.089c-1.15 0-2.082.935-2.082 2.089 0 1.153.932 2.088 2.082 2.088Z"/>
    <path fill="url(#M)" d="M109.941 17.607c1.15 0 2.082-.935 2.082-2.089a2.085 2.085 0 0 0-2.082-2.088c-1.15 0-2.083.935-2.083 2.088 0 1.154.933 2.089 2.083 2.089Z"/>
    <path fill="url(#N)" d="M109.941 0c-.581 0-1.09.243-1.477.607-.388.364-.606.899-.606 1.482 0 .655.291 1.238.751 1.602a2.13 2.13 0 0 0 1.332.486c.508 0 .968-.17 1.332-.486.46-.388.75-.971.75-1.602a2.16 2.16 0 0 0-.605-1.482A2.045 2.045 0 0 0 109.941 0Z"/>
    <path fill="url(#O)" d="M108.803 54.156a1.86 1.86 0 0 0-.533.534c-.049.073-.121.146-.145.218-.049.073-.073.17-.097.243-.073.219-.146.437-.146.68 0 .243.049.462.146.68.024.097.072.17.097.243l.145.219c.387.558.969.947 1.695.947a2.086 2.086 0 0 0 2.083-2.089 2.102 2.102 0 0 0-2.083-2.088c-.436 0-.823.17-1.162.388v.025Z"/>
    <path fill="url(#P)" d="M109.941 138.546c1.15 0 2.082-.935 2.082-2.088a2.085 2.085 0 0 0-2.082-2.089c-1.15 0-2.083.935-2.083 2.089 0 1.153.933 2.088 2.083 2.088Z"/>
    <path fill="url(#Q)" d="M109.941 152c1.15 0 2.082-.935 2.082-2.089a2.085 2.085 0 0 0-2.082-2.088c-1.15 0-2.083.935-2.083 2.088 0 1.154.933 2.089 2.083 2.089Z"/>
    <path fill="url(#R)" d="M96.477 0c-.582 0-1.09.243-1.478.607-.387.364-.605.899-.605 1.482 0 .655.29 1.238.75 1.602a2.13 2.13 0 0 0 1.333.486c.508 0 .968-.17 1.331-.486.46-.388.751-.971.751-1.602a2.16 2.16 0 0 0-.605-1.482A2.044 2.044 0 0 0 96.477 0Z"/>
    <path fill="url(#S)" d="M96.477 13.43a2.085 2.085 0 0 0-2.083 2.088c0 1.142.944 2.089 2.083 2.089a2.101 2.101 0 0 0 2.082-2.089 2.101 2.101 0 0 0-2.082-2.088Z"/>
    <path fill="url(#T)" d="M96.477 53.743a2.085 2.085 0 0 0-2.083 2.088c0 1.142.944 2.089 2.083 2.089a2.101 2.101 0 0 0 2.082-2.089 2.101 2.101 0 0 0-2.082-2.088Z"/>
    <path fill="url(#U)" d="M96.477 94.056a2.085 2.085 0 0 0-2.083 2.088c0 1.142.944 2.089 2.083 2.089a2.101 2.101 0 0 0 2.082-2.089 2.101 2.101 0 0 0-2.082-2.088Z"/>
    <path fill="url(#V)" d="m108.1 97.091.146.22c.363.558.968.946 1.695.946a2.085 2.085 0 0 0 2.082-2.088 2.1 2.1 0 0 0-2.082-2.089c-.727 0-1.308.389-1.695.947l-.146.219c-.048.073-.072.17-.097.243-.072.218-.145.437-.145.68 0 .243.049.461.145.68.025.097.073.17.097.242Z"/>
    <path fill="url(#W)" d="M98.05 67.974a2.265 2.265 0 0 0-.653-.535s-.024 0-.049-.024c-.266-.121-.556-.218-.871-.218-.315 0-.606.097-.872.218 0 0-.024 0-.049.024a1.767 1.767 0 0 0-.653.535c-.291.364-.485.801-.485 1.311 0 1.166.945 2.089 2.083 2.089a2.101 2.101 0 0 0 2.082-2.089c0-.51-.193-.947-.484-1.311h-.048Z"/>
    <path fill="url(#X)" d="M96.477 134.369a2.085 2.085 0 0 0-2.083 2.089c0 1.141.944 2.088 2.083 2.088a2.1 2.1 0 0 0 2.082-2.088 2.101 2.101 0 0 0-2.082-2.089Z"/>
    <path fill="url(#Y)" d="M96.477 147.799a2.085 2.085 0 0 0-2.083 2.088c0 1.142.944 2.089 2.083 2.089a2.101 2.101 0 0 0 2.082-2.089 2.1 2.1 0 0 0-2.082-2.088Z"/>
    <path fill="url(#Z)" d="M69.5 17.607c1.15 0 2.083-.935 2.083-2.089A2.086 2.086 0 0 0 69.5 13.43c-1.15 0-2.083.935-2.083 2.088 0 1.154.933 2.089 2.083 2.089Z"/>
    <path fill="url(#aa)" d="M69.5 57.92c1.15 0 2.083-.935 2.083-2.089a2.086 2.086 0 0 0-2.083-2.088c-1.15 0-2.083.935-2.083 2.088 0 1.154.933 2.089 2.083 2.089Z"/>
    <path fill="url(#ab)" d="M56.956 67.44s-.024 0-.048-.025c-.267-.121-.557-.218-.872-.218-.315 0-.605.097-.872.218 0 0-.024 0-.048.024a1.767 1.767 0 0 0-.654.535c-.29.364-.485.801-.485 1.311 0 1.166.945 2.089 2.083 2.089a2.101 2.101 0 0 0 2.083-2.089c0-.825-.485-1.505-1.163-1.846h-.024Z"/>
    <path fill="url(#ac)" d="M109.941 71.374a2.085 2.085 0 0 0 2.082-2.089 2.1 2.1 0 0 0-2.082-2.088c-.436 0-.824.17-1.163.388-.557.365-.944.972-.944 1.7 0 1.166.944 2.089 2.083 2.089h.024Z"/>
    <path fill="url(#ad)" d="M70.42 67.44s-.024 0-.048-.025c-.267-.121-.557-.218-.872-.218-.315 0-.605.097-.872.218 0 0-.024 0-.048.024-.678.34-1.163 1.045-1.163 1.846 0 1.166.945 2.089 2.083 2.089a2.101 2.101 0 0 0 2.083-2.089c0-.825-.485-1.505-1.163-1.846Z"/>
    <path fill="url(#ae)" d="M69.5 98.233c1.15 0 2.083-.935 2.083-2.089a2.086 2.086 0 0 0-2.083-2.088c-1.15 0-2.083.935-2.083 2.088 0 1.154.933 2.089 2.083 2.089Z"/>
    <path fill="url(#af)" d="M82.988 111.687c1.15 0 2.083-.935 2.083-2.089a2.085 2.085 0 0 0-2.083-2.088c-1.15 0-2.082.935-2.082 2.088 0 1.154.932 2.089 2.082 2.089Z"/>
    <path fill="url(#ag)" d="M96.477 107.51a2.085 2.085 0 0 0-2.083 2.088c0 1.142.944 2.089 2.083 2.089a2.101 2.101 0 0 0 2.082-2.089 2.1 2.1 0 0 0-2.082-2.088Z"/>
    <path fill="url(#ah)" d="M107.858 109.598c0 .243.049.462.145.68.025.097.073.17.097.243l.146.219c.363.558.968.947 1.695.947a2.085 2.085 0 0 0 2.082-2.089 2.1 2.1 0 0 0-2.082-2.088c-.727 0-1.308.388-1.695.947l-.146.219c-.048.072-.072.17-.097.242-.072.219-.145.437-.145.68Z"/>
    <path fill="url(#ai)" d="M69.5 111.687c1.15 0 2.083-.935 2.083-2.089a2.085 2.085 0 0 0-2.083-2.088c-1.15 0-2.083.935-2.083 2.088 0 1.154.933 2.089 2.083 2.089Z"/>
    <path fill="url(#aj)" d="M69.5 120.939c-.727 0-1.332.389-1.695.948a3.068 3.068 0 0 0-.267.485 1.864 1.864 0 0 0-.12.656c0 .874.532 1.603 1.283 1.918.242.098.533.17.823.17.315 0 .606-.072.872-.218l.048-.024c.678-.34 1.163-1.045 1.163-1.846a2.086 2.086 0 0 0-2.083-2.089H69.5Z"/>
    <path fill="url(#ak)" d="M56.012 107.51a2.07 2.07 0 0 0-1.913 1.287c-.097.243-.17.534-.17.801 0 .51.218.996.533 1.36.024.049.048.097.097.122.048.024.097.048.12.097.364.316.824.534 1.357.534.266 0 .508-.048.726-.146l.291-.145a2.056 2.056 0 0 0 .605-.51c.025-.049.073-.097.097-.146.218-.34.363-.704.363-1.117a2.086 2.086 0 0 0-2.082-2.089l-.024-.048Z"/>
    <path fill="url(#al)" d="M69.5 0c-.581 0-1.09.243-1.477.607a2.056 2.056 0 0 0-.606 1.482c0 .655.291 1.238.751 1.602a2.13 2.13 0 0 0 1.332.486c.508 0 .969-.17 1.332-.486.46-.388.75-.971.75-1.602a2.16 2.16 0 0 0-.605-1.482A2.044 2.044 0 0 0 69.5 0Z"/>
    <path fill="url(#am)" d="M69.5 152c1.15 0 2.083-.935 2.083-2.089a2.085 2.085 0 0 0-2.083-2.088c-1.15 0-2.083.935-2.083 2.088 0 1.154.933 2.089 2.083 2.089Z"/>
    <path fill="url(#an)" d="M69.5 138.546c1.15 0 2.083-.935 2.083-2.088a2.086 2.086 0 0 0-2.083-2.089c-1.15 0-2.083.935-2.083 2.089 0 1.153.933 2.088 2.083 2.088Z"/>
    <path fill="url(#ao)" d="M56.012 17.607c1.15 0 2.082-.935 2.082-2.089a2.086 2.086 0 0 0-2.082-2.088c-1.15 0-2.083.935-2.083 2.088 0 1.154.932 2.089 2.083 2.089Z"/>
    <path fill="url(#ap)" d="M56.012 31.06c1.15 0 2.082-.934 2.082-2.088a2.086 2.086 0 0 0-2.082-2.088c-1.15 0-2.083.935-2.083 2.088s.932 2.089 2.083 2.089Z"/>
    <path fill="url(#aq)" d="M70.76 27.345s-.195-.146-.316-.194c-.072-.049-.17-.073-.242-.122-.218-.073-.46-.145-.702-.145a2.07 2.07 0 0 0-1.913 1.287c-.097.242-.17.534-.17.825 0 .292.049.559.17.802a2.103 2.103 0 0 0 1.937 1.287 2.085 2.085 0 0 0 2.083-2.089c0-.68-.34-1.238-.848-1.627v-.024Z"/>
    <path fill="url(#ar)" d="M123.429 0c-.581 0-1.09.243-1.477.607a2.053 2.053 0 0 0-.605 1.482c0 .655.29 1.238.75 1.602.363.292.824.486 1.332.486.509 0 .969-.17 1.332-.486.46-.388.751-.971.751-1.602 0-.583-.242-1.093-.606-1.482A2.043 2.043 0 0 0 123.429 0Z"/>
    <path fill="url(#as)" d="M138.54 135.146a2.099 2.099 0 0 0-1.598-.753c-.364 0-.703.097-.993.243-.121.073-.218.146-.339.219-.097.097-.194.17-.291.291-.29.364-.484.826-.484 1.336 0 .51.169.971.484 1.336.097.097.17.194.291.291.097.097.218.17.339.219.29.17.629.242.993.242.653 0 1.235-.291 1.598-.752.169-.195.29-.438.387-.705.073-.194.097-.413.097-.631 0-.219-.024-.437-.097-.632a1.812 1.812 0 0 0-.387-.704Z"/>
    <path fill="url(#at)" d="M135.586 17.145s.217.17.339.219c.29.17.629.243.992.243.654 0 1.235-.292 1.599-.753.169-.194.29-.437.387-.704.073-.195.097-.413.097-.632 0-.218-.024-.437-.097-.631a1.827 1.827 0 0 0-.387-.705 2.097 2.097 0 0 0-1.599-.752c-.363 0-.702.097-.992.242-.122.073-.218.146-.339.219-.097.097-.194.17-.291.291a2.14 2.14 0 0 0-.484 1.336c0 .51.169.971.484 1.336.097.097.169.194.291.291Z"/>
    <path fill="url(#au)" d="M138.54 27.636a2.097 2.097 0 0 0-1.598-.752c-.364 0-.703.097-.993.242-.121.073-.218.146-.339.219-.097.097-.194.17-.291.291-.29.365-.484.826-.484 1.336 0 .51.169.971.484 1.336.097.097.17.194.291.291.097.097.218.17.339.219.29.17.629.243.993.243.653 0 1.235-.292 1.598-.753a2.21 2.21 0 0 0 .387-.704c.073-.195.097-.413.097-.632 0-.219-.024-.437-.097-.631a1.814 1.814 0 0 0-.387-.705Z"/>
    <path fill="url(#av)" d="M125.439 28.34s-.048-.048-.048-.096a2.683 2.683 0 0 0-.194-.365c-.049-.073-.073-.194-.145-.267 0 0-.049-.024-.073-.048-.121-.146-.291-.243-.436-.34-.073-.05-.145-.122-.242-.146a2.06 2.06 0 0 0-.848-.194c-.315 0-.605.097-.871.218-.049 0-.073 0-.122.024-.121.073-.217.146-.339.219-.096.097-.193.17-.29.291a2.141 2.141 0 0 0-.484 1.336c0 .51.169.971.484 1.336.097.097.169.194.29.291.097.097.218.17.339.219.291.17.63.243.993.243.654 0 1.235-.292 1.599-.753.096-.122.169-.292.242-.437.024-.073.072-.122.097-.195 0-.024.048-.048.048-.072.048-.195.097-.413.097-.608 0-.218-.024-.412-.097-.607v-.048Z"/>
    <path fill="url(#aw)" d="M136.143 40.507s-.17 0-.218.049h-.025c.025.049.073.073.097.121l.146-.194v.024Z"/>
    <path fill="url(#ax)" d="M138.54 121.692a2.099 2.099 0 0 0-1.598-.753c-.364 0-.703.098-.993.243-.121.073-.218.146-.339.219-.097.097-.194.17-.291.291a2.15 2.15 0 0 0-.484 1.336c0 .51.169.971.484 1.336.097.097.17.194.291.291.097.097.218.17.339.219.29.17.629.242.993.242.653 0 1.235-.291 1.598-.752.169-.195.29-.438.387-.705.073-.194.097-.412.097-.631 0-.219-.024-.437-.097-.631a1.816 1.816 0 0 0-.387-.705Z"/>
  </g>
  <defs>
    <linearGradient id="a" x1="139.024" x2="0" y1="76" y2="76" gradientUnits="userSpaceOnUse">
      <stop stop-color="#244645"/>
      <stop offset="1" stop-color="#9FCAA0"/>
    </linearGradient>
    <linearGradient id="b" x1="139.024" x2="0" y1="76" y2="76" gradientUnits="userSpaceOnUse">
      <stop stop-color="#244645"/>
      <stop offset="1" stop-color="#9FCAA0"/>
    </linearGradient>
    <linearGradient id="c" x1="139.024" x2="0" y1="76" y2="76" gradientUnits="userSpaceOnUse">
      <stop stop-color="#244645"/>
      <stop offset="1" stop-color="#9FCAA0"/>
    </linearGradient>
    <linearGradient id="d" x1="139.024" x2="0" y1="76" y2="76" gradientUnits="userSpaceOnUse">
      <stop stop-color="#244645"/>
      <stop offset="1" stop-color="#9FCAA0"/>
    </linearGradient>
    <linearGradient id="e" x1="139.024" x2="0" y1="76" y2="76" gradientUnits="userSpaceOnUse">
      <stop stop-color="#244645"/>
      <stop offset="1" stop-color="#9FCAA0"/>
    </linearGradient>
    <linearGradient id="f" x1="139.024" x2="0" y1="76" y2="76" gradientUnits="userSpaceOnUse">
      <stop stop-color="#244645"/>
      <stop offset="1" stop-color="#9FCAA0"/>
    </linearGradient>
    <linearGradient id="g" x1="139.024" x2="0" y1="76" y2="76" gradientUnits="userSpaceOnUse">
      <stop stop-color="#244645"/>
      <stop offset="1" stop-color="#9FCAA0"/>
    </linearGradient>
    <linearGradient id="h" x1="139.024" x2="0" y1="76" y2="76" gradientUnits="userSpaceOnUse">
      <stop stop-color="#244645"/>
      <stop offset="1" stop-color="#9FCAA0"/>
    </linearGradient>
    <linearGradient id="i" x1="139.024" x2="0" y1="76" y2="76" gradientUnits="userSpaceOnUse">
      <stop stop-color="#244645"/>
      <stop offset="1" stop-color="#9FCAA0"/>
    </linearGradient>
    <linearGradient id="j" x1="139.024" x2="0" y1="76" y2="76" gradientUnits="userSpaceOnUse">
      <stop stop-color="#244645"/>
      <stop offset="1" stop-color="#9FCAA0"/>
    </linearGradient>
    <linearGradient id="k" x1="139.024" x2="0" y1="76" y2="76" gradientUnits="userSpaceOnUse">
      <stop stop-color="#244645"/>
      <stop offset="1" stop-color="#9FCAA0"/>
    </linearGradient>
    <linearGradient id="l" x1="139.024" x2="0" y1="76" y2="76" gradientUnits="userSpaceOnUse">
      <stop stop-color="#244645"/>
      <stop offset="1" stop-color="#9FCAA0"/>
    </linearGradient>
    <linearGradient id="m" x1="139.024" x2="0" y1="76" y2="76" gradientUnits="userSpaceOnUse">
      <stop stop-color="#244645"/>
      <stop offset="1" stop-color="#9FCAA0"/>
    </linearGradient>
    <linearGradient id="n" x1="139.024" x2="0" y1="76" y2="76" gradientUnits="userSpaceOnUse">
      <stop stop-color="#244645"/>
      <stop offset="1" stop-color="#9FCAA0"/>
    </linearGradient>
    <linearGradient id="o" x1="139.024" x2="0" y1="76" y2="76" gradientUnits="userSpaceOnUse">
      <stop stop-color="#244645"/>
      <stop offset="1" stop-color="#9FCAA0"/>
    </linearGradient>
    <linearGradient id="p" x1="139.024" x2="0" y1="76" y2="76" gradientUnits="userSpaceOnUse">
      <stop stop-color="#244645"/>
      <stop offset="1" stop-color="#9FCAA0"/>
    </linearGradient>
    <linearGradient id="q" x1="139.024" x2="0" y1="76" y2="76" gradientUnits="userSpaceOnUse">
      <stop stop-color="#244645"/>
      <stop offset="1" stop-color="#9FCAA0"/>
    </linearGradient>
    <linearGradient id="r" x1="139.024" x2="0" y1="76" y2="76" gradientUnits="userSpaceOnUse">
      <stop stop-color="#244645"/>
      <stop offset="1" stop-color="#9FCAA0"/>
    </linearGradient>
    <linearGradient id="s" x1="139.024" x2="0" y1="76" y2="76" gradientUnits="userSpaceOnUse">
      <stop stop-color="#244645"/>
      <stop offset="1" stop-color="#9FCAA0"/>
    </linearGradient>
    <linearGradient id="t" x1="139.024" x2="0" y1="76" y2="76" gradientUnits="userSpaceOnUse">
      <stop stop-color="#244645"/>
      <stop offset="1" stop-color="#9FCAA0"/>
    </linearGradient>
    <linearGradient id="u" x1="139.024" x2="0" y1="76" y2="76" gradientUnits="userSpaceOnUse">
      <stop stop-color="#244645"/>
      <stop offset="1" stop-color="#9FCAA0"/>
    </linearGradient>
    <linearGradient id="v" x1="139.024" x2="0" y1="76" y2="76" gradientUnits="userSpaceOnUse">
      <stop stop-color="#244645"/>
      <stop offset="1" stop-color="#9FCAA0"/>
    </linearGradient>
    <linearGradient id="w" x1="139.024" x2="0" y1="76" y2="76" gradientUnits="userSpaceOnUse">
      <stop stop-color="#244645"/>
      <stop offset="1" stop-color="#9FCAA0"/>
    </linearGradient>
    <linearGradient id="x" x1="139.024" x2="0" y1="76" y2="76" gradientUnits="userSpaceOnUse">
      <stop stop-color="#244645"/>
      <stop offset="1" stop-color="#9FCAA0"/>
    </linearGradient>
    <linearGradient id="y" x1="139.024" x2="0" y1="76" y2="76" gradientUnits="userSpaceOnUse">
      <stop stop-color="#244645"/>
      <stop offset="1" stop-color="#9FCAA0"/>
    </linearGradient>
    <linearGradient id="z" x1="139.024" x2="0" y1="76" y2="76" gradientUnits="userSpaceOnUse">
      <stop stop-color="#244645"/>
      <stop offset="1" stop-color="#9FCAA0"/>
    </linearGradient>
    <linearGradient id="A" x1="139.024" x2="0" y1="76" y2="76" gradientUnits="userSpaceOnUse">
      <stop stop-color="#244645"/>
      <stop offset="1" stop-color="#9FCAA0"/>
    </linearGradient>
    <linearGradient id="B" x1="139.024" x2="0" y1="76" y2="76" gradientUnits="userSpaceOnUse">
      <stop stop-color="#244645"/>
      <stop offset="1" stop-color="#9FCAA0"/>
    </linearGradient>
    <linearGradient id="C" x1="139.024" x2="0" y1="76" y2="76" gradientUnits="userSpaceOnUse">
      <stop stop-color="#244645"/>
      <stop offset="1" stop-color="#9FCAA0"/>
    </linearGradient>
    <linearGradient id="D" x1="139.024" x2="0" y1="76" y2="76" gradientUnits="userSpaceOnUse">
      <stop stop-color="#244645"/>
      <stop offset="1" stop-color="#9FCAA0"/>
    </linearGradient>
    <linearGradient id="E" x1="139.024" x2="0" y1="76" y2="76" gradientUnits="userSpaceOnUse">
      <stop stop-color="#244645"/>
      <stop offset="1" stop-color="#9FCAA0"/>
    </linearGradient>
    <linearGradient id="F" x1="139.024" x2="0" y1="76" y2="76" gradientUnits="userSpaceOnUse">
      <stop stop-color="#244645"/>
      <stop offset="1" stop-color="#9FCAA0"/>
    </linearGradient>
    <linearGradient id="G" x1="139.024" x2="0" y1="76" y2="76" gradientUnits="userSpaceOnUse">
      <stop stop-color="#244645"/>
      <stop offset="1" stop-color="#9FCAA0"/>
    </linearGradient>
    <linearGradient id="H" x1="139.024" x2="0" y1="76" y2="76" gradientUnits="userSpaceOnUse">
      <stop stop-color="#244645"/>
      <stop offset="1" stop-color="#9FCAA0"/>
    </linearGradient>
    <linearGradient id="I" x1="139.024" x2="0" y1="76" y2="76" gradientUnits="userSpaceOnUse">
      <stop stop-color="#244645"/>
      <stop offset="1" stop-color="#9FCAA0"/>
    </linearGradient>
    <linearGradient id="J" x1="139.024" x2="0" y1="76" y2="76" gradientUnits="userSpaceOnUse">
      <stop stop-color="#244645"/>
      <stop offset="1" stop-color="#9FCAA0"/>
    </linearGradient>
    <linearGradient id="K" x1="139.024" x2="0" y1="76" y2="76" gradientUnits="userSpaceOnUse">
      <stop stop-color="#244645"/>
      <stop offset="1" stop-color="#9FCAA0"/>
    </linearGradient>
    <linearGradient id="L" x1="139.024" x2="0" y1="76" y2="76" gradientUnits="userSpaceOnUse">
      <stop stop-color="#244645"/>
      <stop offset="1" stop-color="#9FCAA0"/>
    </linearGradient>
    <linearGradient id="M" x1="139.024" x2="0" y1="76" y2="76" gradientUnits="userSpaceOnUse">
      <stop stop-color="#244645"/>
      <stop offset="1" stop-color="#9FCAA0"/>
    </linearGradient>
    <linearGradient id="N" x1="139.024" x2="0" y1="76" y2="76" gradientUnits="userSpaceOnUse">
      <stop stop-color="#244645"/>
      <stop offset="1" stop-color="#9FCAA0"/>
    </linearGradient>
    <linearGradient id="O" x1="139.024" x2="0" y1="76" y2="76" gradientUnits="userSpaceOnUse">
      <stop stop-color="#244645"/>
      <stop offset="1" stop-color="#9FCAA0"/>
    </linearGradient>
    <linearGradient id="P" x1="139.024" x2="0" y1="76" y2="76" gradientUnits="userSpaceOnUse">
      <stop stop-color="#244645"/>
      <stop offset="1" stop-color="#9FCAA0"/>
    </linearGradient>
    <linearGradient id="Q" x1="139.024" x2="0" y1="76" y2="76" gradientUnits="userSpaceOnUse">
      <stop stop-color="#244645"/>
      <stop offset="1" stop-color="#9FCAA0"/>
    </linearGradient>
    <linearGradient id="R" x1="139.024" x2="0" y1="76" y2="76" gradientUnits="userSpaceOnUse">
      <stop stop-color="#244645"/>
      <stop offset="1" stop-color="#9FCAA0"/>
    </linearGradient>
    <linearGradient id="S" x1="139.024" x2="0" y1="76" y2="76" gradientUnits="userSpaceOnUse">
      <stop stop-color="#244645"/>
      <stop offset="1" stop-color="#9FCAA0"/>
    </linearGradient>
    <linearGradient id="T" x1="139.024" x2="0" y1="76" y2="76" gradientUnits="userSpaceOnUse">
      <stop stop-color="#244645"/>
      <stop offset="1" stop-color="#9FCAA0"/>
    </linearGradient>
    <linearGradient id="U" x1="139.024" x2="0" y1="76" y2="76" gradientUnits="userSpaceOnUse">
      <stop stop-color="#244645"/>
      <stop offset="1" stop-color="#9FCAA0"/>
    </linearGradient>
    <linearGradient id="V" x1="139.024" x2="0" y1="76" y2="76" gradientUnits="userSpaceOnUse">
      <stop stop-color="#244645"/>
      <stop offset="1" stop-color="#9FCAA0"/>
    </linearGradient>
    <linearGradient id="W" x1="139.024" x2="0" y1="76" y2="76" gradientUnits="userSpaceOnUse">
      <stop stop-color="#244645"/>
      <stop offset="1" stop-color="#9FCAA0"/>
    </linearGradient>
    <linearGradient id="X" x1="139.024" x2="0" y1="76" y2="76" gradientUnits="userSpaceOnUse">
      <stop stop-color="#244645"/>
      <stop offset="1" stop-color="#9FCAA0"/>
    </linearGradient>
    <linearGradient id="Y" x1="139.024" x2="0" y1="76" y2="76" gradientUnits="userSpaceOnUse">
      <stop stop-color="#244645"/>
      <stop offset="1" stop-color="#9FCAA0"/>
    </linearGradient>
    <linearGradient id="Z" x1="139.024" x2="0" y1="76" y2="76" gradientUnits="userSpaceOnUse">
      <stop stop-color="#244645"/>
      <stop offset="1" stop-color="#9FCAA0"/>
    </linearGradient>
    <linearGradient id="aa" x1="139.024" x2="0" y1="76" y2="76" gradientUnits="userSpaceOnUse">
      <stop stop-color="#244645"/>
      <stop offset="1" stop-color="#9FCAA0"/>
    </linearGradient>
    <linearGradient id="ab" x1="139.024" x2="0" y1="76" y2="76" gradientUnits="userSpaceOnUse">
      <stop stop-color="#244645"/>
      <stop offset="1" stop-color="#9FCAA0"/>
    </linearGradient>
    <linearGradient id="ac" x1="139.024" x2="0" y1="76" y2="76" gradientUnits="userSpaceOnUse">
      <stop stop-color="#244645"/>
      <stop offset="1" stop-color="#9FCAA0"/>
    </linearGradient>
    <linearGradient id="ad" x1="139.024" x2="0" y1="76" y2="76" gradientUnits="userSpaceOnUse">
      <stop stop-color="#244645"/>
      <stop offset="1" stop-color="#9FCAA0"/>
    </linearGradient>
    <linearGradient id="ae" x1="139.024" x2="0" y1="76" y2="76" gradientUnits="userSpaceOnUse">
      <stop stop-color="#244645"/>
      <stop offset="1" stop-color="#9FCAA0"/>
    </linearGradient>
    <linearGradient id="af" x1="139.024" x2="0" y1="76" y2="76" gradientUnits="userSpaceOnUse">
      <stop stop-color="#244645"/>
      <stop offset="1" stop-color="#9FCAA0"/>
    </linearGradient>
    <linearGradient id="ag" x1="139.024" x2="0" y1="76" y2="76" gradientUnits="userSpaceOnUse">
      <stop stop-color="#244645"/>
      <stop offset="1" stop-color="#9FCAA0"/>
    </linearGradient>
    <linearGradient id="ah" x1="139.024" x2="0" y1="76" y2="76" gradientUnits="userSpaceOnUse">
      <stop stop-color="#244645"/>
      <stop offset="1" stop-color="#9FCAA0"/>
    </linearGradient>
    <linearGradient id="ai" x1="139.024" x2="0" y1="76" y2="76" gradientUnits="userSpaceOnUse">
      <stop stop-color="#244645"/>
      <stop offset="1" stop-color="#9FCAA0"/>
    </linearGradient>
    <linearGradient id="aj" x1="139.024" x2="0" y1="76" y2="76" gradientUnits="userSpaceOnUse">
      <stop stop-color="#244645"/>
      <stop offset="1" stop-color="#9FCAA0"/>
    </linearGradient>
    <linearGradient id="ak" x1="139.024" x2="0" y1="76" y2="76" gradientUnits="userSpaceOnUse">
      <stop stop-color="#244645"/>
      <stop offset="1" stop-color="#9FCAA0"/>
    </linearGradient>
    <linearGradient id="al" x1="139.024" x2="0" y1="76" y2="76" gradientUnits="userSpaceOnUse">
      <stop stop-color="#244645"/>
      <stop offset="1" stop-color="#9FCAA0"/>
    </linearGradient>
    <linearGradient id="am" x1="139.024" x2="0" y1="76" y2="76" gradientUnits="userSpaceOnUse">
      <stop stop-color="#244645"/>
      <stop offset="1" stop-color="#9FCAA0"/>
    </linearGradient>
    <linearGradient id="an" x1="139.024" x2="0" y1="76" y2="76" gradientUnits="userSpaceOnUse">
      <stop stop-color="#244645"/>
      <stop offset="1" stop-color="#9FCAA0"/>
    </linearGradient>
    <linearGradient id="ao" x1="139.024" x2="0" y1="76" y2="76" gradientUnits="userSpaceOnUse">
      <stop stop-color="#244645"/>
      <stop offset="1" stop-color="#9FCAA0"/>
    </linearGradient>
    <linearGradient id="ap" x1="139.024" x2="0" y1="76" y2="76" gradientUnits="userSpaceOnUse">
      <stop stop-color="#244645"/>
      <stop offset="1" stop-color="#9FCAA0"/>
    </linearGradient>
    <linearGradient id="aq" x1="139.024" x2="0" y1="76" y2="76" gradientUnits="userSpaceOnUse">
      <stop stop-color="#244645"/>
      <stop offset="1" stop-color="#9FCAA0"/>
    </linearGradient>
    <linearGradient id="ar" x1="139.024" x2="0" y1="76" y2="76" gradientUnits="userSpaceOnUse">
      <stop stop-color="#244645"/>
      <stop offset="1" stop-color="#9FCAA0"/>
    </linearGradient>
    <linearGradient id="as" x1="139.024" x2="0" y1="76" y2="76" gradientUnits="userSpaceOnUse">
      <stop stop-color="#244645"/>
      <stop offset="1" stop-color="#9FCAA0"/>
    </linearGradient>
    <linearGradient id="at" x1="139.024" x2="0" y1="76" y2="76" gradientUnits="userSpaceOnUse">
      <stop stop-color="#244645"/>
      <stop offset="1" stop-color="#9FCAA0"/>
    </linearGradient>
    <linearGradient id="au" x1="139.024" x2="0" y1="76" y2="76" gradientUnits="userSpaceOnUse">
      <stop stop-color="#244645"/>
      <stop offset="1" stop-color="#9FCAA0"/>
    </linearGradient>
    <linearGradient id="av" x1="139.024" x2="0" y1="76" y2="76" gradientUnits="userSpaceOnUse">
      <stop stop-color="#244645"/>
      <stop offset="1" stop-color="#9FCAA0"/>
    </linearGradient>
    <linearGradient id="aw" x1="139.024" x2="0" y1="76" y2="76" gradientUnits="userSpaceOnUse">
      <stop stop-color="#244645"/>
      <stop offset="1" stop-color="#9FCAA0"/>
    </linearGradient>
    <linearGradient id="ax" x1="139.024" x2="0" y1="76" y2="76" gradientUnits="userSpaceOnUse">
      <stop stop-color="#244645"/>
      <stop offset="1" stop-color="#9FCAA0"/>
    </linearGradient>
  </defs>
</svg>